<?xml version="1.0" encoding="UTF-8" standalone="no"?>
<!-- Created with Inkscape (http://www.inkscape.org/) -->

<svg
   xmlns:dc="http://purl.org/dc/elements/1.1/"
   xmlns:cc="http://creativecommons.org/ns#"
   xmlns:rdf="http://www.w3.org/1999/02/22-rdf-syntax-ns#"
   xmlns:svg="http://www.w3.org/2000/svg"
   xmlns="http://www.w3.org/2000/svg"
   xmlns:xlink="http://www.w3.org/1999/xlink"
   xmlns:sodipodi="http://sodipodi.sourceforge.net/DTD/sodipodi-0.dtd"
   xmlns:inkscape="http://www.inkscape.org/namespaces/inkscape"
   width="2300"
   height="1156"
   viewBox="0 0 608.54165 305.85834"
   version="1.1"
   id="svg8"
   inkscape:version="0.92.3 (2405546, 2018-03-11)"
   sodipodi:docname="kangur.svg">
  <defs
     id="defs2">
    <linearGradient
       inkscape:collect="always"
       id="linearGradient928">
      <stop
         style="stop-color:#00ffff;stop-opacity:1;"
         offset="0"
         id="stop924" />
      <stop
         style="stop-color:#00ffff;stop-opacity:0;"
         offset="1"
         id="stop926" />
    </linearGradient>
    <linearGradient
       inkscape:collect="always"
       id="linearGradient895">
      <stop
         style="stop-color:#803300;stop-opacity:1;"
         offset="0"
         id="stop891" />
      <stop
         style="stop-color:#000000;stop-opacity:1"
         offset="1"
         id="stop893" />
    </linearGradient>
    <linearGradient
       inkscape:collect="always"
       xlink:href="#linearGradient895"
       id="linearGradient897"
       x1="300.73982"
       y1="198.47246"
       x2="359.31966"
       y2="198.47246"
       gradientUnits="userSpaceOnUse"
       gradientTransform="matrix(1.2739399,0,0,1.2739399,-107.6105,-11.504567)" />
    <linearGradient
       inkscape:collect="always"
       xlink:href="#linearGradient928"
       id="linearGradient930"
       x1="223.22099"
       y1="167.60551"
       x2="253.64117"
       y2="153.54932"
       gradientUnits="userSpaceOnUse"
       gradientTransform="matrix(1.2739399,0,0,1.2739399,-107.6105,-11.504567)" />
  </defs>
  <sodipodi:namedview
     id="base"
     pagecolor="#ffffff"
     bordercolor="#666666"
     borderopacity="1.0"
     inkscape:pageopacity="0.0"
     inkscape:pageshadow="2"
     inkscape:zoom="0.38521739"
     inkscape:cx="1150"
     inkscape:cy="578"
     inkscape:document-units="mm"
     inkscape:current-layer="layer6"
     showgrid="false"
     units="px"
     inkscape:snap-nodes="false"
     inkscape:snap-others="false"
     inkscape:window-width="1366"
     inkscape:window-height="705"
     inkscape:window-x="-8"
     inkscape:window-y="-8"
     inkscape:window-maximized="1" />
  <metadata
     id="metadata5">
    <rdf:RDF>
      <cc:Work
         rdf:about="">
        <dc:format>image/svg+xml</dc:format>
        <dc:type
           rdf:resource="http://purl.org/dc/dcmitype/StillImage" />
        <dc:title></dc:title>
      </cc:Work>
    </rdf:RDF>
  </metadata>
  <g
     inkscape:groupmode="layer"
     id="layer6"
     inkscape:label="Layer 5">
    <path
       style="fill:url(#linearGradient897);fill-opacity:1;stroke:#000000;stroke-width:0.33706325px;stroke-linecap:butt;stroke-linejoin:miter;stroke-opacity:1"
       d="m 350.12574,244.19285 c 0,0 -26.9083,1.93601 -39.41231,0.7229 -12.50399,-1.2131 -35.15403,-7.55785 -35.15403,-7.55785 z"
       id="path889"
       inkscape:connector-curvature="0"
       sodipodi:nodetypes="czcc" />
    <path
       style="fill:#d45500;stroke:none;stroke-width:0.33706325px;stroke-linecap:butt;stroke-linejoin:miter;stroke-opacity:1"
       d="m 273.9319,202.55713 c 12.02693,5.21168 15.60763,8.40853 24.85566,9.35429 9.24804,0.94574 24.39972,-0.81984 28.86464,-4.54352 4.46492,-3.72367 3.89595,-4.23764 3.20718,-5.87983 -0.68876,-1.64218 -0.28138,-1.16484 -5.87982,-1.60359 -5.59845,-0.43876 -18.25927,8.29735 -27.52832,8.01795 -9.26906,-0.27939 -18.19896,-7.54802 -25.39018,-9.08701 -7.19122,-1.539 -12.91122,-3.15431 -17.10498,-1.33633 -4.19376,1.81797 -7.61784,5.65942 -6.41437,8.01795 1.20345,2.35854 3.85046,0.47851 5.61257,-0.26725 1.76209,-0.74577 1.9405,-3.24461 4.27625,-4.00899 2.33576,-0.76438 8.81973,1.06907 8.81973,1.06907 0,0 1.86484,-0.0368 6.68164,0.26726 z"
       id="path932-4"
       inkscape:connector-curvature="0"
       sodipodi:nodetypes="czzzzzzzzzzcc" />
    <path
       style="display:inline;fill:#d45500;stroke:none;stroke-width:0.33706325px;stroke-linecap:butt;stroke-linejoin:miter;stroke-opacity:1"
       d="m 426.18241,201.38184 c -2.23424,2.41727 -15.78906,14.53674 -28.81891,21.7062 -3.10874,1.71053 -8.31432,5.03147 -11.52396,3.51876 -5.79229,-2.72991 -6.64595,-15.07988 -6.64595,-18.57986 0,-3.49997 -1.04238,-17.55583 -1.04238,-17.55583 0,0 -6.26556,10.34911 -7.03714,7.44705 -0.88975,-3.34647 -2.26482,-12.08393 0.87456,-15.95489 2.3954,-2.95359 5.56097,-5.54848 9.62495,-6.12496 2.32818,-0.33024 3.02304,1.12265 3.49999,3.42525 1.07139,5.17248 1.73146,10.32028 2.90469,15.47063 1.22225,5.36568 3.38788,13.07833 4.28147,13.99993 0.89359,0.92158 13.02785,-13.03291 19.9199,-20.9811 4.44235,-5.12309 10.69178,-12.22439 17.51869,-11.91471 3.29642,0.14954 6.99997,3.49998 6.99997,6.99997 0,3.49997 -1.37443,10.26211 -4.78408,13.25559 -1.73932,1.52702 -5.7718,5.28797 -5.7718,5.28797 z"
       id="path955-7"
       inkscape:connector-curvature="0"
       sodipodi:nodetypes="sssscssssszsssss" />
    <path
       style="opacity:0.68900003;fill:#000000;fill-opacity:1;fill-rule:nonzero;stroke:none;stroke-width:0.33759406;stroke-linecap:butt;stroke-linejoin:bevel;stroke-miterlimit:4;stroke-dasharray:none;stroke-dashoffset:0;stroke-opacity:1;paint-order:normal"
       id="path1010"
       d="m 355.46034,38.624337 c 2.54666,-1.006373 4.94338,-2.364553 7.30703,-3.738018 2.47353,-1.475818 4.93207,-2.992295 7.58129,-4.134499 2.49336,-0.973992 6.34943,-2.133586 7.7087,1.034541 0.18626,0.434124 0.23105,0.916099 0.34658,1.374147 0.0172,2.892105 -1.5626,5.407872 -3.05188,7.778999 -1.54901,2.16955 -3.58079,3.92977 -5.48676,5.776151 -0.61658,0.614003 -1.21771,1.26235 -1.61975,2.043126 -0.18262,0.354661 -0.15407,0.953434 -0.0963,0.05025 -0.62453,-1.820521 0.0337,-0.783098 -3.31195,-0.678035 -0.16495,0.0052 0.33481,-0.02357 0.48763,-0.08587 1.06469,-0.434003 2.06927,-1.20517 3.03496,-1.814429 2.78681,-1.793641 5.63168,-3.499507 8.50316,-5.154054 1.85546,-1.12711 3.81926,-2.037767 5.7953,-2.926281 0,0 4.13198,3.050202 4.13198,3.050202 v 0 c -1.93926,0.739564 -3.86184,1.561998 -5.65254,2.617867 -2.86868,1.508321 -5.60772,3.26115 -8.35956,4.970219 -0.34085,0.231202 -3.8475,2.692222 -4.01386,2.729609 -1.37038,0.307918 -2.78819,0.626443 -4.18559,0.485095 -0.51345,-0.05193 -0.77307,-0.683838 -1.1596,-1.025755 -0.15479,-0.402443 -0.37805,-0.784875 -0.46434,-1.207329 -0.39578,-1.937356 1.06155,-3.740241 2.20927,-5.098891 1.75865,-1.712491 3.59701,-3.349485 5.28304,-5.125664 1.15263,-1.69653 2.26183,-3.464373 2.87181,-5.43853 0.0945,-0.08625 -0.48554,0.158006 -0.35985,0.133868 0.78556,-0.150868 1.56667,-0.324823 2.34617,-0.504572 0.30116,-0.06945 -0.60719,0.115724 -0.91078,0.173576 -2.6329,0.762293 -4.95274,2.241489 -7.29691,3.62722 -2.44197,1.499698 -4.95584,2.864632 -7.4877,4.204766 0,0 -4.14952,-3.117713 -4.14952,-3.117713 z"
       inkscape:connector-curvature="0" />
    <path
       style="opacity:0.68900003;fill:#000000;fill-opacity:1;fill-rule:nonzero;stroke:none;stroke-width:0.33759406;stroke-linecap:butt;stroke-linejoin:bevel;stroke-miterlimit:4;stroke-dasharray:none;stroke-dashoffset:0;stroke-opacity:1;paint-order:normal"
       id="path1012"
       d="m 391.33513,25.499411 c 2.2418,-0.787991 4.47012,-1.613357 6.70324,-2.425875 3.03971,-1.070277 7.2876,-2.379413 7.82082,2.051607 0.0591,0.491002 -0.0663,0.986864 -0.0994,1.480298 -0.79183,3.444179 -2.71495,6.467424 -4.61781,9.395138 -0.0324,0.04576 -1.72082,2.435513 -1.83137,2.603372 -0.19246,0.292163 -0.37713,0.590245 -0.54152,0.899077 -0.0461,0.08639 -0.0837,0.37841 -0.0865,0.280588 -0.0413,-1.486911 0.51428,1.189399 -0.17625,-1.443709 0.0618,-1.466741 0.19489,-0.197537 -2.33521,-0.160278 -0.35202,0.0052 0.66095,-0.244785 0.98108,-0.391277 0.3642,-0.166656 0.72132,-0.349676 1.06978,-0.547156 1.07782,-0.610831 1.3732,-0.866658 2.39429,-1.600993 2.22334,-1.915959 4.47343,-3.703427 7.1595,-4.916824 0,0 4.05422,3.140112 4.05422,3.140112 v 0 c -2.64809,0.738316 -4.74208,2.248883 -6.71447,4.144675 -2.91478,2.302384 -5.00599,3.868747 -8.93203,4.372919 -0.46648,0.0599 -0.90822,-0.24489 -1.36234,-0.367334 -0.35659,-0.435772 -0.82303,-0.801189 -1.06978,-1.307321 -1.09272,-2.241177 1.44301,-4.495972 2.52926,-6.122791 1.72447,-2.506452 3.41701,-5.106662 4.33326,-8.032004 0.054,-0.154553 0.0395,-0.355218 0.16222,-0.463665 0.0582,-0.05143 0.28808,0.273699 0.26349,0.326685 -0.0367,0.07883 -0.30674,0.153368 -0.22112,0.138237 0.74855,-0.132322 1.48331,-0.33355 2.22664,-0.492746 0.34161,-0.07316 -0.68101,0.156431 -1.0215,0.234647 -2.2189,0.66673 -4.331,1.623448 -6.53911,2.322335 0,0 -4.14951,-3.117717 -4.14951,-3.117717 z"
       inkscape:connector-curvature="0" />
    <path
       style="opacity:0.68900003;fill:#000000;fill-opacity:1;fill-rule:nonzero;stroke:none;stroke-width:0.33759406;stroke-linecap:butt;stroke-linejoin:bevel;stroke-miterlimit:4;stroke-dasharray:none;stroke-dashoffset:0;stroke-opacity:1;paint-order:normal"
       id="path1014"
       d="m 423.01722,19.259937 c 10.68793,-1.899337 1.82617,-0.322768 1.77538,-0.318345 -0.40287,0.03507 0.78607,-0.19039 1.1785,-0.288067 1.27248,-0.316731 2.52987,-0.685094 3.79753,-1.020435 2.03543,-0.300081 6.69353,-2.044847 8.76155,-0.664439 0.39153,0.261347 0.67892,0.652269 1.01837,0.978404 1.74315,3.026627 -0.25984,5.65523 -2.12831,8.030191 -1.80163,2.325106 -4.15991,4.174302 -5.92244,6.525403 -0.1911,0.355726 -0.0167,0.07412 -0.0148,-0.297261 0,-0.26068 -0.14099,-0.530058 -0.0649,-0.779364 0.0103,-0.03381 1.82475,-0.672093 1.83049,-0.674049 -0.58568,0.08917 -1.31943,0.666839 -1.75701,0.267484 -0.40488,-0.369516 1.05763,-0.289083 1.58992,-0.419974 0.62287,-0.153161 1.24521,-0.310995 1.87513,-0.432082 3.09019,-0.594037 5.97522,-1.001017 9.07561,-1.269046 0,0 -2.41916,4.417807 -2.41916,4.417807 v 0 c -5.03134,0.534524 -3.8532,0.474571 -10.64095,2.031069 -2.92487,0.149787 -5.53977,-0.736747 -4.41118,-4.312862 1.63876,-2.565291 4.1473,-4.406142 6.06299,-6.755953 0.93457,-1.103001 1.84221,-2.231085 2.63991,-3.431418 -0.21261,0.138794 -1.10381,0.148141 -1.27032,0.171605 -0.34981,0.04929 -1.39028,0.247399 -1.04705,0.163699 0.58986,-0.14386 3.5279,-0.65404 0.63071,-0.143892 -1.2982,0.28662 -2.52217,0.674692 -3.7956,1.040929 -1.69809,0.488367 -3.4669,0.693305 -5.17838,1.132414 -0.72138,0.185079 1.46593,-0.263833 2.19888,-0.395752 0,0 -3.785,-3.556066 -3.785,-3.556066 z"
       inkscape:connector-curvature="0" />
  </g>
  <g
     inkscape:label="Layer 1"
     inkscape:groupmode="layer"
     id="layer1"
     transform="translate(0,8.8583501)">
    <path
       style="fill:#ff7f2a;stroke:none;stroke-width:0.33759406;stroke-linecap:butt;stroke-linejoin:miter;stroke-miterlimit:4;stroke-dasharray:none;stroke-opacity:1"
       d="m 345.26782,158.21588 c 0,0 -5.1078,6.39001 -12.57893,7.48323 -7.2045,1.0542 -13.94838,-2.10296 -13.94838,-2.10296 0,0 4.09603,-0.10573 9.1553,-2.0054 5.05927,-1.89973 10.0424,-5.35681 10.0424,-5.35681 2.74287,0.9143 -21.82302,-0.16422 -29.79756,-6.36647 -6.60311,-5.13562 -12.5689,-9.03702 -12.15589,-16.82136 -1.97698,-2.06255 12.66741,5.13543 12.66741,5.13543 0,0 7.21181,1.36219 16.36413,-0.0114 6.56009,-0.98493 11.15208,-3.6394 17.08179,-3.3479 7.54699,0.37098 15.10395,8.90326 15.10395,8.90326 0,0 -14.83732,-26.24282 -12.09842,-35.79963 2.73891,-9.556842 3.44749,-8.32012 8.10339,-13.126162 4.65589,-4.806042 15.93958,-3.842341 15.93958,-3.842341 0,0 -13.09893,7.920429 -13.99933,18.033753 -0.90042,10.11332 2.05478,34.73438 2.05478,34.73438 0,0 -0.75198,-14.79985 2.77712,-23.43642 2.91969,-7.14528 7.24152,-11.84184 15.21789,-14.41923 3.88549,-1.25552 17.72772,-0.68473 17.72772,-0.68473 0,0 -15.3515,6.39252 -21.68459,15.6366 -6.93078,10.11648 -14.03812,22.90378 -14.03812,22.90378 0,0 -17.98182,38.59995 -16.81516,58.87067 1.16664,20.27071 19.32475,49.85609 19.32475,49.85609 l -43.52056,-2.01593 c 0,0 -10.51,-27.05794 -6.7332,-44.92793 8.41872,-22.90977 35.12807,-20.0178 35.80993,-47.29201 z"
       id="path815"
       inkscape:connector-curvature="0"
       sodipodi:nodetypes="cscscsccssczzczcsscscsccccc" />
    <flowRoot
       xml:space="preserve"
       id="flowRoot899"
       style="fill:black;fill-opacity:1;stroke:none;font-family:CountryBlueprint;font-style:normal;font-weight:normal;font-size:5.33333333px;line-height:1.25;letter-spacing:0px;word-spacing:0px;-inkscape-font-specification:CountryBlueprint;font-stretch:normal;font-variant:normal"><flowRegion
         id="flowRegion901"><rect
           id="rect903"
           width="278.30084"
           height="117.82079"
           x="1023.822"
           y="128.11519" /></flowRegion><flowPara
         id="flowPara905"></flowPara></flowRoot>  </g>
  <g
     inkscape:groupmode="layer"
     id="layer2"
     inkscape:label="Layer 2"
     style="display:inline">
    <path
       style="fill:#000000;stroke:#000000;stroke-width:0.33706325px;stroke-linecap:butt;stroke-linejoin:miter;stroke-opacity:1"
       d="m 295.93262,141.52224 c -0.56944,0.45653 0.18815,3.37409 0.62611,4.81789 0.43795,1.4438 2.41422,4.20979 2.41422,4.20979 l 3.26203,-1.55933 -0.13315,-4.96476 c 0,0 -5.59978,-2.9601 -6.16921,-2.50359 z"
       id="path818"
       inkscape:connector-curvature="0"
       sodipodi:nodetypes="zscccz" />
    <path
       style="fill:#aa4400;stroke:none;stroke-width:0.33706325px;stroke-linecap:butt;stroke-linejoin:miter;stroke-opacity:1"
       d="m 357.20204,152.5838 c 0,0 -8.70751,-21.49256 -8.14166,-32.71638 0.2251,-4.46466 1.74436,-9.12695 4.5311,-12.62237 1.9962,-2.50381 6.29954,-6.31003 6.29954,-6.31003 0,0 -6.33036,3.45906 -9.21236,6.31003 -2.64131,2.61289 -4.43364,6.34179 -4.85475,10.03317 -0.55178,4.83656 3.23647,14.24062 3.23647,14.24062 z"
       id="path820"
       inkscape:connector-curvature="0"
       sodipodi:nodetypes="csscsscc" />
    <path
       style="fill:#aa4400;stroke:none;stroke-width:0.33706325px;stroke-linecap:butt;stroke-linejoin:miter;stroke-opacity:1"
       d="m 357.20206,152.5838 c 0,0 4.55198,-18.83956 12.21776,-27.05725 3.04933,-3.26887 7.44776,-6.10484 11.60117,-7.758 2.76275,-1.09965 7.84608,-2.83998 7.84608,-2.83998 0,0 -7.16399,0.16857 -11.20501,1.43435 -3.54547,1.11055 -7.38279,2.84078 -10.08369,5.39202 -3.53879,3.34271 -5.75942,10.1458 -5.75942,10.1458 z"
       id="path820-0"
       inkscape:connector-curvature="0"
       sodipodi:nodetypes="csscsscc" />
    <path
       style="fill:#ffffff;stroke:none;stroke-width:0.33706325px;stroke-linecap:butt;stroke-linejoin:miter;stroke-opacity:1"
       d="m 347.57971,149.65862 c 0.33668,1.99688 0.3586,5.89575 -1.44805,7.84856 -1.31968,1.42647 -3.80736,2.16371 -5.63368,1.49967 -1.71371,-0.62311 -2.8235,-2.67953 -3.14795,-4.47389 -0.29081,-1.60826 1.38633,-4.44107 1.84206,-4.96752 0.45574,-0.52643 2.95691,-2.04851 3.81425,-2.34724 0.26496,-0.0923 3.31829,-0.48586 4.03871,0.90337 0.21546,0.4155 0.53466,1.53705 0.53466,1.53705 z"
       id="path839"
       inkscape:connector-curvature="0"
       sodipodi:nodetypes="sssszsss" />
    <path
       style="fill:#000000;stroke:none;stroke-width:0.09689273px;stroke-linecap:butt;stroke-linejoin:miter;stroke-opacity:1"
       d="m 341.38491,151.65084 c 0.0968,0.574 -0.17796,1.35134 -0.69726,1.9127 -0.37936,0.41004 -1.53161,0.65319 -2.05658,0.46231 -0.49262,-0.17912 -0.81165,-0.77028 -0.90491,-1.28608 -0.0837,-0.4623 0.39851,-1.27664 0.52952,-1.42797 0.13097,-0.15127 0.75551,-0.74737 1.00277,-0.83084 0,0 1.24725,-0.31803 1.5406,0.0229 0.28599,0.33243 0.52307,0.52094 0.58586,1.14691 z"
       id="path839-5"
       inkscape:connector-curvature="0"
       sodipodi:nodetypes="cssszssc" />
  </g>
  <g
     inkscape:groupmode="layer"
     id="layer4"
     inkscape:label="Layer 3"
     style="display:inline">
    <path
       style="fill:#ff7f2a;stroke:none;stroke-width:0.33706325px;stroke-linecap:butt;stroke-linejoin:miter;stroke-opacity:1"
       d="m 350.12574,244.19285 c 0,0 11.8194,-38.45347 40.81515,-71.41414 17.29026,-19.65457 36.62523,-29.94291 41.7612,-40.46964 5.13599,-10.52673 1.29159,-12.05478 1.29159,-12.05478 0,0 -10.77165,-4.46004 -14.63794,-7.31898 -3.8663,-2.85892 -5.556,-5.70995 -6.88844,-9.04107 -1.33246,-3.33113 -1.72212,-9.041094 -1.72212,-9.041094 0,0 5.48732,6.698274 9.14279,8.386324 3.65547,1.68805 11.09203,3.23793 11.09203,3.23793 0,0 -13.08185,-14.240519 -16.79061,-20.234809 -3.70875,-5.994291 -6.29538,-8.908363 -6.45791,-14.637953 -0.16255,-5.729589 6.45791,-17.221119 6.45791,-17.221119 l 7.31897,-3.444222 c 0,0 0.97697,7.1509 3.87477,12.915839 2.89781,5.764938 9.14458,15.508846 15.06848,20.234815 5.92389,4.725969 12.29541,7.58991 18.51269,8.180033 6.21728,0.590122 16.7906,-3.874755 16.7906,-3.874755 l 3.44423,-2.152638 c 0,0 -2.85545,-15.30867 -3.01372,-23.24851 -0.15827,-7.93984 2.06256,-22.375029 6.45793,-29.275904 4.39536,-6.900875 21.95694,-6.888448 21.95694,-6.888448 0,0 -6.91942,9.878588 -10.3327,20.234816 -3.41328,10.35623 -12.05477,41.761215 -12.05477,41.761215 l 9.90213,8.61056 c 0,0 4.23349,-28.511007 7.74953,-37.455936 3.51605,-8.94493 9.81381,-17.236374 20.66533,-19.373759 10.85152,-2.137385 21.09587,0.861056 21.09587,0.861056 0,0 -14.63798,11.624255 -22.38747,19.373758 -7.74949,7.749505 -24.10954,40.039101 -24.10954,40.039101 0,0 -3.98436,20.37673 -11.19373,27.98431 -7.20938,7.60757 -21.43854,4.13416 -29.70642,13.77689 -8.26789,9.64273 -10.13824,25.87058 -12.05481,41.76122 -1.91657,15.89064 -1.82469,34.41383 2.15267,52.5244 3.97735,18.1106 22.38742,54.24654 22.38742,54.24654 l -170.05852,2.58317 c 0,0 -4.05885,-1.34578 -14.20741,-20.66535 -10.14855,-19.31956 -6.88847,-35.73382 -6.88847,-35.73382 0,0 22.65005,6.34476 35.15404,7.55785 12.50401,1.21311 39.41231,-0.7229 39.41231,-0.7229 z"
       id="path873"
       inkscape:connector-curvature="0"
       sodipodi:nodetypes="cszczzczczzcczzzcczzczcczzczczzzzcczczc" />
    <path
       style="opacity:0.52899996;fill:#000000;fill-opacity:1;fill-rule:nonzero;stroke:none;stroke-width:0.33759406;stroke-linecap:butt;stroke-linejoin:bevel;stroke-miterlimit:4;stroke-dasharray:none;stroke-dashoffset:0;stroke-opacity:1;paint-order:normal"
       id="path884"
       d="m 462.8232,96.64169 c 0,0.56966 -0.0745,1.133081 -0.14015,1.697781 -0.0558,0.469541 -0.0748,0.942039 -0.0847,1.414408 -0.006,0.436081 -0.005,0.872221 -0.005,1.308341 0.009,0.45256 -0.0176,0.90611 0.0152,1.3577 0.0427,0.48894 0.13486,0.95594 0.30986,1.4135 0.20699,0.55528 0.55582,1.0389 0.85223,1.54827 0.25164,0.43255 0.4901,0.8799 0.77707,1.29059 0.24636,0.3668 0.4904,0.73558 0.7476,1.09496 0.32167,0.41484 0.59583,0.86334 0.96766,1.23651 0.29367,0.33902 0.65488,0.60539 1.04651,0.81967 0.36462,0.1697 0.72613,0.34251 1.10169,0.48892 0.40241,0.1324 0.79934,0.27444 1.19095,0.43565 0.35024,0.0887 0.66987,0.25077 1.02409,0.32646 0.35031,0.0792 0.68359,0.19812 1.04356,0.2453 0.4228,0.10222 0.83197,0.24718 1.25297,0.3554 0.42259,0.0972 0.85708,0.11164 1.28871,0.12166 0,0 -2.60846,1.88089 -2.60846,1.88089 v 0 c -0.44806,-0.0218 -0.89723,-0.0587 -1.33047,-0.18342 -0.41043,-0.11943 -0.81963,-0.24633 -1.24109,-0.32231 -0.35978,-0.0698 -0.70291,-0.19444 -1.06187,-0.26772 -0.35433,-0.10535 -0.69645,-0.24902 -1.04679,-0.36645 -0.38888,-0.16319 -0.79305,-0.28475 -1.18706,-0.43497 -0.38201,-0.16083 -0.75794,-0.33133 -1.12217,-0.53001 -0.4039,-0.2483 -0.78273,-0.53138 -1.08545,-0.90092 -0.36767,-0.39649 -0.66624,-0.84376 -0.99449,-1.27198 -0.26329,-0.35957 -0.51724,-0.72682 -0.76089,-1.09972 -0.27779,-0.42594 -0.52151,-0.87548 -0.76345,-1.32239 -0.30677,-0.52345 -0.66553,-1.01899 -0.89474,-1.58384 -0.1865,-0.48468 -0.30555,-0.96916 -0.34753,-1.48925 -0.06,-0.45858 -0.0337,-0.92035 -0.0391,-1.38209 0,-0.43829 -0.004,-0.87659 0.004,-1.31486 0.009,-0.4839 0.025,-0.96818 0.083,-1.449099 0.0667,-0.546684 0.18003,-1.093745 0.12281,-1.646391 0,0 2.8862,-1.47059 2.8862,-1.47059 z"
       inkscape:connector-curvature="0" />
    <path
       style="fill:#000000;stroke:#000000;stroke-width:0.33706325px;stroke-linecap:butt;stroke-linejoin:miter;stroke-opacity:1"
       d="m 425.36804,62.980426 c -7.85716,4.583356 -5.89287,1.309532 -5.89287,1.309532 0,0 -0.65477,7.857178 -2.40081,3.710332 -1.74602,-4.146843 -5.67463,-1.309528 -5.67463,-1.309528 0,0 -3.49207,3.710335 -3.49207,2.619059 0,-1.091275 3.52785,-12.170695 6.28173,-14.926302 2.75388,-2.755605 6.82415,-6.864193 7.31897,-3.444222 0.76785,5.307219 3.85968,12.041129 3.85968,12.041129 z"
       id="path886"
       inkscape:connector-curvature="0"
       sodipodi:nodetypes="ccccszsc" />
  </g>
  <g
     inkscape:groupmode="layer"
     id="layer5"
     inkscape:label="Layer 4"
     style="display:inline">
    <path
       style="fill:#aa4400;stroke:none;stroke-width:0.33706325px;stroke-linecap:butt;stroke-linejoin:miter;stroke-opacity:1"
       d="m 479.19913,86.242587 c 0.51439,-4.928743 -1.43376,-24.73032 0.73263,-33.738396 1.98024,-8.234046 5.93402,-15.030203 6.54765,-15.932609 3.71034,-5.456372 12.00405,-7.42067 12.00405,-7.42067 0,0 -9.04892,14.787039 -12.65879,22.043748 -3.34769,6.729657 -6.62554,35.047927 -6.62554,35.047927 z"
       id="path880"
       inkscape:connector-curvature="0"
       sodipodi:nodetypes="csscsc" />
    <path
       style="fill:#aa4400;stroke:none;stroke-width:0.33706325px;stroke-linecap:butt;stroke-linejoin:miter;stroke-opacity:1"
       d="m 492.11494,97.43632 c 0,0 8.98758,-30.527305 11.38837,-35.983676 1.96431,-4.583356 5.0377,-8.976904 11.13101,-13.531805 5.43041,-4.05938 17.24213,-4.583356 17.24213,-4.583356 0,0 -14.84661,10.440885 -21.82549,19.424688 -6.97888,8.983804 -17.93602,34.674149 -17.93602,34.674149 z"
       id="path882"
       inkscape:connector-curvature="0"
       sodipodi:nodetypes="ccsczc" />
  </g>
  <g
     inkscape:groupmode="layer"
     id="layer7"
     inkscape:label="biurko"
     style="display:inline">
    <flowRoot
       xml:space="preserve"
       id="flowRoot908"
       style="font-style:normal;font-variant:normal;font-weight:normal;font-stretch:normal;font-size:5.33333349px;line-height:1.25;font-family:CountryBlueprint;-inkscape-font-specification:CountryBlueprint;letter-spacing:0px;word-spacing:0px;fill:#aa4400;fill-opacity:1;stroke:none"
       transform="scale(0.26458333)"><flowRegion
         id="flowRegion910"
         style="fill:#aa4400"><rect
           id="rect912"
           width="306.74033"
           height="36.565071"
           x="796.30603"
           y="678.62268"
           style="fill:#aa4400" /></flowRegion><flowPara
         id="flowPara914"></flowPara></flowRoot>    <rect
       style="opacity:1;fill:#aa4400;fill-opacity:1;fill-rule:nonzero;stroke:none;stroke-width:0.33759406;stroke-linecap:butt;stroke-linejoin:bevel;stroke-miterlimit:4;stroke-dasharray:none;stroke-dashoffset:0;stroke-opacity:1;paint-order:normal"
       id="rect918"
       width="108.86855"
       height="15.748281"
       x="162.84912"
       y="218.60364" />
    <path
       style="fill:#916f6f;stroke:none;stroke-width:0.33706325px;stroke-linecap:butt;stroke-linejoin:miter;stroke-opacity:1"
       d="m 259.39293,217.23418 c -3.47144,1.39064 -48.61426,0 -48.61426,0 0,0 -21.22595,-47.24483 -21.91065,-49.98366 -0.68471,-2.73883 1.25233,-5.54385 1.25233,-5.54385 l 23.36406,52.0378 48.11283,0.30036 c 0,0 1.26713,1.79871 -2.20431,3.18935 z"
       id="path920"
       inkscape:connector-curvature="0"
       sodipodi:nodetypes="zcscccz" />
    <path
       style="opacity:0.68900003;fill:url(#linearGradient930);fill-opacity:1;stroke:none;stroke-width:0.33706325px;stroke-linecap:butt;stroke-linejoin:miter;stroke-opacity:1"
       d="m 189.85562,162.19028 24.32114,52.11673 14.43232,-0.80181 -30.20097,-65.47996 z"
       id="path922"
       inkscape:connector-curvature="0"
       sodipodi:nodetypes="ccccc" />
    <path
       style="fill:#ff6600;stroke:none;stroke-width:0.33706325px;stroke-linecap:butt;stroke-linejoin:miter;stroke-opacity:1"
       d="m 276.71679,205.75452 c 12.02695,5.21168 15.60762,8.40853 24.85567,9.35428 9.24803,0.94574 24.39971,-0.81984 28.86463,-4.54352 4.46492,-3.72367 3.89597,-4.23763 3.2072,-5.87982 -0.68877,-1.64218 -0.28139,-1.16484 -5.87983,-1.6036 -5.59844,-0.43876 -18.25929,8.29736 -27.52833,8.01795 -9.26904,-0.27938 -18.19894,-7.548 -25.39016,-9.087 -7.19124,-1.53899 -12.91124,-3.15432 -17.10499,-1.33634 -4.19376,1.81798 -7.61784,5.65943 -6.41438,8.01796 1.20344,2.35853 3.85047,0.4785 5.61257,-0.26726 1.7621,-0.74576 1.9405,-3.24461 4.27625,-4.00899 2.33576,-0.76437 8.81975,1.06907 8.81975,1.06907 0,0 1.86481,-0.0368 6.68162,0.26727 z"
       id="path932"
       inkscape:connector-curvature="0"
       sodipodi:nodetypes="czzzzzzzzzzcc" />
    <path
       style="fill:#ff6600;stroke:none;stroke-width:0.33706325px;stroke-linecap:butt;stroke-linejoin:miter;stroke-opacity:1"
       d="m 420.8305,208.5602 c -2.23426,2.41729 -15.78907,14.53676 -28.81892,21.70622 -3.10874,1.71052 -8.31432,5.03147 -11.52396,3.51876 -5.79229,-2.72993 -6.64594,-15.07989 -6.64594,-18.57988 0,-3.49996 -1.04239,-17.55582 -1.04239,-17.55582 0,0 -6.26556,10.34911 -7.03715,7.44705 -0.88974,-3.34648 -2.2648,-12.08393 0.87457,-15.95488 2.39541,-2.9536 5.56096,-5.5485 9.62494,-6.12497 2.32818,-0.33024 3.02305,1.12264 3.5,3.42526 1.07139,5.17248 1.73146,10.32027 2.90468,15.47063 1.22226,5.36568 3.38789,13.07832 4.28147,13.99992 0.8936,0.92158 13.02785,-13.0329 19.91991,-20.9811 4.44235,-5.12309 10.69178,-12.22439 17.51869,-11.91471 3.29643,0.14954 6.99998,3.49999 6.99998,6.99998 0,3.49996 -1.37446,10.2621 -4.78409,13.25557 -1.73932,1.52703 -5.77179,5.28797 -5.77179,5.28797 z"
       id="path955"
       inkscape:connector-curvature="0"
       sodipodi:nodetypes="sssscssssszsssss" />
  </g>
</svg>
