<?xml version="1.0" encoding="UTF-8" standalone="no"?>
<!-- Generator: Adobe Illustrator 23.0.1, SVG Export Plug-In . SVG Version: 6.00 Build 0)  -->

<svg
   xmlns:dc="http://purl.org/dc/elements/1.1/"
   xmlns:cc="http://creativecommons.org/ns#"
   xmlns:rdf="http://www.w3.org/1999/02/22-rdf-syntax-ns#"
   xmlns:svg="http://www.w3.org/2000/svg"
   xmlns="http://www.w3.org/2000/svg"
   xmlns:xlink="http://www.w3.org/1999/xlink"
   xmlns:sodipodi="http://sodipodi.sourceforge.net/DTD/sodipodi-0.dtd"
   xmlns:inkscape="http://www.inkscape.org/namespaces/inkscape"
   version="1.1"
   x="0px"
   y="0px"
   viewBox="0 0 1920 1080"
   style="enable-background:new 0 0 1920 1080;"
   xml:space="preserve"
   id="svg5943"
   sodipodi:docname="koot.svg"
   inkscape:version="0.92.3 (2405546, 2018-03-11)"><metadata
   id="metadata5949"><rdf:RDF><cc:Work
       rdf:about=""><dc:format>image/svg+xml</dc:format><dc:type
         rdf:resource="http://purl.org/dc/dcmitype/StillImage" /><dc:title></dc:title></cc:Work></rdf:RDF></metadata><defs
   id="defs5947"><inkscape:perspective
     sodipodi:type="inkscape:persp3d"
     inkscape:vp_x="6.0288578 : 862.21478 : 1"
     inkscape:vp_y="52.458436 : 998.62311 : 0"
     inkscape:vp_z="1849.1164 : 711.14522 : 1"
     inkscape:persp3d-origin="949.63744 : 500.02624 : 1"
     id="perspective6525" /><inkscape:perspective
     sodipodi:type="inkscape:persp3d"
     inkscape:vp_x="-366.23025 : 888.89391 : 1"
     inkscape:vp_y="0 : 1000 : 0"
     inkscape:vp_z="1200.5417 : 834.71784 : 1"
     inkscape:persp3d-origin="448.57787 : 576.70429 : 1"
     id="perspective6495" /></defs><sodipodi:namedview
   pagecolor="#ffffff"
   bordercolor="#666666"
   borderopacity="1"
   objecttolerance="10"
   gridtolerance="10"
   guidetolerance="10"
   inkscape:pageopacity="0"
   inkscape:pageshadow="2"
   inkscape:window-width="1366"
   inkscape:window-height="705"
   id="namedview5945"
   showgrid="false"
   inkscape:zoom="0.46145833"
   inkscape:cx="960"
   inkscape:cy="540"
   inkscape:window-x="-8"
   inkscape:window-y="-8"
   inkscape:window-maximized="1"
   inkscape:current-layer="layer10" />
<style
   type="text/css"
   id="style5881">
	.st0{fill:#928C93;}
	.st1{fill:#9F9AA0;}
	.st2{fill:#B1ABB2;}
	.st3{display:none;}
	.st4{fill:#8E8E8E;}
	.st5{fill:#FFF4D9;}
	.st6{fill:#2E2EC6;}
	.st7{fill:#3939FF;}
	.st8{fill:#919191;}
	.st9{fill:#FFFFFF;}
	.st10{fill:none;stroke:#727272;stroke-miterlimit:10;}
	.st11{fill:#FFED48;}
	.st12{fill:#727272;}
	.st13{fill:#DD7FDD;}
</style>


<g
   id="Warstwa_10"
   class="st3">
	
		<image
   style="display:inline;overflow:visible;opacity:0.47;"
   width="831"
   height="1080"
   xlink:href="file:///C:/Users/Asia/Downloads/cat-jumping-for-joy-isolated-vector-15923106.jpg"
   transform="matrix(0.7004 0 0 0.7004 1001 92)"
   id="image5895"
   sodipodi:absref="C:\Users\Asia\Downloads\cat-jumping-for-joy-isolated-vector-15923106.jpg">
	</image>
</g>



<g
   inkscape:groupmode="layer"
   id="layer7"
   inkscape:label="Layer 1"
   style="display:inline"><path
     style="fill:#784421;stroke:none;stroke-width:1px;stroke-linecap:butt;stroke-linejoin:miter;stroke-opacity:1"
     d="m 773.6343,440.72235 c 10.83522,-2.16705 303.386,-49.84199 303.386,-49.84199 l 758.465,86.68171 -247.0429,166.86231 z"
     id="path6527"
     inkscape:connector-curvature="0" /><g
     sodipodi:type="inkscape:box3d"
     id="g6511"
     style="opacity:0.253;fill:#dbe2e3;fill-opacity:1;fill-rule:nonzero;stroke:none;stroke-width:5.94141722;stroke-linecap:butt;stroke-linejoin:bevel;stroke-miterlimit:4;stroke-dasharray:none;stroke-dashoffset:0;stroke-opacity:1;paint-order:normal"
     inkscape:perspectiveID="#perspective6495"
     inkscape:corner0="-0.48945148 : 0.27966004 : 0 : 1"
     inkscape:corner7="-0.50273973 : 0.27879075 : 0.25 : 1"><path
       sodipodi:type="inkscape:box3dside"
       id="path6513"
       style="fill:#353564;fill-rule:evenodd;stroke:none;stroke-linejoin:round"
       inkscape:box3dsidetype="6"
       d="m 1229.7162,254.82105 v 1.70266 l -9.5899,-3.69521 v -1.14298 z"
       points="1229.7162,256.52371 1220.1263,252.8285 1220.1263,251.68552 1229.7162,254.82105 " /><path
       sodipodi:type="inkscape:box3dside"
       id="path6521"
       style="fill:#afafde;fill-rule:evenodd;stroke:none;stroke-linejoin:round"
       inkscape:box3dsidetype="13"
       d="m 1229.7162,256.52371 42.6484,1.74815 -24.0287,-4.34577 -28.2096,-1.09759 z"
       points="1272.3646,258.27186 1248.3359,253.92609 1220.1263,252.8285 1229.7162,256.52371 " /><path
       sodipodi:type="inkscape:box3dside"
       id="path6519"
       style="fill:#d7d7ff;fill-rule:evenodd;stroke:none;stroke-linejoin:round"
       inkscape:box3dsidetype="14"
       d="m 1272.3646,256.5237 v 1.74816 l -24.0287,-4.34577 v -1.16331 z"
       points="1272.3646,258.27186 1248.3359,253.92609 1248.3359,252.76278 1272.3646,256.5237 " /><path
       sodipodi:type="inkscape:box3dside"
       id="path6523"
       style="fill:#e9e9ff;fill-rule:evenodd;stroke:none;stroke-linejoin:round"
       inkscape:box3dsidetype="11"
       d="m 1220.1263,251.68552 28.2096,1.07726 v 1.16331 l -28.2096,-1.09759 z"
       points="1248.3359,252.76278 1248.3359,253.92609 1220.1263,252.8285 1220.1263,251.68552 " /><path
       sodipodi:type="inkscape:box3dside"
       id="path6515"
       style="fill:#4d4d9f;fill-rule:evenodd;stroke:none;stroke-linejoin:round"
       inkscape:box3dsidetype="5"
       d="m 1229.7162,254.82105 42.6484,1.70265 -24.0287,-3.76092 -28.2096,-1.07726 z"
       points="1272.3646,256.5237 1248.3359,252.76278 1220.1263,251.68552 1229.7162,254.82105 " /><path
       sodipodi:type="inkscape:box3dside"
       id="path6517"
       style="fill:#8686bf;fill-rule:evenodd;stroke:none;stroke-linejoin:round"
       inkscape:box3dsidetype="3"
       d="m 1229.7162,254.82105 42.6484,1.70265 v 1.74816 l -42.6484,-1.74815 z"
       points="1272.3646,256.5237 1272.3646,258.27186 1229.7162,256.52371 1229.7162,254.82105 " /></g><path
     style="fill:#d38d5f;stroke:none;stroke-width:1px;stroke-linecap:butt;stroke-linejoin:miter;stroke-opacity:1"
     d="m 775.80135,462.39278 810.47405,208.03611 2.167,-26.00451 -814.8081,-203.70203 v 0"
     id="path6529"
     inkscape:connector-curvature="0" /><path
     style="fill:#502d16;stroke:none;stroke-width:1px;stroke-linecap:butt;stroke-linejoin:miter;stroke-opacity:1"
     d="m 1588.4424,644.42438 -2.167,26.00451 249.2099,-166.8623 v -26.00452 z"
     id="path6533"
     inkscape:connector-curvature="0" /></g><g
   inkscape:groupmode="layer"
   id="layer9"
   inkscape:label="Layer 3"><g
     id="Warstwa_8"
     transform="translate(85.21792,-176.36945)"><path
       class="st0"
       d="m 1446.65,330.99 c -3.47,-5.2 -269.73,-19.08 -289.68,-19.95 -19.95,-0.87 -22.55,13.01 -22.55,13.01 0,0 -13.01,177.8 -15.61,206.42 -2.6,28.62 6.94,26.02 6.94,26.02 0,0 277.54,50.3 286.21,52.91 8.67,2.61 17.35,-13.88 17.35,-13.88 0,0 15.61,-173.46 17.35,-207.29 1.74,-33.83 3.46,-52.04 -0.01,-57.24 z m -33.39,251.95 -279.27,-51.17 11.28,-191.67 288.81,19.95 z"
       id="path5883"
       inkscape:connector-curvature="0"
       style="fill:#928c93" /><path
       class="st0"
       d="m 1125.75,556.49 c 0,0 -10.41,0 -30.36,5.2 C 1075.44,566.89 928,620.67 928,620.67 L 1234.16,710 c 0,0 196.88,-79.79 191.67,-87.6 -5.2,-7.81 -45.97,-32.96 -45.97,-32.96 z"
       id="path5885"
       inkscape:connector-curvature="0"
       style="fill:#928c93" /><path
       class="st0"
       d="m 928,620.67 v 0 c 6.76,8.45 16.03,14.55 26.48,17.4 L 1206,706.73 c 16.93,4.62 42.35,0.57 59.38,-3.67 43.58,-10.85 98.87,-39.9 153.51,-69.38 l 6.94,-13.01 L 1209,659.7 Z"
       id="path5887"
       inkscape:connector-curvature="0"
       style="fill:#928c93" /></g><g
     id="Warstwa_9"
     transform="translate(85.21792,-176.36945)"><polygon
       class="st1"
       points="1112.74,568.63 1378.13,625 1303.54,664.9 1067.66,603.03 1039.02,595.52 "
       id="polygon5890"
       style="fill:#9f9aa0" /><polygon
       class="st2"
       points="1194.7,645.39 1144.83,668.37 1074.57,645.82 1123.14,625 "
       id="polygon5892"
       style="fill:#b1abb2" /></g></g><g
   inkscape:groupmode="layer"
   id="layer8"
   inkscape:label="Layer 2"
   style="display:inline"><path
     style="fill:#000000;stroke:#000000;stroke-width:1px;stroke-linecap:butt;stroke-linejoin:miter;stroke-opacity:1"
     d="m 1226.9415,332.57579 c -2.1683,14.80804 2.4062,37.36349 0.8701,54.3533 -1.5361,16.98981 -4.07,33.24544 2.9928,42.33789 12.6322,10.63086 11.9264,-30.91739 12.1765,-33.89125 1.0549,-11.56243 2.7655,-28.90342 4.3341,-39.00678 1.5686,-10.10336 1.5319,-13.95477 4.3341,-21.67043 2.8022,-7.71566 -1.8852,-18.93054 13.0022,-23.83747 14.8874,-4.90693 48.6843,19.18034 60.6772,28.17156 11.9929,8.99122 10.9237,8.59391 15.1693,17.33634 4.2456,8.74243 3.5527,34.67269 3.5527,34.67269 0,0 -4.1492,50.97925 -1.3856,58.51016 2.7636,7.53091 7.8751,4.53737 13.0022,-2.81555 5.1271,-7.35292 2.537,-29.32415 4.3341,-42.69235 1.7971,-13.3682 5.1496,-30.68346 6.5012,-41.17382 1.3516,-10.49036 15.6058,-42.25075 10.0537,-60.16162 -5.5521,-17.91087 -40.8749,-22.18941 -66.3969,-30.85418 -25.522,-8.66477 -56.2718,1.19661 -69.3453,15.1693 -13.0735,13.97269 -11.7041,30.74417 -13.8724,45.55221 z"
     id="path6537"
     inkscape:connector-curvature="0"
     sodipodi:nodetypes="zzcczzzzzczzzzzzzz" /><path
     style="fill:#1a1a1a;stroke:none;stroke-width:1px;stroke-linecap:butt;stroke-linejoin:miter;stroke-opacity:1"
     d="m 1197.473,308.69401 c -1.0429,16.24255 -1.8678,54.8954 -2.1671,75.8465 -0.2992,20.9511 -5.7475,41.35266 0,49.84199 5.7476,8.48933 4.7295,7.86411 10.8353,4.33408 6.1057,-3.53003 2.876,-19.14307 4.334,-30.3386 1.4581,-11.19553 1.0858,-26.63657 4.3342,-36.83973 3.2484,-10.20316 5.8809,-15.79868 13.0022,-23.83747 7.1213,-8.03879 19.0558,-16.46016 30.3386,-21.67043 10.8157,-4.99458 23.7154,-13.344 34.6727,-8.66817 10.7129,4.57152 14.3468,19.0813 17.3363,30.3386 3.7081,13.96298 0,43.34086 0,43.34086 0,0 -7.2383,49.69551 0,59.29159 7.2383,9.59607 8.5795,9.31666 15.1693,1.38561 6.5898,-7.93105 2.5609,-15.07779 4.3341,-26.00451 1.7732,-10.92672 1.7271,-27.96353 4.3341,-39.00678 2.607,-11.04325 7.1228,-18.2835 13.0023,-26.00451 5.8795,-7.72101 21.6704,-19.50339 21.6704,-19.50339 l 10.8352,-28.17155 4.3341,-30.3386 -2.167,-32.50565 v -28.17156 c 0,0 -4.8001,-20.57548 -8.6682,-28.17155 -3.8681,-7.59607 -7.36,-14.06198 -13.0023,-17.33635 -5.6423,-3.27437 -12.9872,-6.00633 -17.3363,-2.16704 -4.3491,3.83929 -1.8299,11.62607 0,17.33634 1.8299,5.71027 8.7299,9.91455 10.8352,15.1693 2.1053,5.25475 2.167,4.33409 2.167,15.1693 0,10.83522 0,13.00226 -2.167,23.83748 -2.167,10.83521 4.3341,10.83521 -6.5011,19.50338 0,0 -15.0968,-21.96081 -23.7931,-27.00747 -8.6963,-5.04666 -18.6211,-5.86638 -30.4274,-7.75383 -11.8063,-1.88745 -36.7953,15.25792 -36.7953,15.25792 l -14.255,4.98259 c 0,0 0.7096,-2.98663 3.3754,-12.08792 2.6659,-9.10128 -2.8155,-31.07571 -2.8155,-31.07571 0,0 -6.7103,-30.27027 -12.3094,-24.66321 -7.1271,7.13727 -13.0023,15.1693 -13.0023,15.1693 0,0 -10.5524,5.50917 -17.3364,4.33409 -6.784,-1.17508 -12.8299,-6.69056 -19.5034,-13.00226 -6.6734,-6.3117 -7.738,8.62389 -10.8352,19.50339 -3.0971,10.8795 -7.5751,34.232 -2.167,45.5079 5.4081,11.2759 18.6163,11.50881 23.8375,17.33634 5.2211,5.82753 7.3061,8.77103 8.6681,15.1693 1.362,6.39827 -1.1242,5.42788 -2.167,21.67043 z"
     id="path6535"
     inkscape:connector-curvature="0"
     sodipodi:nodetypes="zzzzzzzsssczzzzzccccczzzzzssczzcczcsczzzzzzz" /></g><g
   inkscape:groupmode="layer"
   id="layer10"
   inkscape:label="Layer 4"><g
     id="Warstwa_6"
     transform="translate(322.43211,15.267933)"><path
       class="st4"
       d="m 395.47,550.52 c 4.9,-1.63 44.13,27.79 47.4,24.52 3.17,-3.17 55.53,-46.31 15.46,-99.6 -2.24,-2.98 -5.86,-4.57 -9.55,-4.12 -9.16,1.1 -27.41,1.68 -36.96,-9.06 -13.08,-14.71 0,-55.57 19.61,-62.11 19.61,-6.54 35.96,-8.17 47.4,6.54 11.44,14.71 47.4,71.92 47.4,94.8 0,22.53 14.25,71.98 -55.46,137.44 -2.16,2.03 -3.33,4.91 -3.22,7.87 0.8,21.34 4.73,107.83 16.18,117.85 13.08,11.44 24.52,17.98 98.07,29.42 73.55,11.44 158.55,19.61 160.18,39.23 1.63,19.61 -68.65,16.35 -68.65,16.35 0,0 -111.15,-9.81 -147.11,-31.06 -16.16,-9.55 -28.03,-17.12 -36.2,-22.56 -6.4,-4.26 -15.01,-0.29 -15.96,7.34 -1.76,14.21 -5.49,32.97 -13.22,39.73 -12.51,10.94 -26.51,23.38 -36.28,-35.61 -0.82,-4.93 -5.02,-8.58 -10.01,-8.67 l -173.71,-2.97 c -5.01,-0.09 -9.38,3.44 -10.31,8.37 -2.92,15.34 -9.96,46.24 -19.76,48.69 -13.08,3.27 -37.59,-27.79 -35.96,-70.28 1.42,-36.91 10.24,-96.02 16.82,-113.06 1.28,-3.31 0.74,-7.03 -1.39,-9.86 -8.81,-11.71 -27.12,-40.28 -10.52,-56.87 21.25,-21.25 60.48,-34.32 60.48,-45.77 -0.01,-11.45 155.27,-6.55 155.27,-6.55 z"
       id="path5898"
       inkscape:connector-curvature="0"
       style="fill:#8e8e8e" /><path
       class="st5"
       d="m 232.02,780.99 c 0,0 -6.54,-152.01 67.02,-150.38 73.56,1.63 122.59,-6.54 129.13,78.46 6.54,85 3.27,76.82 3.27,76.82 z"
       id="path5900"
       inkscape:connector-curvature="0"
       style="fill:#e6e6e6" /><path
       class="st6"
       d="m 361.15,662.53 c 0,0 11.44,-4.13 16.35,5.67 4.9,9.81 6.54,19.61 -8.17,27.79 -14.71,8.17 -13.08,19.61 -8.17,24.52 4.9,4.9 -22.88,0 -22.88,0 l 15.53,-23.7 c 0,0 9.81,-6.54 13.08,-9.81 3.27,-3.27 9.81,-16.35 1.63,-14.71 -8.18,1.64 -13.08,3.27 -13.08,3.27 z"
       id="path5902"
       inkscape:connector-curvature="0"
       style="fill:#2e2ec6" /><path
       class="st7"
       d="m 267.98,658.4 c 0,0 4.9,70.28 29.42,76.82 24.52,6.54 37.59,-3.27 42.5,-8.17 4.9,-4.9 19.61,-29.42 21.25,-68.65 0,0 -89.9,-1.63 -93.17,0 z"
       id="path5904"
       inkscape:connector-curvature="0"
       style="fill:#3939ff" /><path
       class="st4"
       d="m 253.27,628.98 c 0,0 -17.98,0 6.54,17.98 24.52,17.98 52.3,49.04 45.77,57.21 -6.54,8.17 -52.3,3.27 -83.36,-19.61 -31.06,-22.88 -52.3,-37.59 -52.3,-53.94 0,-18.64 1.63,-34.32 44.13,-55.57 42.5,-21.25 29.42,-35.96 29.42,-35.96 l 52.3,17.98 c 0,-0.01 13.07,76.81 -42.5,71.91 z"
       id="path5906"
       inkscape:connector-curvature="0"
       style="fill:#8e8e8e" /></g><g
     id="Warstwa_4"
     transform="translate(322.43211,15.267933)"><path
       class="st8"
       d="m 276.15,573.41 c 0,0 179.8,-29.42 194.51,-47.4 14.71,-17.98 33.51,-64.56 33.51,-84.18 0,-19.61 -16.7993,-53.40296 -6.9993,-56.67296 9.81,-3.27 78.42113,-65.30225 71.88113,-86.55225 -6.54,-21.25 -67.08774,22.27521 -99.77774,-18.58479 0,0 -84.42409,-26.15 -135.09409,-21.25 -50.67,4.9 -65.38,1.63 -150.38,42.5 -85,40.87 -94.8,47.39 -94.8,47.39 0,0 8.17,14.71 24.52,19.61 16.35,4.9 55.57,-1.63 57.21,11.44 1.63,13.08 -16.16415,64.61042 -16.35,71.92 -1.10296,43.37973 17.98,73.55 35.96,83.36 17.98,9.81 71.92,37.6 85.81,38.42 z"
       id="path5909"
       inkscape:connector-curvature="0"
       style="fill:#919191"
       sodipodi:nodetypes="csscscsscscssc" /></g><g
     id="Warstwa_5"
     transform="translate(322.43211,15.267933)"><path
       class="st9"
       d="m 178.08,414.86 c 0,0 19.61,12.56 31.06,14.36 11.44,1.79 29.42,-3.59 32.69,-8.97 3.27,-5.38 -63.75,-5.39 -63.75,-5.39 z"
       id="path5912"
       inkscape:connector-curvature="0"
       style="fill:#ffffff" /><path
       class="st9"
       d="m 299.04,414.86 c 0,0 21.25,11.44 45.77,13.08 24.52,1.63 73.55,-6.54 75.19,-14.71 1.64,-8.17 -98.08,-8.18 -120.96,1.63 z"
       id="path5914"
       inkscape:connector-curvature="0"
       style="fill:#ffffff" /><path
       class="st10"
       d="m 107.8,354.38 c 0,0 78.46,-13.08 80.09,-27.79"
       id="path5916"
       inkscape:connector-curvature="0"
       style="fill:none;stroke:#727272;stroke-miterlimit:10" /><path
       class="st10"
       d="m 451.86,333.95 c 0,0 19.61,4.9 29.42,3.27 9.81,-1.63 35.96,-8.17 44.13,-6.54 8.17,1.63 13.08,3.27 13.08,3.27"
       id="path5918"
       inkscape:connector-curvature="0"
       style="fill:none;stroke:#727272;stroke-miterlimit:10" /><path
       class="st10"
       d="m 301.49,430.39 c 0,0 9.81,16.35 14.71,14.71"
       id="path5920"
       inkscape:connector-curvature="0"
       style="fill:none;stroke:#727272;stroke-miterlimit:10" /><path
       class="st10"
       d="m 236.11,430.39 c 0,0 -8.17,9.81 -14.71,11.44"
       id="path5922"
       inkscape:connector-curvature="0"
       style="fill:none;stroke:#727272;stroke-miterlimit:10" /><ellipse
       class="st11"
       cx="207.5"
       cy="420.57999"
       rx="6.54"
       ry="7.3600001"
       id="ellipse5924"
       style="fill:#ffed48" /><path
       class="st12"
       d="m 178.08,414.86 c 0,0 62.11,3.27 63.75,4.9 1.63,1.64 -26.16,-53.94 -63.75,-4.9 z"
       id="path5926"
       inkscape:connector-curvature="0"
       style="fill:#727272" /><ellipse
       class="st11"
       cx="354.60999"
       cy="416.48999"
       rx="8.1700001"
       ry="11.44"
       id="ellipse5928"
       style="fill:#ffed48" /><path
       class="st12"
       d="m 299.04,414.86 c 0,0 104.61,-9.81 120.95,-1.63 16.34,8.18 -58.84,-67.02 -120.95,1.63 z"
       id="path5930"
       inkscape:connector-curvature="0"
       style="fill:#727272" /><g
       id="g5934"><path
         class="st12"
         d="m 266.68,510.49 c -14.39,-8.38 -27.24,-49.84 -27.78,-51.6 l 1.56,-0.48 c 0.13,0.43 13.19,42.61 27.04,50.67 z"
         id="path5932"
         inkscape:connector-curvature="0"
         style="fill:#727272" /></g><g
       id="g5938"><path
         class="st12"
         d="m 244.07,510.07 -1.54,-0.54 c 1.02,-2.92 6.33,-17.52 10.79,-17.98 l 0.17,1.63 c -2.53,0.25 -7.03,10.03 -9.42,16.89 z"
         id="path5936"
         inkscape:connector-curvature="0"
         style="fill:#727272" /></g><path
       class="st13"
       d="m 241.83,458.99 c 0,0 17.98,6.54 14.71,0 -3.27,-6.54 -21.25,-11.44 -27.79,0 0,0 -1.63,6.54 13.08,0 z"
       id="path5940"
       inkscape:connector-curvature="0"
       style="fill:#dd7fdd" /></g></g></svg>