<?xml version="1.0" encoding="UTF-8" standalone="no"?>
<!-- Created with Inkscape (http://www.inkscape.org/) -->

<svg
   xmlns:dc="http://purl.org/dc/elements/1.1/"
   xmlns:cc="http://creativecommons.org/ns#"
   xmlns:rdf="http://www.w3.org/1999/02/22-rdf-syntax-ns#"
   xmlns:svg="http://www.w3.org/2000/svg"
   xmlns="http://www.w3.org/2000/svg"
   xmlns:xlink="http://www.w3.org/1999/xlink"
   xmlns:sodipodi="http://sodipodi.sourceforge.net/DTD/sodipodi-0.dtd"
   xmlns:inkscape="http://www.inkscape.org/namespaces/inkscape"
   width="2300"
   height="1156"
   viewBox="0 0 608.54165 305.85834"
   version="1.1"
   id="svg16279"
   inkscape:version="0.92.3 (2405546, 2018-03-11)"
   sodipodi:docname="nosorożec.svg">
  <defs
     id="defs16273">
    <linearGradient
       inkscape:collect="always"
       id="linearGradient16921">
      <stop
         style="stop-color:#d5f6ff;stop-opacity:0.753"
         offset="0"
         id="stop16917" />
      <stop
         style="stop-color:#d5f6ff;stop-opacity:0;"
         offset="1"
         id="stop16919" />
    </linearGradient>
    <linearGradient
       inkscape:collect="always"
       id="linearGradient16838">
      <stop
         style="stop-color:#cccccc;stop-opacity:1;"
         offset="0"
         id="stop16834" />
      <stop
         style="stop-color:#999999;stop-opacity:1"
         offset="1"
         id="stop16836" />
    </linearGradient>
    <linearGradient
       inkscape:collect="always"
       xlink:href="#linearGradient16838"
       id="linearGradient16840"
       x1="255.50508"
       y1="215.26584"
       x2="280.23138"
       y2="165.95943"
       gradientUnits="userSpaceOnUse"
       gradientTransform="translate(-17.857882,-57.694696)" />
    <linearGradient
       inkscape:collect="always"
       xlink:href="#linearGradient16921"
       id="linearGradient16927"
       x1="430.64972"
       y1="275.29388"
       x2="412.10495"
       y2="164.71239"
       gradientUnits="userSpaceOnUse" />
  </defs>
  <sodipodi:namedview
     id="base"
     pagecolor="#ffffff"
     bordercolor="#666666"
     borderopacity="1.0"
     inkscape:pageopacity="0.0"
     inkscape:pageshadow="2"
     inkscape:zoom="0.38521739"
     inkscape:cx="1150"
     inkscape:cy="578"
     inkscape:document-units="mm"
     inkscape:current-layer="layer26"
     showgrid="false"
     units="px"
     inkscape:snap-global="false"
     inkscape:window-width="1366"
     inkscape:window-height="705"
     inkscape:window-x="-8"
     inkscape:window-y="-8"
     inkscape:window-maximized="1" />
  <metadata
     id="metadata16276">
    <rdf:RDF>
      <cc:Work
         rdf:about="">
        <dc:format>image/svg+xml</dc:format>
        <dc:type
           rdf:resource="http://purl.org/dc/dcmitype/StillImage" />
        <dc:title></dc:title>
      </cc:Work>
    </rdf:RDF>
  </metadata>
  <g
     inkscape:label="Layer 1"
     inkscape:groupmode="layer"
     id="layer1"
     transform="translate(0,8.8583501)">
    <path
       style="fill:url(#linearGradient16840);fill-opacity:1;stroke:none;stroke-width:0.26458332px;stroke-linecap:butt;stroke-linejoin:miter;stroke-opacity:1"
       d="m 186.04597,86.431961 -24.6382,34.736559 -14.42368,40.52366 -4.12105,52.88681 -10.30262,68.68417 210.17353,-0.68686 c 0,0 -12.54185,-63.51048 -16.48421,-75.55259 0,0 -22.32216,-28.83454 -26.78681,-35.02891 -4.46465,-6.19437 -13.04999,-8.92894 -13.04999,-8.92894 z"
       id="path16832"
       inkscape:connector-curvature="0"
       sodipodi:nodetypes="ccccccszcc" />
    <path
       style="fill:#cccccc;stroke:none;stroke-width:0.26458332px;stroke-linecap:butt;stroke-linejoin:miter;stroke-opacity:1"
       d="m 219.7893,38.747537 c 0,0 -4.76329,-12.014874 -8.92894,-16.4842 -4.16565,-4.469326 -9.93637,-8.109069 -15.11051,-9.615782 -5.17414,-1.506713 -14.42368,0 -14.42368,0 0,0 5.42367,5.84007 6.86842,9.615782 1.44475,3.775712 -1.17046,8.026984 1.37368,12.36315 2.54414,4.336166 8.6863,9.589677 14.42368,10.302627 5.73738,0.71295 15.79735,-6.181577 15.79735,-6.181577 z"
       id="path16824"
       inkscape:connector-curvature="0"
       sodipodi:nodetypes="czzczzzc" />
    <path
       style="fill:#cccccc;stroke:none;stroke-width:0.26458332px;stroke-linecap:butt;stroke-linejoin:miter;stroke-opacity:1"
       d="m 187.83457,96.835441 -1.7886,-10.40348 c 0,0 1.69194,-11.033917 6.95651,-14.926677 l 21.18996,-15.66841 5.59686,-17.089337 15.11052,-18.544725 c 0,0 9.88898,-8.567319 15.79736,-7.555257 5.90838,1.012062 13.04999,13.049991 13.04999,13.049991 l 13.73682,8.242099 3.43422,9.615779 c 0,0 10.1054,12.58479 11.6763,17.85788 1.5709,5.27309 0,11.67631 0,11.67631 l 9.61577,6.18158 c 0,0 -5.51836,4.06334 -7.55525,8.242097 -2.03689,4.17876 -4.28903,11.67346 -2.74736,16.484189 1.54167,4.81073 4.85311,7.98168 9.61578,9.61579 4.76267,1.63411 13.17918,0.27783 16.48421,-2.06053 3.30503,-2.33836 3.43421,-6.86841 3.43421,-6.86841 0,0 4.40435,4.27746 4.80787,7.55525 0.40352,3.27779 -3.43418,10.30263 -3.43418,10.30263 l 1.37366,11.6763 c 0,0 5.85005,0.573 6.18159,3.43421 0.33154,2.86121 -7.55525,6.86842 -7.55525,6.86842 l -6.1816,-0.68684 -7.55525,-2.06053 -4.80788,-1.37368 c 0,0 0.61712,8.56428 -2.06055,13.04999 -2.67767,4.48571 -8.76924,9.32902 -14.42365,10.98946 -5.65441,1.66044 -10.73196,0.74347 -17.17104,-1.37368 -6.43908,-2.11715 -21.33295,-14.48495 -21.33295,-14.48495 l -18.54472,-4.9796 -18.54473,-4.9796 c 0,0 -15.24821,-6.04656 -19.95926,-13.46682 -4.71104,-7.42027 -4.39936,-28.319449 -4.39936,-28.319449 z"
       id="path16826"
       inkscape:connector-curvature="0"
       sodipodi:nodetypes="ccsccczccczcczzzzczcczcccczzzccczc" />
    <path
       style="fill:#e3dbdb;stroke:none;stroke-width:0.26458332px;stroke-linecap:butt;stroke-linejoin:miter;stroke-opacity:1"
       d="m 321.44187,104.68433 c 0,0 -0.12918,4.53005 -3.43421,6.86841 -3.30503,2.33836 -11.72154,3.69464 -16.48421,2.06053 -4.76267,-1.63411 -8.07411,-4.80506 -9.61578,-9.61579 -1.54167,-4.810729 0.71047,-12.305429 2.74736,-16.484189 2.03689,-4.178757 7.55525,-8.242097 7.55525,-8.242097 0,0 13.82671,-1.40204 18.54473,-5.49474 4.71802,-4.0927 5.98328,-9.28155 7.55526,-16.48419 1.57198,-7.20264 0,-26.099986 0,-26.099986 0,0 10.89151,15.029616 13.73684,24.726296 2.84533,9.69668 6.3385,23.174 2.06053,32.281557 -4.27797,9.10756 -22.66577,16.484199 -22.66577,16.484199 z"
       id="path16828"
       inkscape:connector-curvature="0"
       sodipodi:nodetypes="czzzzczzczzc" />
    <path
       style="fill:#b3b3b3;stroke:none;stroke-width:0.26458332px;stroke-linecap:butt;stroke-linejoin:miter;stroke-opacity:1"
       d="m 277.48399,33.939645 c 0,0 8.32241,-4.373397 11.57418,-9.241722 3.25177,-4.868325 6.97055,-17.5451016 6.97055,-17.5451016 0,0 4.72243,5.5751586 4.41339,11.8052496 -0.30904,6.23009 -1.91751,13.321919 -1.91751,13.321919 -4.36734,4.328588 -21.04061,1.659655 -21.04061,1.659655 z"
       id="path16830"
       inkscape:connector-curvature="0"
       sodipodi:nodetypes="czczsc" />
    <path
       style="fill:#f9f9f9;stroke:none;stroke-width:0.26458332px;stroke-linecap:butt;stroke-linejoin:miter;stroke-opacity:1"
       d="m 289.21458,72.016719 c 0.24442,-1.316392 0.38184,-2.931079 1.4419,-3.748948 0.68919,-0.531729 1.83079,-0.704365 2.59543,-0.28838 1.13288,0.616318 1.27339,2.254531 1.73027,3.460565 0.52866,1.39551 1.12831,2.83363 1.15353,4.325707 0.0217,1.282307 0.22855,3.079138 -0.86513,3.748945 -1.01398,0.620992 -2.42588,-0.27931 -3.46057,-0.86514 -1.06469,-0.602814 -2.12722,-1.465062 -2.59543,-2.595425 -0.51501,-1.243333 -0.24568,-2.714165 0,-4.037324 z"
       id="path16885"
       inkscape:connector-curvature="0"
       sodipodi:nodetypes="sssssssss" />
  </g>
  <g
     inkscape:groupmode="layer"
     id="layer25"
     inkscape:label="Layer 3">
    <path
       style="fill:#b3b3b3;fill-opacity:1;stroke:none;stroke-width:0.26458332px;stroke-linecap:butt;stroke-linejoin:miter;stroke-opacity:1"
       d="m 268.50365,82.484031 c -2.23416,2.39753 -10.78532,4.20764 -14.7074,4.03733 -3.92208,-0.17032 -6.36422,-0.84066 -7.78628,-2.88381 -1.42206,-2.043146 -1.44191,-5.767606 0,-6.632747 1.44191,-0.865141 5.86908,-3.637361 8.9398,-4.037328 3.07072,-0.399967 7.20952,1.441903 8.65142,1.441903 1.4419,0 5.0374,2.014681 5.7676,3.748947 0.7302,1.734266 1.36902,1.928171 -0.86514,4.325705 z"
       id="path16854-2"
       inkscape:connector-curvature="0"
       sodipodi:nodetypes="zzzzzzzz" />
    <path
       style="fill:#f9f9f9;fill-opacity:1;stroke:none;stroke-width:0.26458332px;stroke-linecap:butt;stroke-linejoin:miter;stroke-opacity:1"
       d="m 270.46984,82.316969 c -2.23416,2.397532 -10.78532,4.207642 -14.7074,4.037332 -3.92208,-0.17032 -6.36422,-0.84066 -7.78628,-2.88381 -1.42206,-2.043148 -1.44191,-5.767608 0,-6.632749 1.44191,-0.865141 5.86908,-3.637361 8.9398,-4.037328 3.07072,-0.399967 7.20952,1.441903 8.65142,1.441903 1.4419,0 5.0374,2.014681 5.7676,3.748947 0.7302,1.734266 1.36902,1.928171 -0.86514,4.325705 z"
       id="path16854"
       inkscape:connector-curvature="0"
       sodipodi:nodetypes="zzzzzzzz" />
    <path
       style="opacity:1;fill:#f9f9f9;fill-opacity:1;fill-rule:nonzero;stroke:none;stroke-width:1.57199991;stroke-linecap:butt;stroke-linejoin:bevel;stroke-miterlimit:4;stroke-dasharray:none;stroke-dashoffset:0;stroke-opacity:1;paint-order:normal"
       id="path16856"
       d="m 261.46961,80.350244 c -0.0312,0.303532 0.15935,0.291155 0.40531,0.361365 0.6526,0.188905 1.2972,0.195107 1.93974,-0.0163 0.48845,-0.194035 0.88842,-0.478303 1.0786,-0.975434 0.10025,-0.310319 0.0175,-0.265536 -0.18193,-0.378638 -0.35869,-0.163644 -0.75924,-0.18339 -1.14683,-0.206316 -0.52647,-0.04808 -1.03542,0.02772 -1.52564,0.221575 -0.50909,0.26874 -1.06072,0.497684 -1.42949,0.955752 -0.24416,0.288724 -0.43154,0.592111 -0.32655,0.972918 0.32006,0.395163 0.76501,0.612388 1.21928,0.828233 0.83182,0.347924 1.71643,0.438973 2.60778,0.405622 0.45001,-0.0454 0.80267,-0.233966 1.01383,-0.636037 0.0601,-0.167376 0.12145,-0.345509 0.13124,-0.525047 0.009,-0.166905 -0.0448,-0.04559 -0.0315,0.05337 0.0736,0.15884 0.12536,0.155795 -0.0836,0.164127 0,0 0.0377,-1.699573 0.0377,-1.699573 v 0 c 0.54838,0.02439 1.00068,0.08676 1.40878,0.504204 0.0854,0.142327 0.19407,0.273052 0.25614,0.426979 0.26524,0.657749 -0.003,1.398953 -0.2898,1.994326 -0.57541,0.838821 -1.35387,1.336791 -2.3917,1.395741 -1.15723,0.0288 -2.30455,-0.10624 -3.37963,-0.56476 -0.97565,-0.462467 -1.87076,-1.02631 -2.18392,-2.127492 -0.0828,-0.88768 0.13864,-1.654051 0.74861,-2.32428 0.59097,-0.629407 1.31175,-1.060556 2.09939,-1.408629 0.71829,-0.260387 1.456,-0.406341 2.22369,-0.333335 0.73856,0.04702 1.4772,0.139703 2.10331,0.571452 0.79822,0.685425 1.05227,1.401792 0.66357,2.418128 -0.45098,0.918705 -1.16245,1.539793 -2.1368,1.880629 -1.01529,0.288224 -2.0302,0.309433 -3.04356,-0.02326 -1.09947,-0.473966 -1.57615,-1.030075 -1.46444,-2.271006 0,0 1.67839,0.335682 1.67839,0.335682 z"
       inkscape:connector-curvature="0" />
    <path
       style="opacity:1;fill:#000000;fill-opacity:1;fill-rule:nonzero;stroke:none;stroke-width:1.57199991;stroke-linecap:butt;stroke-linejoin:bevel;stroke-miterlimit:4;stroke-dasharray:none;stroke-dashoffset:0;stroke-opacity:1;paint-order:normal"
       id="path16862"
       d="m 268.44655,80.883624 c -0.20608,0.05665 -0.7349,0.240636 -0.68913,0.539996 0.21548,-0.253675 -0.14097,-0.384749 0.27755,-0.303647 0.21346,0.03578 0.49966,0.01582 0.65122,-0.162816 -0.006,-0.165672 -0.0555,-0.108876 -0.1129,-0.259072 -0.1346,-0.06374 -0.34647,-0.07323 -0.50602,-0.09509 -0.1003,-0.01627 -0.82682,-0.01646 -0.71125,0.155459 0.0619,0.06488 0.0634,-0.09479 0.22826,-0.03753 0.33422,0.182094 0.66476,0.322321 1.04042,0.390951 0.18346,-0.0245 0.21341,-0.04587 0.26947,-0.211889 0.0961,-0.154657 0.24469,-0.307199 0.28856,-0.491807 0.003,-0.01469 -0.004,-0.157983 -0.0487,-0.01405 0.009,0.04505 0.0645,0.109654 0.0265,0.135139 -0.0354,0.02363 -0.0501,-0.06919 -0.0805,-0.09894 -0.0552,-0.05406 -0.23106,-0.06346 -0.29395,-0.07657 -0.27062,-0.01056 -0.7134,-0.171572 -0.94893,0.03216 -0.24715,0.08783 -0.35544,0.286086 -0.43299,0.523304 0.0621,0.163398 0.23191,0.280762 0.38161,0.363418 0.23199,0.06479 0.64545,0.2842 0.86368,0.108432 0,-0.01217 -0.006,-0.02826 0.003,-0.03648 0.19296,-0.175511 0.25101,-0.206467 0.31316,-0.462092 -0.0886,-0.140557 0.0111,0.08862 -0.20082,0.04722 -0.28681,-0.06104 -0.72451,-0.373888 -0.98991,-0.134667 -0.0741,0.105957 -0.15904,0.197871 -0.23196,0.306906 0,0 -1.35758,-1.023126 -1.35758,-1.023126 v 0 c 0.26895,-0.340971 0.53155,-0.652399 0.92964,-0.853029 0.8301,-0.301403 1.3848,-0.216311 2.19131,0.08811 0.99507,0.368975 1.47322,0.989113 1.28378,2.083176 -0.26191,0.765574 -0.71813,1.311566 -1.47965,1.623864 -0.83365,0.188431 -1.56253,0.06652 -2.30815,-0.360995 -0.77758,-0.590232 -1.25476,-1.373108 -0.98211,-2.377183 0.27898,-0.662694 0.6926,-1.218991 1.38793,-1.483839 0.65622,-0.225531 1.31686,-0.253513 1.99681,-0.09807 0.73059,0.198123 1.28786,0.557562 1.58893,1.278414 0.12033,0.740645 -0.0212,1.278612 -0.48607,1.873597 -0.53401,0.723471 -1.10117,1.022238 -2.01006,0.930118 -0.6394,-0.129929 -1.22307,-0.369927 -1.77139,-0.727006 -0.81867,-0.715743 -1.08522,-1.531133 -0.40383,-2.47587 0.69691,-0.63785 1.27592,-0.751673 2.20271,-0.659834 0.80716,0.130913 1.52317,0.42364 1.86293,1.22944 0.28532,0.885695 0.16925,1.588862 -0.54314,2.220917 -0.61918,0.384196 -1.28588,0.572815 -2.01589,0.403212 -1.04423,-0.277024 -1.68306,-0.832178 -1.44684,-2.002732 0.39594,-0.815604 1.03409,-1.352515 1.92854,-1.565912 0,0 0.33568,1.678405 0.33568,1.678405 z"
       inkscape:connector-curvature="0" />
    <path
       style="fill:#e6e6e6;stroke:none;stroke-width:0.26458332px;stroke-linecap:butt;stroke-linejoin:miter;stroke-opacity:1"
       d="m 273.06526,71.935274 c 0.57677,-1.153522 0,-7.497892 0,-7.497892 l -3.74893,2.307042 -3.1722,-4.902467 -5.47923,1.441903 -7.78626,-2.018663 -11.53522,0.28838 c 0,0 -6.05599,2.307045 -6.92113,3.460565 -0.86514,1.153523 -4.32571,6.632752 -4.32571,6.632752 l 1.4419,0.86514 6.92114,-3.748945 c 0,0 7.78627,-1.730282 9.51655,-1.153522 1.73028,0.57676 6.63276,1.441902 7.78627,1.441902 1.15353,0 6.34436,0.86514 6.34436,0.86514 0,0 3.74896,0.576763 5.47923,1.153523 1.7303,0.576762 5.47923,0.865142 5.47923,0.865142 z"
       id="path16864"
       inkscape:connector-curvature="0" />
    <path
       style="fill:none;stroke:#000000;stroke-width:0.26458332px;stroke-linecap:butt;stroke-linejoin:miter;stroke-opacity:1"
       d="M 356.69561,132.20679 Z"
       id="path16866"
       inkscape:connector-curvature="0" />
    <path
       style="fill:#f2f2f2;stroke:none;stroke-width:0.26458332px;stroke-linecap:butt;stroke-linejoin:miter;stroke-opacity:1"
       d="m 286.90752,71.646894 3.74896,2.883802 3.46057,0.288383 1.4419,-3.172185 -1.4419,-5.19085 -2.8838,0.28838 -3.1722,-1.441899 -0.57676,4.614084 z"
       id="path16868"
       inkscape:connector-curvature="0" />
    <path
       style="opacity:1;fill:#000000;fill-opacity:1;fill-rule:nonzero;stroke:none;stroke-width:1.57200003;stroke-linecap:butt;stroke-linejoin:bevel;stroke-miterlimit:4;stroke-dasharray:none;stroke-dashoffset:0;stroke-opacity:1;paint-order:normal"
       id="path16862-9"
       d="m 293.47709,81.976813 c 0.15638,0.145621 0.59088,0.498839 0.82154,0.302603 -0.32907,-0.05005 -0.2533,0.322107 -0.40419,-0.07661 -0.0819,-0.200355 -0.24911,-0.433422 -0.48071,-0.468529 -0.13782,0.0921 -0.0634,0.104394 -0.1611,0.232184 0.0165,0.14801 0.11974,0.333261 0.185,0.480485 0.0388,0.0939 0.42044,0.712149 0.50599,0.52348 0.0228,-0.08678 -0.11395,-0.0042 -0.15183,-0.174521 -0.0207,-0.380037 -0.075,-0.734958 -0.21402,-1.090638 -0.11724,-0.143222 -0.15121,-0.157454 -0.32188,-0.117948 -0.18209,-5.22e-4 -0.38994,-0.04678 -0.57007,0.0129 -0.0141,0.0052 -0.13231,0.08641 0.0141,0.0486 0.0336,-0.03135 0.0594,-0.112509 0.10105,-0.09356 0.0387,0.01772 -0.0326,0.07902 -0.0418,0.120456 -0.0171,0.07545 0.0674,0.229953 0.0892,0.290373 0.1332,0.235799 0.2289,0.697112 0.52599,0.79046 0.20457,0.164159 0.43017,0.152104 0.67275,0.09345 0.10642,-0.138658 0.11703,-0.344838 0.10871,-0.515645 -0.0667,-0.231461 -0.0973,-0.698496 -0.3615,-0.791851 -0.0104,0.0064 -0.021,0.01997 -0.0326,0.01657 -0.25072,-0.07196 -0.30757,-0.105088 -0.55771,-0.02365 -0.0731,0.149221 0.0695,-0.05603 0.1457,0.146044 0.0988,0.276074 0.0626,0.812892 0.40558,0.912995 0.12911,0.0074 0.25192,0.03136 0.383,0.03611 0,0 -0.15719,1.69266 -0.15719,1.69266 v 0 c -0.43143,-0.0497 -0.83439,-0.10948 -1.21426,-0.34277 -0.6926,-0.547907 -0.91166,-1.064582 -1.07643,-1.910735 -0.2089,-1.040513 0.0675,-1.773181 1.09792,-2.186849 0.78899,-0.179409 1.49325,-0.07812 2.15909,0.405722 0.59835,0.610292 0.87758,1.294525 0.90519,2.153727 -0.0936,0.971723 -0.509,1.789065 -1.50657,2.084655 -0.71043,0.11084 -1.40108,0.0512 -1.99176,-0.40126 -0.5367,-0.43983 -0.90763,-0.987227 -1.13266,-1.647414 -0.2153,-0.725717 -0.20228,-1.388723 0.25286,-2.023641 0.56695,-0.491539 1.09903,-0.653785 1.84952,-0.570871 0.89614,0.07423 1.44835,0.399805 1.84752,1.221527 0.22546,0.61228 0.3279,1.235007 0.31218,1.889157 -0.17884,1.072632 -0.73254,1.727852 -1.89438,1.644482 -0.90888,-0.25782 -1.30996,-0.69065 -1.71878,-1.527451 -0.31236,-0.755708 -0.43987,-1.518566 0.0672,-2.231039 0.60367,-0.708133 1.26293,-0.978835 2.17502,-0.704809 0.65222,0.324959 1.16302,0.793113 1.40228,1.503344 0.31297,1.034023 0.17627,1.869255 -0.94379,2.283315 -0.90199,0.0917 -1.69412,-0.16919 -2.34565,-0.818102 0,0 1.25168,-1.167486 1.25168,-1.167486 z"
       inkscape:connector-curvature="0"
       inkscape:transform-center-x="-3.6850399"
       inkscape:transform-center-y="1.0379954" />
  </g>
  <g
     inkscape:groupmode="layer"
     id="layer24"
     inkscape:label="Layer 2">
    <path
       style="fill:#f9f9f9;stroke:none;stroke-width:0.26458332px;stroke-linecap:butt;stroke-linejoin:miter;stroke-opacity:1"
       d="m 171.02355,114.22952 -11.6763,15.11051 c 0,0 24.03945,30.22104 27.47366,30.90788 3.43421,0.68684 43.27102,16.4842 43.27102,16.4842 l 19.23157,9.61578 17.17105,22.66577 12.36313,-24.7263 17.17103,18.54473 7.55529,-15.11052 0.68683,-6.18157 -9.61578,-5.49473 -15.79737,3.4342 -40.52365,-14.42367 c 0,0 -33.43039,-12.74439 -43.95786,-22.66577 -10.52748,-9.92139 -23.35262,-28.16051 -23.35262,-28.16051 z"
       id="path16843"
       inkscape:connector-curvature="0"
       sodipodi:nodetypes="ccscccccccccczc" />
    <path
       style="fill:#d5f6ff;stroke:none;stroke-width:0.26458332px;stroke-linecap:butt;stroke-linejoin:miter;stroke-opacity:1"
       d="m 278.17085,184.28736 -8.24212,19.91841 14.42368,7.55526 7.55526,-1.37368 2.06052,-8.2421 z"
       id="path16845"
       inkscape:connector-curvature="0" />
    <path
       style="fill:#d5f6ff;stroke:none;stroke-width:0.26458332px;stroke-linecap:butt;stroke-linejoin:miter;stroke-opacity:1"
       d="m 285.7261,212.44787 -6.18156,61.12891 24.03946,17.17104 8.92892,-26.78684 -20.60525,-54.94732 z"
       id="path16847"
       inkscape:connector-curvature="0" />
    <path
       style="opacity:0.81099997;fill:#d5f6ff;stroke:none;stroke-width:0.26458332px;stroke-linecap:butt;stroke-linejoin:miter;stroke-opacity:1"
       d="m 238.45962,85.777531 c 0.28838,1.44191 2.41779,8.47838 5.7676,11.53522 3.34982,3.056839 8.08419,3.954769 12.68875,4.037329 4.60456,0.0826 9.12397,-0.91578 12.68873,-2.883809 3.56476,-1.96803 4.9539,-4.71774 6.34438,-8.07465 1.39048,-3.35691 1.73028,-10.381695 1.73028,-10.381695 z"
       id="path16849"
       inkscape:connector-curvature="0"
       sodipodi:nodetypes="czzzzcc" />
    <path
       style="opacity:0.81499999;fill:#d5f6ff;stroke:none;stroke-width:0.26458332px;stroke-linecap:butt;stroke-linejoin:miter;stroke-opacity:1"
       d="m 288.06104,82.028591 1.7303,6.92113 4.03733,2.59542 2.01866,-2.01866 6.92113,-1.44191 6.92113,-1.4419 1.73027,-2.8838 z"
       id="path16851"
       inkscape:connector-curvature="0"
       inkscape:transform-center-y="-9.2281746" />
    <path
       style="fill:#808080;stroke:none;stroke-width:0.26458332px;stroke-linecap:butt;stroke-linejoin:miter;stroke-opacity:1"
       d="m 279.86919,112.27888 c 0.0838,-0.4943 -6.61773,2.62265 -7.19308,5.38485 -0.57535,2.7622 -0.3698,5.19274 1.37369,5.49473 1.74349,0.30199 1.9476,-2.74291 2.74736,-4.12105 0.79976,-1.37814 2.06052,-4.12105 2.06052,-4.12105 0,0 0.92771,-2.14317 1.01151,-2.63748 z"
       id="path16902"
       inkscape:connector-curvature="0"
       sodipodi:nodetypes="zzzzcz" />
    <path
       style="fill:#999999;stroke:none;stroke-width:0.26458332px;stroke-linecap:butt;stroke-linejoin:miter;stroke-opacity:1"
       d="m 265.80769,114.91636 c 0,0 -3.18362,8.2155 -1.37367,11.67631 1.80995,3.46081 7.65241,5.29207 9.35626,4.62408 1.70384,-0.66798 4.12105,-2.74736 4.12105,-2.74736 0,0 -2.09373,3.88056 -4.82428,4.16984 -2.73055,0.28928 -5.64975,-0.54501 -7.6255,-2.07146 -1.97575,-1.52646 -2.60149,-3.76609 -3.18018,-6.47894 -0.5787,-2.71285 0.32325,-3.91823 0.74111,-5.02996 0.41785,-1.11174 1.75694,-2.48834 2.78521,-4.14251 z"
       id="path16904"
       inkscape:connector-curvature="0"
       sodipodi:nodetypes="czzczzzzc" />
  </g>
  <g
     inkscape:groupmode="layer"
     id="layer26"
     inkscape:label="Layer 4">
    <path
       style="fill:#c8beb7;stroke:none;stroke-width:0.26458332px;stroke-linecap:butt;stroke-linejoin:miter;stroke-opacity:1"
       d="m 415.40738,291.29551 9.87936,-20.32695 21.97893,-4.12105 23.35261,5.49474 6.86842,18.89744 z"
       id="path16931-4"
       inkscape:connector-curvature="0"
       sodipodi:nodetypes="cccccc" />
    <path
       style="fill:#e6e6e6;stroke:none;stroke-width:0.06825046px;stroke-linecap:butt;stroke-linejoin:miter;stroke-opacity:1"
       d="m 459.66526,291.13931 2.54842,-5.24343 5.66957,-1.06304 6.02391,1.41739 1.77174,4.87468 z"
       id="path16931-6-5"
       inkscape:connector-curvature="0"
       sodipodi:nodetypes="cccccc" />
    <path
       style="fill:#e6e6e6;stroke:none;stroke-width:0.06825046px;stroke-linecap:butt;stroke-linejoin:miter;stroke-opacity:1"
       d="m 442.62871,291.02771 2.54842,-5.24343 5.66957,-1.06304 6.02391,1.41739 1.77174,4.87468 z"
       id="path16931-6-6-8"
       inkscape:connector-curvature="0"
       sodipodi:nodetypes="cccccc" />
    <path
       style="fill:#e6e6e6;stroke:none;stroke-width:0.06825046px;stroke-linecap:butt;stroke-linejoin:miter;stroke-opacity:1"
       d="m 425.48636,291.02771 2.54842,-5.24343 5.66957,-1.06304 6.02391,1.41739 1.77174,4.87468 z"
       id="path16931-6-1-0"
       inkscape:connector-curvature="0"
       sodipodi:nodetypes="cccccc" />
    <rect
       style="opacity:1;fill:#784421;fill-opacity:1;fill-rule:nonzero;stroke:none;stroke-width:1.57199991;stroke-linecap:butt;stroke-linejoin:bevel;stroke-miterlimit:4;stroke-dasharray:none;stroke-dashoffset:0;stroke-opacity:1;paint-order:normal"
       id="rect16909"
       width="609.22858"
       height="17.171024"
       x="0.68684602"
       y="290.74783" />
    <path
       style="fill:#483e37;stroke:#000000;stroke-width:0.26458332px;stroke-linecap:butt;stroke-linejoin:miter;stroke-opacity:1"
       d="m 346.855,274.95045 35.02892,-100.27887 89.2894,9.61578 -27.47365,98.21835 -6.86842,3.43421 1.37369,4.12105 -177.89198,0.68685 -7.55525,-6.86842 h 90.66308 z"
       id="path16911"
       inkscape:connector-curvature="0"
       sodipodi:nodetypes="cccccccccc" />
    <ellipse
       style="opacity:1;fill:#999999;fill-opacity:1;fill-rule:nonzero;stroke:none;stroke-width:1.57199991;stroke-linecap:butt;stroke-linejoin:bevel;stroke-miterlimit:4;stroke-dasharray:none;stroke-dashoffset:0;stroke-opacity:1;paint-order:normal"
       id="path16913"
       cx="-169.4416"
       cy="449.96317"
       rx="3.7776289"
       ry="6.8684158"
       transform="rotate(-81.172312)" />
    <path
       style="fill:url(#linearGradient16927);stroke:none;stroke-width:0.26458332px;stroke-linecap:butt;stroke-linejoin:miter;stroke-opacity:1;fill-opacity:1"
       d="m 343.4208,283.19256 39.14997,-109.20782 88.60256,9.61578 -6.18157,-19.23156 -106.46045,-16.4842 -49.45258,133.93411 z"
       id="path16915"
       inkscape:connector-curvature="0" />
    <path
       style="fill:#c8beb7;stroke:none;stroke-width:0.26458332px;stroke-linecap:butt;stroke-linejoin:miter;stroke-opacity:1"
       d="m 256.47411,283.74219 9.87936,-20.32695 21.97893,-4.12105 23.35261,5.49474 6.86842,18.89744 z"
       id="path16931"
       inkscape:connector-curvature="0"
       sodipodi:nodetypes="cccccc" />
    <path
       style="fill:#e6e6e6;stroke:none;stroke-width:0.06825046px;stroke-linecap:butt;stroke-linejoin:miter;stroke-opacity:1"
       d="m 300.73199,283.58599 2.54842,-5.24343 5.66957,-1.06304 6.02391,1.41739 1.77174,4.87468 z"
       id="path16931-6"
       inkscape:connector-curvature="0"
       sodipodi:nodetypes="cccccc" />
    <path
       style="fill:#e6e6e6;stroke:none;stroke-width:0.06825046px;stroke-linecap:butt;stroke-linejoin:miter;stroke-opacity:1"
       d="m 283.69544,283.47439 2.54842,-5.24343 5.66957,-1.06304 6.02391,1.41739 1.77174,4.87468 z"
       id="path16931-6-6"
       inkscape:connector-curvature="0"
       sodipodi:nodetypes="cccccc" />
    <path
       style="fill:#e6e6e6;stroke:none;stroke-width:0.06825046px;stroke-linecap:butt;stroke-linejoin:miter;stroke-opacity:1"
       d="m 266.55309,283.47439 2.54842,-5.24343 5.66957,-1.06304 6.02391,1.41739 1.77174,4.87468 z"
       id="path16931-6-1"
       inkscape:connector-curvature="0"
       sodipodi:nodetypes="cccccc" />
  </g>
</svg>
