<?xml version="1.0" encoding="UTF-8" standalone="no"?>
<!-- Generator: Adobe Illustrator 23.0.1, SVG Export Plug-In . SVG Version: 6.00 Build 0)  -->

<svg
   xmlns:dc="http://purl.org/dc/elements/1.1/"
   xmlns:cc="http://creativecommons.org/ns#"
   xmlns:rdf="http://www.w3.org/1999/02/22-rdf-syntax-ns#"
   xmlns:svg="http://www.w3.org/2000/svg"
   xmlns="http://www.w3.org/2000/svg"
   xmlns:xlink="http://www.w3.org/1999/xlink"
   xmlns:sodipodi="http://sodipodi.sourceforge.net/DTD/sodipodi-0.dtd"
   xmlns:inkscape="http://www.inkscape.org/namespaces/inkscape"
   version="1.1"
   x="0px"
   y="0px"
   viewBox="0 0 1920 1080"
   style="enable-background:new 0 0 1920 1080;"
   xml:space="preserve"
   id="svg1384"
   sodipodi:docname="sowaa.svg"
   inkscape:version="0.92.3 (2405546, 2018-03-11)"><metadata
   id="metadata1390"><rdf:RDF><cc:Work
       rdf:about=""><dc:format>image/svg+xml</dc:format><dc:type
         rdf:resource="http://purl.org/dc/dcmitype/StillImage" /><dc:title></dc:title></cc:Work></rdf:RDF></metadata><defs
   id="defs1388"><linearGradient
     id="linearGradient5801"
     inkscape:collect="always"><stop
       id="stop5797"
       offset="0"
       style="stop-color:#aaeeff;stop-opacity:1" /><stop
       id="stop5799"
       offset="1"
       style="stop-color:#ffffff;stop-opacity:0" /></linearGradient><linearGradient
     inkscape:collect="always"
     id="linearGradient5781"><stop
       style="stop-color:#000000;stop-opacity:1;"
       offset="0"
       id="stop5777" /><stop
       style="stop-color:#000000;stop-opacity:0;"
       offset="1"
       id="stop5779" /></linearGradient><linearGradient
     inkscape:collect="always"
     id="linearGradient5665"><stop
       style="stop-color:#ff0000;stop-opacity:0.49662162"
       offset="0"
       id="stop5661" /><stop
       style="stop-color:#ff0000;stop-opacity:0;"
       offset="1"
       id="stop5663" /></linearGradient><linearGradient
     inkscape:collect="always"
     xlink:href="#linearGradient5665"
     id="linearGradient5667"
     x1="389.84561"
     y1="359.12595"
     x2="426.11304"
     y2="319.32309"
     gradientUnits="userSpaceOnUse"
     gradientTransform="translate(178.64932,127.0711)" /><linearGradient
     inkscape:collect="always"
     xlink:href="#linearGradient5665"
     id="linearGradient5667-4"
     x1="389.84561"
     y1="359.12595"
     x2="426.11304"
     y2="319.32309"
     gradientUnits="userSpaceOnUse"
     gradientTransform="translate(-1484.4877,-252.40063)" /><linearGradient
     inkscape:collect="always"
     xlink:href="#linearGradient5781"
     id="linearGradient5785"
     x1="-370.95233"
     y1="711.90845"
     x2="420.0477"
     y2="711.90845"
     gradientUnits="userSpaceOnUse" /><linearGradient
     inkscape:collect="always"
     xlink:href="#linearGradient5801"
     id="linearGradient5805"
     gradientUnits="userSpaceOnUse"
     x1="41.424961"
     y1="538.98676"
     x2="39.011749"
     y2="458.27618"
     gradientTransform="translate(416.07223,86.681716)" /></defs><sodipodi:namedview
   pagecolor="#ffffff"
   bordercolor="#666666"
   borderopacity="1"
   objecttolerance="10"
   gridtolerance="10"
   guidetolerance="10"
   inkscape:pageopacity="0"
   inkscape:pageshadow="2"
   inkscape:window-width="1366"
   inkscape:window-height="705"
   id="namedview1386"
   showgrid="false"
   inkscape:zoom="0.46145833"
   inkscape:cx="960"
   inkscape:cy="540"
   inkscape:window-x="-8"
   inkscape:window-y="-8"
   inkscape:window-maximized="1"
   inkscape:current-layer="Warstwa_2" />
<style
   type="text/css"
   id="style1301">
	.st0{fill:#8C634C;}
	.st1{fill:#B57F64;}
	.st2{fill:#4E79B7;}
	.st3{fill:#75543E;}
	.st4{fill:#FFFFFF;}
	.st5{font-family:'MyriadPro-Regular';}
	.st6{font-size:18px;}
	.st7{fill:#6EB0FF;}
	.st8{fill:#E20101;}
	.st9{fill:#FFD506;}
	.st10{fill:#3F3F3F;}
	.st11{fill:#303030;}
</style>
<g
   id="Warstwa_2">
	<path
   class="st0"
   d="M738,90c0,0,31-20,70-24s118.01,0.97,137,9c26,11,43,32,43,32L858,232L738,90z"
   id="path1303" />
	<path
   class="st0"
   d="M563,98c0,0,26,40,21,62s-35,88-21,141s24,68,36,74c0,0-25,58-27,76s1,113,5,118s28,84,28,84l504,6   c0,0,58-137,37-204s-29-85-29-85s39-21,38-79s-21-113-21-119s-3-35,6-52s-1-41-1-41l-276,32L563,98z"
   id="path1305" />
	<path
   class="st1"
   d="M714,137c0,0-50,17-71,40s-51,65-39,107s32,70,51,78s50,10,81,0s91-30,91-30l57-2c0,0,68,32,113,36s69,2,88-22   s49-82,24-122s-47-67-77-78s-91-20-91-20l-78.5,100.5l-147-90"
   id="path1307" />
	<circle
   class="st2"
   cx="997"
   cy="263"
   r="90"
   id="circle1309"
   style="fill:#dbe2e3" />
	<circle
   class="st2"
   cx="711.28876"
   cy="261.39438"
   r="90"
   id="circle1311"
   style="fill:#dbe2e3" />
	<path
   class="st3"
   d="M564.5,109.5c0,0-38-15-23-40s27-34,54-31s144,32,175,59s54,51,67,78s17,40,25,27s29.95-75.03,92-108   c62.6-33.26,168.41-68.81,189-57c19.4,11.12,46,37,27,56s-34,23-62,28s-120,9-166,61s-79,107-103,80s-66-94-111-110   S599.5,126.5,564.5,109.5z"
   id="path1313" /><circle
   class="st2"
   cx="-1032.2831"
   cy="42.598511"
   r="90"
   id="circle1311-9-6"
   style="opacity:0.30100002;fill:url(#linearGradient5667-4);fill-opacity:1"
   transform="matrix(-0.97653467,-0.21536023,-0.21536023,0.97653467,0,0)" />
	<text
   transform="matrix(1 0 0 1 1013.5186 214.8555)"
   class="st4 st5 st6"
   id="text1315">1</text>

	<text
   transform="matrix(1 0 0 1 1023.5186 295.8555)"
   class="st4 st5 st6"
   id="text1317">1</text>

	<text
   transform="matrix(1 0 0 1 958.5186 261.8555)"
   class="st4 st5 st6"
   id="text1319">1</text>

	<text
   transform="matrix(1 0 0 1 734.5186 232.8555)"
   class="st4 st5 st6"
   id="text1321">1</text>

	<text
   transform="matrix(1 0 0 1 721.5186 298.8555)"
   class="st4 st5 st6"
   id="text1323">1</text>

	<text
   transform="matrix(1 0 0 1 681.5186 232.8555)"
   class="st4 st5 st6"
   id="text1325">1</text>

	<circle
   class="st7"
   cx="731.37677"
   cy="279.42609"
   r="28.679562"
   id="circle1327"
   style="fill:#00222b;stroke-width:0.67481321" />
	<circle
   class="st7"
   cx="991.20776"
   cy="280.32047"
   r="29.785196"
   id="circle1329"
   style="fill:#00222b;stroke-width:0.70082814" />
	<path
   class="st4"
   d="M693.96,317.74l22.16,0.37c0,0,1.48-6.65-2.22-8.12c-3.69-1.48-5.91-2.22-5.91-4.06c0-1.85,0-1.85,0-1.85   s3.69,0.74,3.32-1.11c-0.37-1.85,0.37-5.54-0.37-7.02s-2.22-5.17-3.69-5.54c-1.48-0.37-4.43-0.37-5.91,1.11s-2.4,5.72-2.77,10.89   c0,0,0,1.11,2.22,1.85c2.22,0.74,0.74,2.95-0.37,3.32c-1.11,0.37-5.17,2.22-5.91,4.06C693.78,313.5,693.96,317.74,693.96,317.74z"
   id="path1331" />
	<path
   class="st4"
   d="M712.8,306.67c0,0,1.48-1.48,1.85-2.58c0.37-1.11,0-2.95,0-4.06s-1.85-0.74-1.85-2.22   c0-1.48,1.11-1.48,1.11-2.22c0-0.74-1.48-4.06-1.11-4.43c0.37-0.37,3.32-3.32,4.43-2.95c1.11,0.37,3.69-1.48,4.06,0.74   c0.37,2.22,1.11,15.14,1.48,15.88c0.37,0.74,7.02,4.06,7.39,4.8c0.37,0.74,1.85,0.37,1.85,8.49h-13.66c0,0,0.55-6.46-1.29-8.31   C715.2,307.96,712.8,306.67,712.8,306.67z"
   id="path1333" />
	<path
   class="st8"
   d="M728.76,304.17h-4.4c-4,0-7.23-3.24-7.23-7.23v-9.2c0-4,3.24-7.23,7.23-7.23h4.4c4,0,7.23,3.24,7.23,7.23v9.2   C735.99,300.93,732.75,304.17,728.76,304.17z"
   id="path1335" />
	<g
   id="g1343">
		<polygon
   class="st4"
   points="1003.22,309.26 1003,317.13 1010.49,312.29 1007.98,307.01   "
   id="polygon1337" />
		<path
   class="st4"
   d="M1013.64,284.53c-8.53,0-15.44,6.22-15.44,13.9c0,7.67,6.91,13.9,15.44,13.9c8.53,0,15.44-6.22,15.44-13.9    C1029.08,290.75,1022.17,284.53,1013.64,284.53z M1014.84,302.89l-4.46-4.46l-6.86,3.77l7.55-7.89l3.77,4.46l6.18-3.43    L1014.84,302.89z"
   id="path1339" />
		<path
   class="st8"
   d="M1031.57,301.34h-6.01c-3.55,0-6.43-2.88-6.43-6.43V284.1c0-3.55,2.88-6.43,6.43-6.43h6.01    c3.55,0,6.43,2.88,6.43,6.43v10.82C1038,298.47,1035.12,301.34,1031.57,301.34z"
   id="path1341" />
	</g>
	<path
   class="st4"
   d="M931.96,280.7l20.59,0.34c0,0,1.37-6.18-2.06-7.55s-5.49-2.06-5.49-3.77c0-1.72,0-1.72,0-1.72   s3.43,0.69,3.09-1.03c-0.34-1.72,0.34-5.15-0.34-6.52c-0.69-1.37-2.06-4.8-3.43-5.15s-4.12-0.34-5.49,1.03   c-1.37,1.37-2.23,5.32-2.57,10.12c0,0,0,1.03,2.06,1.72c2.06,0.69,0.69,2.74-0.34,3.09c-1.03,0.34-4.8,2.06-5.49,3.77   C931.79,276.75,931.96,280.7,931.96,280.7z"
   id="path1345" />
	<path
   class="st4"
   d="M949.46,270.4c0,0,1.37-1.37,1.72-2.4c0.34-1.03,0-2.74,0-3.77c0-1.03-1.72-0.69-1.72-2.06   c0-1.37,1.03-1.37,1.03-2.06s-1.37-3.77-1.03-4.12c0.34-0.34,3.09-3.09,4.12-2.74c1.03,0.34,3.43-1.37,3.77,0.69   c0.34,2.06,1.03,14.07,1.37,14.75s6.52,3.77,6.86,4.46c0.34,0.69,1.72,0.34,1.72,7.89h-12.69c0,0,0.51-6-1.2-7.72   S949.46,270.4,949.46,270.4z"
   id="path1347" />
	<path
   class="st8"
   d="M966.76,268.17h-4.4c-4,0-7.23-3.24-7.23-7.23v-9.2c0-4,3.24-7.23,7.23-7.23h4.4c4,0,7.23,3.24,7.23,7.23v9.2   C973.99,264.93,970.75,268.17,966.76,268.17z"
   id="path1349" />
	<g
   id="g1357">
		<polygon
   class="st4"
   points="993.22,229.26 993,237.13 1000.49,232.29 997.98,227.01   "
   id="polygon1351" />
		<path
   class="st4"
   d="M1003.64,204.53c-8.53,0-15.44,6.22-15.44,13.9c0,7.67,6.91,13.9,15.44,13.9c8.53,0,15.44-6.22,15.44-13.9    C1019.08,210.75,1012.17,204.53,1003.64,204.53z M1004.84,222.89l-4.46-4.46l-6.86,3.77l7.55-7.89l3.77,4.46l6.18-3.43    L1004.84,222.89z"
   id="path1353" />
		<path
   class="st8"
   d="M1021.57,221.34h-6.01c-3.55,0-6.43-2.88-6.43-6.43V204.1c0-3.55,2.88-6.43,6.43-6.43h6.01    c3.55,0,6.43,2.88,6.43,6.43v10.82C1028,218.47,1025.12,221.34,1021.57,221.34z"
   id="path1355" />
	</g>
<circle
   class="st2"
   cx="630.85406"
   cy="422.07022"
   r="90"
   id="circle1311-9"
   style="opacity:0.32400004;fill:url(#linearGradient5667);fill-opacity:1"
   transform="rotate(-13.516322)" /></g><g
   inkscape:groupmode="layer"
   id="layer6"
   inkscape:label="Layer 1"
   style="display:inline"><path
     style="opacity:0.32400004;fill:#ff0000;fill-opacity:1;fill-rule:nonzero;stroke:none;stroke-width:5.94141722;stroke-linecap:butt;stroke-linejoin:bevel;stroke-miterlimit:4;stroke-dasharray:none;stroke-dashoffset:0;stroke-opacity:1;paint-order:normal"
     id="path5700"
     d="m 659.30181,330.5855 c -0.64974,-2.14906 -1.3376,-4.28242 -1.99881,-6.42894 -0.57297,-1.94589 -0.69911,-3.97174 -0.7742,-5.98644 -0.20994,-1.92344 0.57947,-3.64754 1.17141,-5.42043 0.50636,-1.65768 1.17898,-3.228 1.50525,-4.93902 0.0387,-0.29086 0.0774,-0.58171 0.11605,-0.87257 0,0 0.97529,0.13035 0.97529,0.13035 v 0 c -0.0415,0.30921 -0.083,0.61843 -0.12454,0.92764 -0.33817,1.75375 -1.01218,3.36842 -1.53905,5.06526 -0.55497,1.66062 -1.31728,3.27036 -1.12249,5.07228 0.0715,1.9292 0.18645,3.86995 0.7306,5.73456 0.65034,2.12118 1.32681,4.23075 1.9784,6.35014 0,0 -0.91791,0.36717 -0.91791,0.36717 z"
     inkscape:connector-curvature="0" /><path
     style="opacity:0.32400004;fill:#ff0000;fill-opacity:1;fill-rule:nonzero;stroke:none;stroke-width:5.94141722;stroke-linecap:butt;stroke-linejoin:bevel;stroke-miterlimit:4;stroke-dasharray:none;stroke-dashoffset:0;stroke-opacity:1;paint-order:normal"
     id="path5702"
     d="m 658.18164,316.24537 c 1.91051,-1.14841 3.72366,-2.46018 5.68648,-3.51779 1.45601,-0.73774 2.6019,-1.72343 3.58974,-3.00863 0.44378,-0.8124 0.20064,-0.40188 0.73502,-1.22826 0,0 0.82803,0.53746 0.82803,0.53746 v 0 c -0.52806,0.81021 -0.26478,0.37975 -0.78299,1.29552 -1.07954,1.38229 -2.32758,2.47456 -3.90578,3.26873 -1.92279,1.02702 -3.69232,2.31697 -5.55684,3.44452 0,0 -0.59366,-0.79155 -0.59366,-0.79155 z"
     inkscape:connector-curvature="0" /><path
     style="opacity:0.32400004;fill:#ff0000;fill-opacity:1;fill-rule:nonzero;stroke:none;stroke-width:5.94141722;stroke-linecap:butt;stroke-linejoin:bevel;stroke-miterlimit:4;stroke-dasharray:none;stroke-dashoffset:0;stroke-opacity:1;paint-order:normal"
     id="path5704"
     d="m 680.50528,343.40191 c -0.0753,-2.21535 -0.0154,-4.38686 0.59568,-6.52599 0.7568,-2.04254 2.23437,-3.67195 3.32706,-5.52216 0.47173,-1.053 0.26642,-0.51609 0.61667,-1.61043 0,0 0.93593,0.3033 0.93593,0.3033 v 0 c -0.40311,1.23043 -0.16762,0.62732 -0.70714,1.80906 -1.05903,1.77537 -2.46286,3.34858 -3.2295,5.29314 -0.60079,2.04644 -0.6248,4.13206 -0.54926,6.25308 0,0 -0.98944,0 -0.98944,0 z"
     inkscape:connector-curvature="0" /><path
     style="opacity:0.32400004;fill:#ff0000;fill-opacity:1;fill-rule:nonzero;stroke:none;stroke-width:5.94141722;stroke-linecap:butt;stroke-linejoin:bevel;stroke-miterlimit:4;stroke-dasharray:none;stroke-dashoffset:0;stroke-opacity:1;paint-order:normal"
     id="path5706"
     d="m 682.59809,334.50528 c 2.13317,0.1422 4.21125,-0.0872 6.30766,-0.44235 1.54859,-0.38097 2.85362,-0.96372 4.07231,-1.96736 0.14444,-0.15956 0.28888,-0.31912 0.43331,-0.47868 0,0 0.72704,0.6681 0.72704,0.6681 v 0 c -0.17764,0.19094 -0.35528,0.38187 -0.53292,0.5728 -1.35356,1.1137 -2.8223,1.7613 -4.53599,2.17358 -2.15,0.36282 -4.28488,0.58872 -6.47141,0.46335 0,0 0,-0.98944 0,-0.98944 z"
     inkscape:connector-curvature="0" /><path
     style="opacity:0.32400004;fill:#ff0000;fill-opacity:1;fill-rule:nonzero;stroke:none;stroke-width:5.94141722;stroke-linecap:butt;stroke-linejoin:bevel;stroke-miterlimit:4;stroke-dasharray:none;stroke-dashoffset:0;stroke-opacity:1;paint-order:normal"
     id="path5708"
     d="m 753.50528,335.40191 c 0.1422,-2.13317 -0.0872,-4.21125 -0.44235,-6.30766 -0.36205,-1.0794 -0.73699,-2.14811 -1.0289,-3.24916 0,0 0.95223,-0.25162 0.95223,-0.25162 v 0 c 0.29762,1.1303 0.70011,2.22099 1.04511,3.33703 0.36282,2.15 0.58872,4.28488 0.46335,6.47141 0,0 -0.98944,0 -0.98944,0 z"
     inkscape:connector-curvature="0" /><path
     style="opacity:0.32400004;fill:#ff0000;fill-opacity:1;fill-rule:nonzero;stroke:none;stroke-width:5.94141722;stroke-linecap:butt;stroke-linejoin:bevel;stroke-miterlimit:4;stroke-dasharray:none;stroke-dashoffset:0;stroke-opacity:1;paint-order:normal"
     id="path5710"
     d="m 765.78028,329.21833 c 0.77213,-2.19619 1.64489,-4.36535 2.87576,-6.34679 0.80364,-1.37194 2.08319,-2.44084 2.32859,-4.07408 0.0778,-1.29567 -0.86618,-2.24481 -1.46103,-3.30644 0,0 0.86247,-0.48061 0.86247,-0.48061 v 0 c 0.70668,1.27609 1.76102,2.38327 1.57131,3.95946 -0.34523,1.75644 -1.50583,2.97146 -2.46915,4.42258 -1.2139,1.923 -2.04439,4.0514 -2.79004,6.19305 0,0 -0.91791,-0.36717 -0.91791,-0.36717 z"
     inkscape:connector-curvature="0" /><path
     style="opacity:0.32400004;fill:#ff0000;fill-opacity:1;fill-rule:nonzero;stroke:none;stroke-width:5.94141722;stroke-linecap:butt;stroke-linejoin:bevel;stroke-miterlimit:4;stroke-dasharray:none;stroke-dashoffset:0;stroke-opacity:1;paint-order:normal"
     id="path5712"
     d="m 768.21833,322.21972 c -1.05243,-0.36201 -2.10558,-0.68655 -3.14461,-1.08735 0,0 0.3538,-0.91341 0.3538,-0.91341 v 0 c 1.04147,0.4052 2.10096,0.72178 3.15798,1.08285 0,0 -0.36717,0.91791 -0.36717,0.91791 z"
     inkscape:connector-curvature="0" /><path
     style="opacity:0.32400004;fill:#ff0000;fill-opacity:1;fill-rule:nonzero;stroke:none;stroke-width:5.94141722;stroke-linecap:butt;stroke-linejoin:bevel;stroke-miterlimit:4;stroke-dasharray:none;stroke-dashoffset:0;stroke-opacity:1;paint-order:normal"
     id="path5714"
     d="m 723.50528,348.40191 c 0.007,-1.89332 0.006,-3.78666 0.005,-5.67999 0,0 0.9789,0 0.9789,0 v 0 c -2.7e-4,1.89333 -0.002,3.78667 0.005,5.67999 0,0 -0.98944,0 -0.98944,0 z"
     inkscape:connector-curvature="0" /><path
     style="opacity:0.32400004;fill:#ff0000;fill-opacity:1;fill-rule:nonzero;stroke:none;stroke-width:5.94141722;stroke-linecap:butt;stroke-linejoin:bevel;stroke-miterlimit:4;stroke-dasharray:none;stroke-dashoffset:0;stroke-opacity:1;paint-order:normal"
     id="path5716"
     d="m 1031.5053,341.40191 c -0.029,-2.27611 -0.478,-4.52803 -0.717,-6.79114 -0.068,-1.60457 -0.5577,-3.14496 -0.8606,-4.71383 0,0 0.9664,-0.18624 0.9664,-0.18624 v 0 c 0.307,1.59625 0.8017,3.16451 0.8682,4.79758 0.241,2.2979 0.6934,4.58247 0.7324,6.89363 0,0 -0.9894,0 -0.9894,0 z"
     inkscape:connector-curvature="0" /><path
     style="opacity:0.32400004;fill:#ff0000;fill-opacity:1;fill-rule:nonzero;stroke:none;stroke-width:5.94141722;stroke-linecap:butt;stroke-linejoin:bevel;stroke-miterlimit:4;stroke-dasharray:none;stroke-dashoffset:0;stroke-opacity:1;paint-order:normal"
     id="path5722"
     d="m 1049.7803,332.21833 c 0.689,-2.10174 1.4382,-4.18511 2.2616,-6.23911 0.7729,-1.9328 1.3245,-3.95117 2.1133,-5.87576 0.8011,-1.60588 1.111,-3.22419 0.9606,-4.99564 -0.072,-0.24714 -0.1434,-0.49429 -0.215,-0.74143 0,0 0.9489,-0.26294 0.9489,-0.26294 v 0 c 0.082,0.30774 0.1642,0.61548 0.2462,0.92323 0.1559,1.92767 -0.1644,3.70544 -1.0321,5.45239 -0.7994,1.91587 -1.3296,3.94033 -2.1118,5.86548 -0.8253,2.05312 -1.5765,4.13542 -2.2538,6.24095 0,0 -0.9179,-0.36717 -0.9179,-0.36717 z"
     inkscape:connector-curvature="0" /><path
     style="opacity:0.32400004;fill:#ff0000;fill-opacity:1;fill-rule:nonzero;stroke:none;stroke-width:5.94141722;stroke-linecap:butt;stroke-linejoin:bevel;stroke-miterlimit:4;stroke-dasharray:none;stroke-dashoffset:0;stroke-opacity:1;paint-order:normal"
     id="path5724"
     d="m 1052.2454,320.81836 c -0.951,-1.77237 -2.0164,-3.41593 -3.434,-4.8522 -0.9698,-1.03031 -2.0113,-1.99709 -3.0535,-2.95538 0,0 0.6675,-0.72427 0.6675,-0.72427 v 0 c 1.0524,0.97191 2.109,1.94666 3.0886,2.99102 1.4353,1.47352 2.5582,3.13524 3.5229,4.94717 0,0 -0.7915,0.59366 -0.7915,0.59366 z"
     inkscape:connector-curvature="0" /><path
     style="opacity:0.32400004;fill:#ff0000;fill-opacity:1;fill-rule:nonzero;stroke:none;stroke-width:5.94141722;stroke-linecap:butt;stroke-linejoin:bevel;stroke-miterlimit:4;stroke-dasharray:none;stroke-dashoffset:0;stroke-opacity:1;paint-order:normal"
     id="path5736"
     d="m 1069.5053,311.40191 c 0.029,-2.17449 0.084,-4.32836 -0.2745,-6.47744 -0.4054,-1.56666 -1.0919,-2.52633 -2.6138,-3.06292 0,0 0.3387,-0.92599 0.3387,-0.92599 v 0 c 1.8455,0.6947 2.7781,1.90731 3.244,3.82848 0.3619,2.20317 0.3139,4.40967 0.295,6.63787 0,0 -0.9894,0 -0.9894,0 z"
     inkscape:connector-curvature="0" /><path
     style="opacity:0.32400004;fill:#ff0000;fill-opacity:1;fill-rule:nonzero;stroke:none;stroke-width:5.94141722;stroke-linecap:butt;stroke-linejoin:bevel;stroke-miterlimit:4;stroke-dasharray:none;stroke-dashoffset:0;stroke-opacity:1;paint-order:normal"
     id="path5738"
     d="m 1012.1478,352.06461 c -2.2113,-1.25234 -4.5279,-2.3145 -6.7176,-3.60299 -1.6387,-0.83412 -2.9027,-2.18967 -4.2447,-3.41743 -1.22944,-0.92725 -2.31601,-1.91524 -2.99554,-3.30999 -0.35226,-1.10834 -0.20446,-0.54109 -0.43995,-1.70264 0,0 0.96591,-0.19331 0.96591,-0.19331 v 0 c 0.20027,1.01567 0.0764,0.52583 0.36481,1.47126 0.59812,1.28973 1.66847,2.14322 2.77197,3.00782 1.2881,1.18676 2.5019,2.49341 4.0754,3.3018 2.1864,1.29787 4.5106,2.35329 6.7279,3.59855 0,0 -0.5082,0.84693 -0.5082,0.84693 z"
     inkscape:connector-curvature="0" /><path
     style="opacity:0.32400004;fill:#ff0000;fill-opacity:1;fill-rule:nonzero;stroke:none;stroke-width:5.94141722;stroke-linecap:butt;stroke-linejoin:bevel;stroke-miterlimit:4;stroke-dasharray:none;stroke-dashoffset:0;stroke-opacity:1;paint-order:normal"
     id="path5744"
     d="m 1005.3018,348.5855 c -0.8296,-2.1789 -1.3416,-4.42265 -1.2831,-6.75486 0.2079,-2.00686 1.7855,-2.70051 3.4183,-3.44155 1.1222,-0.53215 1.501,-1.49847 1.7931,-2.62965 0,0 0.9527,0.25217 0.9527,0.25217 v 0 c -0.3822,1.41487 -0.9392,2.61833 -2.3392,3.27629 -1.2773,0.57579 -2.6269,1.00842 -2.8429,2.56998 -0.067,2.19775 0.4287,4.31072 1.219,6.36045 0,0 -0.9179,0.36717 -0.9179,0.36717 z"
     inkscape:connector-curvature="0" /><path
     style="opacity:0.32400004;fill:#ff0000;fill-opacity:1;fill-rule:nonzero;stroke:none;stroke-width:5.94141722;stroke-linecap:butt;stroke-linejoin:bevel;stroke-miterlimit:4;stroke-dasharray:none;stroke-dashoffset:0;stroke-opacity:1;paint-order:normal"
     id="path5746"
     d="m 966.50108,345.39537 c 1.79968,-0.49028 3.27344,-1.18294 4.24077,-2.81713 0.53563,-1.76176 0.86928,-3.2709 2.4869,-4.32703 0.27368,-0.10659 0.54736,-0.21318 0.82104,-0.31977 0,0 0.34807,0.9227 0.34807,0.9227 v 0 c -0.21489,0.0777 -0.42978,0.15543 -0.64466,0.23314 -1.50757,0.89295 -1.57154,2.48201 -2.17076,4.00283 -1.15157,1.84909 -2.80461,2.72626 -4.88735,3.27528 0,0 -0.19401,-0.97002 -0.19401,-0.97002 z"
     inkscape:connector-curvature="0" /><path
     style="opacity:0.32400004;fill:#ff0000;fill-opacity:1;fill-rule:nonzero;stroke:none;stroke-width:5.94141722;stroke-linecap:butt;stroke-linejoin:bevel;stroke-miterlimit:4;stroke-dasharray:none;stroke-dashoffset:0;stroke-opacity:1;paint-order:normal"
     id="path5748"
     d="m 632.50528,306.40191 c -0.0626,-2.28801 0.0558,-4.572 1.06103,-6.65593 0.85854,-1.87586 2.40703,-2.63839 4.32925,-3.03636 1.6212,-0.2409 3.26466,-0.23187 4.89946,-0.23763 0,0 0.004,0.98243 0.004,0.98243 v 0 c -1.57021,0.006 -3.14853,-0.004 -4.70652,0.21988 -1.6329,0.32619 -2.91807,0.90315 -3.6449,2.50747 -0.98079,1.92295 -0.99679,4.1 -0.95239,6.22014 0,0 -0.98944,0 -0.98944,0 z"
     inkscape:connector-curvature="0" /></g>

<g
   id="Warstwa_5"
   transform="translate(5.5281753,7.7394454)">
	<path
   class="st4"
   d="m 653.96,252.7 20.59,0.34 c 0,0 1.37,-6.18 -2.06,-7.55 -3.43,-1.37 -5.49,-2.06 -5.49,-3.77 0,-1.72 0,-1.72 0,-1.72 0,0 3.43,0.69 3.09,-1.03 -0.34,-1.72 0.34,-5.15 -0.34,-6.52 -0.69,-1.37 -2.06,-4.8 -3.43,-5.15 -1.37,-0.35 -4.12,-0.34 -5.49,1.03 -1.37,1.37 -2.23,5.32 -2.57,10.12 0,0 0,1.03 2.06,1.72 2.06,0.69 0.69,2.74 -0.34,3.09 -1.03,0.34 -4.8,2.06 -5.49,3.77 -0.7,1.72 -0.53,5.67 -0.53,5.67 z"
   id="path1369"
   inkscape:connector-curvature="0"
   style="fill:#ffffff" />
	<path
   class="st4"
   d="m 671.46,242.4 c 0,0 1.37,-1.37 1.72,-2.4 0.34,-1.03 0,-2.74 0,-3.77 0,-1.03 -1.72,-0.69 -1.72,-2.06 0,-1.37 1.03,-1.37 1.03,-2.06 0,-0.69 -1.37,-3.77 -1.03,-4.12 0.34,-0.34 3.09,-3.09 4.12,-2.74 1.03,0.34 3.43,-1.37 3.77,0.69 0.34,2.06 1.03,14.07 1.37,14.75 0.34,0.68 6.52,3.77 6.86,4.46 0.34,0.69 1.72,0.34 1.72,7.89 h -12.69 c 0,0 0.51,-6 -1.2,-7.72 -1.71,-1.72 -3.95,-2.92 -3.95,-2.92 z"
   id="path1371"
   inkscape:connector-curvature="0"
   style="fill:#ffffff" />
	<path
   class="st8"
   d="m 688.76,240.17 h -4.4 c -4,0 -7.23,-3.24 -7.23,-7.23 v -9.2 c 0,-4 3.24,-7.23 7.23,-7.23 h 4.4 c 4,0 7.23,3.24 7.23,7.23 v 9.2 c 0,3.99 -3.24,7.23 -7.23,7.23 z"
   id="path1373"
   inkscape:connector-curvature="0"
   style="fill:#e20101" />
	<g
   id="g1381">
		<polygon
   class="st4"
   points="714,256.13 721.49,251.29 718.98,246.01 714.22,248.26 "
   id="polygon1375"
   style="fill:#ffffff" />
		<path
   class="st4"
   d="m 724.64,223.53 c -8.53,0 -15.44,6.22 -15.44,13.9 0,7.67 6.91,13.9 15.44,13.9 8.53,0 15.44,-6.22 15.44,-13.9 0,-7.68 -6.91,-13.9 -15.44,-13.9 z m 1.2,18.36 -4.46,-4.46 -6.86,3.77 7.55,-7.89 3.77,4.46 6.18,-3.43 z"
   id="path1377"
   inkscape:connector-curvature="0"
   style="fill:#ffffff" />
		<path
   class="st8"
   d="m 742.57,240.34 h -6.01 c -3.55,0 -6.43,-2.88 -6.43,-6.43 V 223.1 c 0,-3.55 2.88,-6.43 6.43,-6.43 h 6.01 c 3.55,0 6.43,2.88 6.43,6.43 v 10.82 c 0,3.55 -2.88,6.42 -6.43,6.42 z"
   id="path1379"
   inkscape:connector-curvature="0"
   style="fill:#e20101" />
	</g>
</g>
<g
   transform="translate(416.88825,-205.42089)"
   id="Warstwa_3-9"
   style="opacity:0.253;fill:url(#linearGradient5785);fill-opacity:1"><path
     inkscape:connector-curvature="0"
     class="st10"
     d="M 780.62993,1053.0902 H 100.6099 c -30.649995,0 -55.489995,-24.84 -55.489995,-55.49004 v -398.02 c 0,-30.65 24.84025,-55.61475 55.489995,-55.49 l 689.84755,2.80786 c 30.64974,0.12475 45.66248,22.03214 45.66248,52.68214 v 398.02 c 0,30.65004 -24.84,55.49004 -55.49,55.49004 z"
     id="path1362-3"
     style="fill:url(#linearGradient5805);fill-opacity:1;stroke:none"
     sodipodi:nodetypes="sssssssss" /></g><g
   id="Warstwa_3">
	<path
   class="st9"
   d="M812,363c0,0,37,46,44,48s48-45,48-45s-20-68-44-62S820,327,812,363z"
   id="path1360" />
	<path
   class="st10"
   d="M1199.51,939H519.49c-30.65,0-55.49-24.84-55.49-55.49V485.49c0-30.65,24.84-55.49,55.49-55.49h680.02   c30.65,0,55.49,24.84,55.49,55.49v398.02C1255,914.16,1230.16,939,1199.51,939z"
   id="path1362" />
	<path
   class="st11"
   d="M872.73,1000h-31.47c-20.03,0-36.27-16.24-36.27-36.27V600.27c0-20.03,16.24-36.27,36.27-36.27h31.47   c20.03,0,36.27,16.24,36.27,36.27v363.47C909,983.76,892.76,1000,872.73,1000z"
   id="path1364" />
	<path
   class="st11"
   d="M940.5,1019h-178c-14.08,0-25.5-11.42-25.5-25.5l0,0c0-14.08,11.42-25.5,25.5-25.5h178   c14.08,0,25.5,11.42,25.5,25.5l0,0C966,1007.58,954.58,1019,940.5,1019z"
   id="path1366" />
</g></svg>