<?xml version="1.0" encoding="UTF-8" standalone="no"?>
<!-- Created with Inkscape (http://www.inkscape.org/) -->

<svg
   xmlns:dc="http://purl.org/dc/elements/1.1/"
   xmlns:cc="http://creativecommons.org/ns#"
   xmlns:rdf="http://www.w3.org/1999/02/22-rdf-syntax-ns#"
   xmlns:svg="http://www.w3.org/2000/svg"
   xmlns="http://www.w3.org/2000/svg"
   xmlns:xlink="http://www.w3.org/1999/xlink"
   xmlns:sodipodi="http://sodipodi.sourceforge.net/DTD/sodipodi-0.dtd"
   xmlns:inkscape="http://www.inkscape.org/namespaces/inkscape"
   width="2300"
   height="1156"
   viewBox="0 0 608.54169 305.85834"
   version="1.1"
   id="svg2271"
   inkscape:version="0.92.3 (2405546, 2018-03-11)"
   sodipodi:docname="stonoga.svg">
  <defs
     id="defs2265">
    <linearGradient
       inkscape:collect="always"
       id="linearGradient1027">
      <stop
         style="stop-color:#abc837;stop-opacity:1"
         offset="0"
         id="stop1023" />
      <stop
         style="stop-color:#89a02c;stop-opacity:1"
         offset="1"
         id="stop1025" />
    </linearGradient>
    <inkscape:perspective
       sodipodi:type="inkscape:persp3d"
       inkscape:vp_x="-261.39472 : 190.15116 : 1"
       inkscape:vp_y="0 : 1261.584 : 0"
       inkscape:vp_z="521.92885 : 201.41577 : 1"
       inkscape:persp3d-origin="122.4685 : 125.84016 : 1"
       id="perspective2846" />
    <inkscape:perspective
       sodipodi:type="inkscape:persp3d"
       inkscape:vp_x="-259.42697 : 168.20324 : 1"
       inkscape:vp_y="0 : 1266.5992 : 0"
       inkscape:vp_z="667.80356 : 183.55453 : 1"
       inkscape:persp3d-origin="125.96223 : 103.63659 : 1"
       id="perspective2816" />
    <inkscape:perspective
       sodipodi:type="inkscape:persp3d"
       inkscape:vp_x="-471.53519 : 134.05284 : 1"
       inkscape:vp_y="0 : 1259.6055 : 0"
       inkscape:vp_z="310.55995 : 145.29979 : 1"
       inkscape:persp3d-origin="-88.273937 : 69.84269 : 1"
       id="perspective2846-7" />
    <linearGradient
       inkscape:collect="always"
       xlink:href="#linearGradient1027"
       id="linearGradient1029"
       x1="441.29443"
       y1="206.54214"
       x2="246.41289"
       y2="292.39734"
       gradientUnits="userSpaceOnUse" />
  </defs>
  <sodipodi:namedview
     id="base"
     pagecolor="#ffffff"
     bordercolor="#666666"
     borderopacity="1.0"
     inkscape:pageopacity="0.0"
     inkscape:pageshadow="2"
     inkscape:zoom="0.38521739"
     inkscape:cx="1150"
     inkscape:cy="578"
     inkscape:document-units="mm"
     inkscape:current-layer="layer3"
     showgrid="false"
     units="px"
     inkscape:snap-global="false"
     inkscape:window-width="1366"
     inkscape:window-height="705"
     inkscape:window-x="-8"
     inkscape:window-y="-8"
     inkscape:window-maximized="1" />
  <metadata
     id="metadata2268">
    <rdf:RDF>
      <cc:Work
         rdf:about="">
        <dc:format>image/svg+xml</dc:format>
        <dc:type
           rdf:resource="http://purl.org/dc/dcmitype/StillImage" />
        <dc:title />
      </cc:Work>
    </rdf:RDF>
  </metadata>
  <g
     inkscape:groupmode="layer"
     id="layer2"
     inkscape:label="Layer 3"
     sodipodi:insensitive="true">
    <path
       style="fill:#784421;stroke:#000000;stroke-width:0.28271741px;stroke-linecap:butt;stroke-linejoin:miter;stroke-opacity:1"
       d="M 0.01432983,259.14929 80.552609,163.68594 520.4155,164.46842 609.21414,259.14929 Z"
       id="path879"
       inkscape:connector-curvature="0"
       sodipodi:nodetypes="ccccc" />
    <rect
       style="opacity:1;fill:#502d16;fill-opacity:1;fill-rule:nonzero;stroke:none;stroke-width:1.57199991;stroke-linecap:butt;stroke-linejoin:bevel;stroke-miterlimit:4;stroke-dasharray:none;stroke-dashoffset:0;stroke-opacity:1;paint-order:normal"
       id="rect881"
       width="608.01062"
       height="16.890175"
       x="0.81195402"
       y="258.31052" />
  </g>
  <g
     inkscape:label="Layer 1"
     inkscape:groupmode="layer"
     id="layer1"
     transform="translate(0,8.8583501)"
     style="display:inline"
     sodipodi:insensitive="true">
    <g
       sodipodi:type="inkscape:box3d"
       id="g2832"
       style="opacity:1;fill:#808080;fill-opacity:1;fill-rule:nonzero;stroke:none;stroke-width:1.00157475;stroke-linecap:butt;stroke-linejoin:bevel;stroke-miterlimit:4;stroke-dasharray:none;stroke-dashoffset:0;stroke-opacity:1;paint-order:normal"
       inkscape:perspectiveID="#perspective2846"
       inkscape:corner0="-0.3598266 : 0.073112679 : 0 : 1"
       inkscape:corner7="-0.49486888 : 0.019523854 : 0.1219471 : 1">
      <path
         sodipodi:type="inkscape:box3dside"
         id="path2834"
         style="fill:#353564;fill-rule:evenodd;stroke:none;stroke-width:0.33431974;stroke-linejoin:round"
         inkscape:box3dsidetype="6"
         d="M 338.22909,63.225044 V 168.83206 l 29.39384,-11.72041 V 68.402844 Z"
         points="338.22909,168.83206 367.62293,157.11165 367.62293,68.402844 338.22909,63.225044 " />
      <path
         sodipodi:type="inkscape:box3dside"
         id="path2842"
         style="fill:#afafde;fill-rule:evenodd;stroke:none;stroke-width:0.33431974;stroke-linejoin:round"
         inkscape:box3dsidetype="13"
         d="m 338.22909,168.83206 160.30405,16.57066 4.54973,-17.46689 -135.45994,-10.82418 z"
         points="498.53314,185.40272 503.08287,167.93583 367.62293,157.11165 338.22909,168.83206 " />
      <path
         sodipodi:type="inkscape:box3dside"
         id="path2844"
         style="fill:#e9e9ff;fill-rule:evenodd;stroke:none;stroke-width:0.33431974;stroke-linejoin:round"
         inkscape:box3dsidetype="11"
         d="M 367.62293,68.402844 503.08287,60.123441 V 167.93583 L 367.62293,157.11165 Z"
         points="503.08287,60.123441 503.08287,167.93583 367.62293,157.11165 367.62293,68.402844 " />
      <path
         sodipodi:type="inkscape:box3dside"
         id="path2836"
         style="fill:#502d16;stroke-width:0.33431974"
         inkscape:box3dsidetype="5"
         d="m 338.22909,63.225044 160.30405,-11.662427 4.54973,8.560824 -135.45994,8.279403 z"
         points="498.53314,51.562617 503.08287,60.123441 367.62293,68.402844 338.22909,63.225044 " />
      <path
         sodipodi:type="inkscape:box3dside"
         id="path2840"
         style="fill:#b3b3b3;stroke-width:0.33431974"
         inkscape:box3dsidetype="14"
         d="M 498.53314,51.562617 V 185.40272 l 4.54973,-17.46689 V 60.123441 Z"
         points="498.53314,185.40272 503.08287,167.93583 503.08287,60.123441 498.53314,51.562617 " />
      <path
         sodipodi:type="inkscape:box3dside"
         id="path2838"
         style="fill:#241c1c;stroke-width:0.33431974"
         inkscape:box3dsidetype="3"
         d="M 338.22909,63.225044 498.53314,51.562617 V 185.40272 L 338.22909,168.83206 Z"
         points="498.53314,51.562617 498.53314,185.40272 338.22909,168.83206 338.22909,63.225044 " />
    </g>
    <g
       sodipodi:type="inkscape:box3d"
       id="g2884"
       style="opacity:1;fill:#808080;fill-opacity:1;fill-rule:nonzero;stroke:none;stroke-width:1.00157475;stroke-linecap:butt;stroke-linejoin:bevel;stroke-miterlimit:4;stroke-dasharray:none;stroke-dashoffset:0;stroke-opacity:1;paint-order:normal"
       inkscape:perspectiveID="#perspective2816"
       inkscape:corner0="0.051326398 : 0.12301123 : 0 : 1"
       inkscape:corner7="0.032354891 : 0.0017838396 : 0.45189178 : 1">
      <path
         sodipodi:type="inkscape:box3dside"
         id="path2886"
         style="fill:#353564;fill-rule:evenodd;stroke:none;stroke-width:0.98233926;stroke-linejoin:round"
         inkscape:box3dsidetype="6"
         d="M 107.14729,42.011831 V 188.06211 L 275.68966,165.63113 V 63.485938 Z"
         points="107.14729,188.06211 275.68966,165.63113 275.68966,63.485938 107.14729,42.011831 " />
      <path
         sodipodi:type="inkscape:box3dside"
         id="path2894"
         style="fill:#afafde;fill-rule:evenodd;stroke:none;stroke-width:0.98233926;stroke-linejoin:round"
         inkscape:box3dsidetype="13"
         d="m 107.14729,188.06211 6.73651,1.08911 168.64567,-23.04927 -6.83981,-0.47082 z"
         points="113.8838,189.15122 282.52947,166.10195 275.68966,165.63113 107.14729,188.06211 " />
      <path
         sodipodi:type="inkscape:box3dside"
         id="path2896"
         style="fill:#e9e9ff;fill-rule:evenodd;stroke:none;stroke-width:0.98233926;stroke-linejoin:round"
         inkscape:box3dsidetype="11"
         d="m 275.68966,63.485938 6.83981,-0.834797 V 166.10195 l -6.83981,-0.47082 z"
         points="282.52947,62.651141 282.52947,166.10195 275.68966,165.63113 275.68966,63.485938 " />
      <path
         sodipodi:type="inkscape:box3dside"
         id="path2888"
         style="fill:#502d16;stroke-width:0.98233926"
         inkscape:box3dsidetype="5"
         d="m 107.14729,42.011831 6.73651,-1.59484 168.64567,22.23415 -6.83981,0.834797 z"
         points="113.8838,40.416991 282.52947,62.651141 275.68966,63.485938 107.14729,42.011831 " />
      <path
         sodipodi:type="inkscape:box3dside"
         id="path2892"
         style="fill:#b3b3b3;stroke-width:0.98233926"
         inkscape:box3dsidetype="14"
         d="M 113.8838,40.416991 V 189.15122 L 282.52947,166.10195 V 62.651141 Z"
         points="113.8838,189.15122 282.52947,166.10195 282.52947,62.651141 113.8838,40.416991 " />
      <path
         sodipodi:type="inkscape:box3dside"
         id="path2890"
         style="fill:#241c1c;stroke-width:0.98233926"
         inkscape:box3dsidetype="3"
         d="m 107.14729,42.011831 6.73651,-1.59484 V 189.15122 l -6.73651,-1.08911 z"
         points="113.8838,40.416991 113.8838,189.15122 107.14729,188.06211 107.14729,42.011831 " />
    </g>
    <path
       transform="matrix(0.93076427,0,0,0.91447351,-33.899125,12.139731)"
       sodipodi:type="inkscape:box3dside"
       id="path2892-0"
       style="opacity:1;fill:#999999;fill-opacity:1;fill-rule:nonzero;stroke:none;stroke-width:0.98233926;stroke-linecap:butt;stroke-linejoin:bevel;stroke-miterlimit:4;stroke-dasharray:none;stroke-dashoffset:0;stroke-opacity:1;paint-order:normal"
       inkscape:box3dsidetype="14"
       d="M 333.35575,163.35458 V 59.903771 L 164.71007,37.669621 V 186.40385 Z"
       points="333.35575,59.903771 164.71007,37.669621 164.71007,186.40385 333.35575,163.35458 " />
    <path
       transform="matrix(0.94091121,0,0,0.91948812,-25.062919,13.16014)"
       sodipodi:type="inkscape:box3dside"
       id="path2838-2"
       style="opacity:1;fill:#999999;fill-opacity:1;fill-rule:nonzero;stroke:none;stroke-width:0.33431974;stroke-linecap:butt;stroke-linejoin:bevel;stroke-miterlimit:4;stroke-dasharray:none;stroke-dashoffset:0;stroke-opacity:1;paint-order:normal"
       inkscape:box3dsidetype="3"
       d="M 551.41994,47.441567 V 181.28167 L 391.11589,164.71101 V 59.103995 Z"
       points="551.41994,181.28167 391.11589,164.71101 391.11589,59.103995 551.41994,47.441567 " />
  </g>
  <g
     inkscape:groupmode="layer"
     id="layer21"
     inkscape:label="Layer 2"
     style="display:inline"
     sodipodi:insensitive="true">
    <path
       style="display:inline;fill:#cccccc;stroke:none;stroke-width:0.26458332px;stroke-linecap:butt;stroke-linejoin:miter;stroke-opacity:1"
       d="m 132.21701,124.53214 0.68684,40.52367 41.2105,-7.55527 -0.68685,-35.02892 z"
       id="path3328-3"
       inkscape:connector-curvature="0"
       sodipodi:nodetypes="ccccc" />
    <path
       style="display:inline;fill:#cccccc;stroke:none;stroke-width:0.26458332px;stroke-linecap:butt;stroke-linejoin:miter;stroke-opacity:1"
       d="m 443.05432,94.548579 0.70727,31.119791 -39.60701,-1.0609 -0.35363,-25.815281 z"
       id="path3039-7-5-9"
       inkscape:connector-curvature="0"
       sodipodi:nodetypes="ccccc" />
    <path
       style="opacity:1;fill:#008000;fill-opacity:1;fill-rule:nonzero;stroke:none;stroke-width:0.17199999;stroke-linecap:butt;stroke-linejoin:bevel;stroke-miterlimit:4;stroke-dasharray:none;stroke-dashoffset:0;stroke-opacity:1;paint-order:normal"
       id="path3134"
       d="m 194.51139,97.369595 c 0.19792,0.407763 0.48818,0.761077 0.77377,1.109769 0.30213,0.339121 0.57699,0.70322 0.89775,1.025353 0.0302,0.0315 0.12734,0.138107 0.17276,0.169137 0.0177,0.01207 0.0381,0.0218 0.0593,0.02461 0.0131,0.0019 0.0506,-0.0088 0.0377,-0.01183 -0.0735,-0.01762 -0.11255,0.03039 -0.0468,-0.02838 0.14029,-0.183166 0.27414,-0.371044 0.41248,-0.555792 0.26784,-0.34794 0.55685,-0.67877 0.83699,-1.016677 0.27598,-0.285739 0.50777,-0.605028 0.74326,-0.923073 0.079,-0.116636 0.17228,-0.221665 0.24867,-0.339979 0,0 0.16166,0.04456 0.16166,0.04456 v 0 c -0.0766,0.123028 -0.17429,0.227602 -0.2578,0.345855 -0.24391,0.31419 -0.47128,0.640575 -0.75355,0.923766 -0.27801,0.336249 -0.56361,0.66651 -0.82687,1.014675 -0.13716,0.188198 -0.2734,0.376565 -0.40582,0.568097 -0.18549,0.236342 -0.38554,0.02474 -0.51918,-0.134194 -0.31371,-0.331237 -0.58855,-0.69673 -0.89117,-1.037897 -0.29093,-0.355425 -0.58307,-0.714758 -0.80234,-1.120264 0,0 0.15919,-0.05775 0.15919,-0.05775 z"
       inkscape:connector-curvature="0" />
    <path
       style="display:inline;fill:#f2f2f2;stroke:none;stroke-width:0.26458332px;stroke-linecap:butt;stroke-linejoin:miter;stroke-opacity:1"
       d="m 128.67036,65.196536 -0.35363,31.119797 39.60701,-1.0609 V 69.793779 Z"
       id="path3039"
       inkscape:connector-curvature="0"
       sodipodi:nodetypes="ccccc" />
    <path
       style="display:inline;fill:#f2f2f2;stroke:none;stroke-width:0.26458332px;stroke-linecap:butt;stroke-linejoin:miter;stroke-opacity:1"
       d="m 184.54455,71.56195 -0.70727,31.11979 39.60701,-1.0609 0.35363,-25.815281 z"
       id="path3039-7"
       inkscape:connector-curvature="0"
       sodipodi:nodetypes="ccccc" />
    <path
       style="display:inline;fill:#ff5555;stroke:none;stroke-width:0.26458332px;stroke-linecap:butt;stroke-linejoin:miter;stroke-opacity:1"
       d="m 133.26761,70.854682 1.93381,14.659378 2.51487,-0.07756 2.27036,-13.520913 z"
       id="path3056"
       inkscape:connector-curvature="0"
       sodipodi:nodetypes="ccccc" />
    <ellipse
       style="display:inline;opacity:1;fill:#ff5555;fill-opacity:1;fill-rule:nonzero;stroke:none;stroke-width:0.27394739;stroke-linecap:butt;stroke-linejoin:bevel;stroke-miterlimit:4;stroke-dasharray:none;stroke-dashoffset:0;stroke-opacity:1;paint-order:normal"
       id="path3058"
       cx="108.79292"
       cy="-133.22878"
       rx="2.1175604"
       ry="2.0559173"
       transform="matrix(0.04370027,0.99904469,-0.98859044,0.15062846,0,0)"
       inkscape:transform-center-x="2.3786641"
       inkscape:transform-center-y="-0.23786641" />
    <rect
       style="display:inline;opacity:1;fill:#4d4d4d;fill-opacity:1;fill-rule:nonzero;stroke:none;stroke-width:0.28709552;stroke-linecap:butt;stroke-linejoin:bevel;stroke-miterlimit:4;stroke-dasharray:none;stroke-dashoffset:0;stroke-opacity:1;paint-order:normal"
       id="rect3060"
       width="21.218164"
       height="1.6650648"
       x="142.73288"
       y="65.818703"
       transform="matrix(0.99773528,0.06726306,0,1,0,0)" />
    <rect
       style="display:inline;opacity:1;fill:#4d4d4d;fill-opacity:1;fill-rule:nonzero;stroke:none;stroke-width:0.28709552;stroke-linecap:butt;stroke-linejoin:bevel;stroke-miterlimit:4;stroke-dasharray:none;stroke-dashoffset:0;stroke-opacity:1;paint-order:normal"
       id="rect3060-4"
       width="21.218166"
       height="1.6650648"
       x="142.61368"
       y="69.513649"
       transform="matrix(0.99773528,0.06726306,0,1,0,0)" />
    <rect
       style="display:inline;opacity:1;fill:#4d4d4d;fill-opacity:1;fill-rule:nonzero;stroke:none;stroke-width:0.28709552;stroke-linecap:butt;stroke-linejoin:bevel;stroke-miterlimit:4;stroke-dasharray:none;stroke-dashoffset:0;stroke-opacity:1;paint-order:normal"
       id="rect3060-4-2"
       width="21.218168"
       height="1.6650648"
       x="142.61368"
       y="73.79525"
       transform="matrix(0.99773528,0.06726306,0,1,0,0)" />
    <path
       style="display:inline;fill:#f2f2f2;stroke:#000000;stroke-width:0.17200001;stroke-linecap:butt;stroke-linejoin:miter;stroke-miterlimit:4;stroke-dasharray:none;stroke-opacity:1"
       d="m 189.06721,90.782088 -0.27316,5.905955 15.29681,-0.20134 0.13655,-4.899258 z"
       id="path3039-7-9"
       inkscape:connector-curvature="0"
       sodipodi:nodetypes="ccccc" />
    <path
       style="display:inline;fill:#f2f2f2;stroke:#000000;stroke-width:0.1471771;stroke-linecap:butt;stroke-linejoin:miter;stroke-miterlimit:4;stroke-dasharray:none;stroke-opacity:1"
       d="m 206.52565,91.722066 -0.24702,4.782047 13.8325,-0.163023 0.12348,-3.96693 z"
       id="path3039-7-9-1"
       inkscape:connector-curvature="0"
       sodipodi:nodetypes="ccccc"
       inkscape:transform-center-x="3.6558131"
       inkscape:transform-center-y="3.6607342" />
    <path
       style="display:inline;fill:#f4eed7;stroke:none;stroke-width:0.26458332px;stroke-linecap:butt;stroke-linejoin:miter;stroke-opacity:1"
       d="m 141.98527,112.88224 -0.70727,31.1198 43.04122,-5.86879 -0.33321,-25.12845 z"
       id="path3039-7-8"
       inkscape:connector-curvature="0"
       sodipodi:nodetypes="ccccc" />
    <rect
       style="display:inline;opacity:1;fill:#4d4d4d;fill-opacity:1;fill-rule:nonzero;stroke:none;stroke-width:0.28709552;stroke-linecap:butt;stroke-linejoin:bevel;stroke-miterlimit:4;stroke-dasharray:none;stroke-dashoffset:0;stroke-opacity:1;paint-order:normal"
       id="rect3060-4-2-4"
       width="21.218168"
       height="1.6650648"
       x="194.38449"
       y="69.863243"
       transform="matrix(0.99773528,0.06726306,0,1,0,0)" />
    <path
       style="display:inline;opacity:1;fill:#008000;fill-opacity:1;fill-rule:nonzero;stroke:none;stroke-width:0.17199999;stroke-linecap:butt;stroke-linejoin:bevel;stroke-miterlimit:4;stroke-dasharray:none;stroke-dashoffset:0;stroke-opacity:1;paint-order:normal"
       id="path3136"
       d="m 195.16178,92.979942 c 0.21574,0.266261 0.45723,0.510331 0.69477,0.756918 0.2377,0.23944 0.48195,0.472257 0.72373,0.707548 0.14271,0.133099 0.25777,0.302594 0.41155,0.422807 0.0856,0.121762 0.20508,0.207841 0.3023,0.318111 0.10015,0.09631 0.0525,-0.08375 0.0291,-0.08158 -0.28418,0.02625 -0.70439,0.183123 -0.4672,0.09596 0.12941,-0.02994 0.22207,-0.181163 0.29955,-0.279652 0.16747,-0.249928 0.35955,-0.481428 0.53647,-0.724408 0.22189,-0.280236 0.43621,-0.566012 0.63443,-0.863483 0.16468,-0.259361 0.34112,-0.510681 0.51369,-0.764741 0.11003,-0.16318 0.23149,-0.31953 0.32896,-0.490681 0,0 0.80842,0.238387 0.80842,0.238387 v 0 c -0.0861,0.10124 0.004,-0.01135 -0.0935,0.144899 -0.0768,0.123211 -0.18745,0.224155 -0.26408,0.348115 -0.18178,0.247124 -0.37424,0.486788 -0.5349,0.748731 -0.20583,0.297749 -0.40828,0.597429 -0.6349,0.880221 -0.17222,0.235617 -0.34666,0.469469 -0.50211,0.716079 -0.10609,0.180049 -0.22633,0.35061 -0.3719,0.501359 -0.44376,0.32353 -0.71926,0.277755 -1.01495,-0.04413 -0.10381,-0.09665 -0.19648,-0.204011 -0.29342,-0.307333 -0.12738,-0.147297 -0.25237,-0.296609 -0.38111,-0.442722 -0.23346,-0.241419 -0.46362,-0.486006 -0.69832,-0.726231 -0.23233,-0.231003 -0.45654,-0.478502 -0.7231,-0.669946 0,0 0.69661,-0.484236 0.69661,-0.484236 z"
       inkscape:connector-curvature="0" />
    <path
       style="display:inline;fill:#f2f2f2;stroke:none;stroke-width:0.26458332px;stroke-linecap:butt;stroke-linejoin:miter;stroke-opacity:1"
       d="m 489.71297,72.07941 0.35363,31.1198 -39.60701,-1.0609 V 76.67665 Z"
       id="path3039-2"
       inkscape:connector-curvature="0"
       sodipodi:nodetypes="ccccc" />
    <path
       style="display:inline;fill:#f2f2f2;stroke:none;stroke-width:0.26458332px;stroke-linecap:butt;stroke-linejoin:miter;stroke-opacity:1"
       d="m 433.83878,78.44482 0.70727,31.11979 -39.60701,-1.0609 -0.35363,-25.81528 z"
       id="path3039-7-5"
       inkscape:connector-curvature="0"
       sodipodi:nodetypes="ccccc" />
    <path
       style="display:inline;fill:#ff5555;stroke:none;stroke-width:0.26458332px;stroke-linecap:butt;stroke-linejoin:miter;stroke-opacity:1"
       d="m 485.11572,77.73755 -1.93381,14.65938 -2.51487,-0.0776 -2.27036,-13.52091 z"
       id="path3056-2"
       inkscape:connector-curvature="0"
       sodipodi:nodetypes="ccccc" />
    <ellipse
       style="display:inline;opacity:1;fill:#ff5555;fill-opacity:1;fill-rule:nonzero;stroke:none;stroke-width:0.27394739;stroke-linecap:butt;stroke-linejoin:bevel;stroke-miterlimit:4;stroke-dasharray:none;stroke-dashoffset:0;stroke-opacity:1;paint-order:normal"
       id="path3058-6"
       cx="21.949907"
       cy="488.45255"
       rx="2.1175604"
       ry="2.0559173"
       transform="matrix(-0.04370027,0.99904469,0.98859044,0.15062846,0,0)"
       inkscape:transform-center-x="-2.3786474"
       inkscape:transform-center-y="-0.23787145" />
    <rect
       style="display:inline;opacity:1;fill:#4d4d4d;fill-opacity:1;fill-rule:nonzero;stroke:none;stroke-width:0.28709552;stroke-linecap:butt;stroke-linejoin:bevel;stroke-miterlimit:4;stroke-dasharray:none;stroke-dashoffset:0;stroke-opacity:1;paint-order:normal"
       id="rect3060-9"
       width="21.218166"
       height="1.6650648"
       x="-477.05411"
       y="114.39034"
       transform="matrix(-0.99773528,0.06726306,0,1,0,0)" />
    <rect
       style="display:inline;opacity:1;fill:#4d4d4d;fill-opacity:1;fill-rule:nonzero;stroke:none;stroke-width:0.28709552;stroke-linecap:butt;stroke-linejoin:bevel;stroke-miterlimit:4;stroke-dasharray:none;stroke-dashoffset:0;stroke-opacity:1;paint-order:normal"
       id="rect3060-4-5"
       width="21.218168"
       height="1.6650648"
       x="-477.17331"
       y="118.08529"
       transform="matrix(-0.99773528,0.06726306,0,1,0,0)" />
    <rect
       style="display:inline;opacity:1;fill:#4d4d4d;fill-opacity:1;fill-rule:nonzero;stroke:none;stroke-width:0.28709552;stroke-linecap:butt;stroke-linejoin:bevel;stroke-miterlimit:4;stroke-dasharray:none;stroke-dashoffset:0;stroke-opacity:1;paint-order:normal"
       id="rect3060-4-2-1"
       width="21.218168"
       height="1.6650648"
       x="-476.48489"
       y="122.32059"
       transform="matrix(-0.99773528,0.06726306,0,1,0,0)" />
    <path
       style="display:inline;fill:#f2f2f2;stroke:#000000;stroke-width:0.17200001;stroke-linecap:butt;stroke-linejoin:miter;stroke-miterlimit:4;stroke-dasharray:none;stroke-opacity:1"
       d="m 429.31612,97.66496 0.27316,5.90596 -15.29681,-0.20134 -0.13655,-4.89926 z"
       id="path3039-7-9-2"
       inkscape:connector-curvature="0"
       sodipodi:nodetypes="ccccc" />
    <path
       style="display:inline;fill:#f2f2f2;stroke:#000000;stroke-width:0.1471771;stroke-linecap:butt;stroke-linejoin:miter;stroke-miterlimit:4;stroke-dasharray:none;stroke-opacity:1"
       d="m 411.85768,98.60494 0.24702,4.78205 -13.8325,-0.16303 -0.12348,-3.96693 z"
       id="path3039-7-9-1-7"
       inkscape:connector-curvature="0"
       sodipodi:nodetypes="ccccc"
       inkscape:transform-center-x="-3.6558131"
       inkscape:transform-center-y="3.6607342" />
    <path
       style="display:inline;fill:#f4eed7;stroke:none;stroke-width:0.26458332px;stroke-linecap:butt;stroke-linejoin:miter;stroke-opacity:1"
       d="m 470.90333,121.13879 0.70727,31.1198 -43.04122,-5.86879 0.33321,-25.12845 z"
       id="path3039-7-8-8"
       inkscape:connector-curvature="0"
       sodipodi:nodetypes="ccccc" />
    <rect
       style="display:inline;opacity:1;fill:#4d4d4d;fill-opacity:1;fill-rule:nonzero;stroke:none;stroke-width:0.28709552;stroke-linecap:butt;stroke-linejoin:bevel;stroke-miterlimit:4;stroke-dasharray:none;stroke-dashoffset:0;stroke-opacity:1;paint-order:normal"
       id="rect3060-4-2-4-6"
       width="21.218168"
       height="1.6650648"
       x="-425.40253"
       y="118.43488"
       transform="matrix(-0.99773528,0.06726306,0,1,0,0)" />
    <path
       style="display:inline;opacity:1;fill:#008000;fill-opacity:1;fill-rule:nonzero;stroke:none;stroke-width:0.17199999;stroke-linecap:butt;stroke-linejoin:bevel;stroke-miterlimit:4;stroke-dasharray:none;stroke-dashoffset:0;stroke-opacity:1;paint-order:normal"
       id="path3136-3"
       d="m 423.22155,99.86281 c -0.21574,0.26627 -0.45723,0.51034 -0.69477,0.75692 -0.2377,0.23944 -0.48195,0.47226 -0.72373,0.70755 -0.14271,0.1331 -0.25777,0.30259 -0.41155,0.42281 -0.0856,0.12176 -0.20508,0.20784 -0.3023,0.31811 -0.10015,0.0963 -0.0525,-0.0838 -0.0291,-0.0816 0.28418,0.0263 0.70439,0.18312 0.4672,0.096 -0.12941,-0.0299 -0.22207,-0.18116 -0.29955,-0.27965 -0.16747,-0.24993 -0.35955,-0.48143 -0.53647,-0.72441 -0.22189,-0.28024 -0.43621,-0.56601 -0.63443,-0.86348 -0.16468,-0.25937 -0.34112,-0.51069 -0.51369,-0.76475 -0.11003,-0.16318 -0.23149,-0.31953 -0.32896,-0.49068 0,0 -0.80842,0.23839 -0.80842,0.23839 v 0 c 0.0861,0.10124 -0.004,-0.0113 0.0935,0.1449 0.0768,0.12321 0.18745,0.22415 0.26408,0.34811 0.18178,0.24713 0.37424,0.48679 0.5349,0.74874 0.20583,0.29774 0.40828,0.59742 0.6349,0.88022 0.17222,0.23561 0.34666,0.46947 0.50211,0.71608 0.10609,0.18004 0.22633,0.35061 0.3719,0.50135 0.44376,0.32353 0.71926,0.27776 1.01495,-0.0441 0.10381,-0.0967 0.19648,-0.20401 0.29342,-0.30733 0.12738,-0.1473 0.25237,-0.29661 0.38111,-0.44272 0.23346,-0.24142 0.46362,-0.48601 0.69832,-0.72623 0.23233,-0.231 0.45654,-0.4785 0.7231,-0.66995 0,0 -0.69661,-0.48423 -0.69661,-0.48423 z"
       inkscape:connector-curvature="0" />
    <path
       style="fill:#666666;stroke:none;stroke-width:0.26458332px;stroke-linecap:butt;stroke-linejoin:miter;stroke-opacity:1"
       d="m 225.28405,119.03742 c -0.68684,43.95786 0,45.33154 0,45.33154 l 40.52365,-5.49473 2e-5,-39.14997 z"
       id="path3288"
       inkscape:connector-curvature="0"
       sodipodi:nodetypes="ccccc" />
    <path
       style="display:inline;fill:#f2f2f2;stroke:none;stroke-width:0.17111373px;stroke-linecap:butt;stroke-linejoin:miter;stroke-opacity:1"
       d="m 229.10646,124.06226 c -0.4442,28.42884 0,29.31723 0,29.31723 l 25.52098,-4.24044 0.68686,-24.63259 z"
       id="path3288-8"
       inkscape:connector-curvature="0"
       sodipodi:nodetypes="ccccc" />
    <rect
       style="display:inline;opacity:1;fill:#4d4d4d;fill-opacity:1;fill-rule:nonzero;stroke:none;stroke-width:0.28709552;stroke-linecap:butt;stroke-linejoin:bevel;stroke-miterlimit:4;stroke-dasharray:none;stroke-dashoffset:0;stroke-opacity:1;paint-order:normal"
       id="rect3060-4-2-4-9"
       width="21.90657"
       height="0"
       x="292.97559"
       y="130.75325"
       transform="matrix(0.99773528,0.06726306,0,1,0,0)" />
    <rect
       style="display:inline;opacity:1;fill:#4d4d4d;fill-opacity:1;fill-rule:nonzero;stroke:none;stroke-width:0.402235;stroke-linecap:butt;stroke-linejoin:bevel;stroke-miterlimit:4;stroke-dasharray:none;stroke-dashoffset:0;stroke-opacity:1;paint-order:normal"
       id="rect3060-4-2-4-95"
       width="30.968443"
       height="2.2393737"
       x="415.63287"
       y="267.17654"
       transform="matrix(0.99582599,-0.09127213,-0.68495846,0.72858212,0,0)" />
    <path
       style="fill:#f2f2f2;stroke:none;stroke-width:0.26458332px;stroke-linecap:butt;stroke-linejoin:miter;stroke-opacity:1"
       d="m 155.2262,128.65319 0.68684,40.52367 41.2105,-7.55527 -0.68685,-35.02892 z"
       id="path3328"
       inkscape:connector-curvature="0"
       sodipodi:nodetypes="ccccc" />
    <path
       style="fill:#f2f2f2;stroke:none;stroke-width:0.26458332px;stroke-linecap:butt;stroke-linejoin:miter;stroke-opacity:1"
       d="m 362.65237,137.58214 v 28.84735 l 32.28155,4.12105 v -32.28156 z"
       id="path3330"
       inkscape:connector-curvature="0"
       sodipodi:nodetypes="ccccc" />
    <path
       style="display:inline;fill:#e6e6e6;stroke:none;stroke-width:0.26458332px;stroke-linecap:butt;stroke-linejoin:miter;stroke-opacity:1"
       d="m 371.23789,127.96635 v 28.84735 l 32.28155,4.12105 v -32.28156 z"
       id="path3330-6"
       inkscape:connector-curvature="0"
       sodipodi:nodetypes="ccccc"
       inkscape:transform-center-x="1.3736833"
       inkscape:transform-center-y="6.8684164" />
    <path
       style="display:inline;fill:#f9f9f9;stroke:none;stroke-width:0.30316839px;stroke-linecap:butt;stroke-linejoin:miter;stroke-opacity:1"
       d="m 350.73281,110.10847 v 33.05425 l 36.98928,4.72204 v -36.98929 z"
       id="path3330-6-5"
       inkscape:connector-curvature="0"
       sodipodi:nodetypes="ccccc"
       inkscape:transform-center-x="3.9350324"
       inkscape:transform-center-y="19.675152" />
    <path
       style="display:inline;fill:#ff5555;stroke:none;stroke-width:0.26458332px;stroke-linecap:butt;stroke-linejoin:miter;stroke-opacity:1"
       d="m 255.57977,125.56945 1.93381,14.65938 2.51487,-0.0776 2.27036,-13.52091 z"
       id="path3056-8"
       inkscape:connector-curvature="0"
       sodipodi:nodetypes="ccccc" />
    <ellipse
       style="display:inline;opacity:1;fill:#ff5555;fill-opacity:1;fill-rule:nonzero;stroke:none;stroke-width:0.27394739;stroke-linecap:butt;stroke-linejoin:bevel;stroke-miterlimit:4;stroke-dasharray:none;stroke-dashoffset:0;stroke-opacity:1;paint-order:normal"
       id="path3058-1"
       cx="181.72804"
       cy="-253.72849"
       rx="2.1175604"
       ry="2.0559173"
       transform="matrix(0.04370027,0.99904469,-0.98859044,0.15062846,0,0)"
       inkscape:transform-center-x="2.3786641"
       inkscape:transform-center-y="-0.23786641" />
    <path
       style="display:inline;fill:#e3dbdb;stroke:none;stroke-width:0.21872689px;stroke-linecap:butt;stroke-linejoin:miter;stroke-opacity:1"
       d="m 368.19718,92.813217 v 23.847653 l 26.68666,1.34629 V 90.633648 Z"
       id="path3330-6-5-4"
       inkscape:connector-curvature="0"
       sodipodi:nodetypes="ccccc"
       inkscape:transform-center-x="2.8390057"
       inkscape:transform-center-y="14.195032" />
  </g>
  <g
     inkscape:groupmode="layer"
     id="layer3"
     inkscape:label="Layer 4"
     style="display:inline">
    <path
       style="opacity:0.54100001;fill:#241f1c;stroke:none;stroke-width:0.26458332px;stroke-linecap:butt;stroke-linejoin:miter;stroke-opacity:1"
       d="m 140.59659,219.98389 c -2.41417,-1.12097 -4.66527,-0.36188 -7.55526,0.68684 -2.88999,1.04872 -6.4207,4.08826 -8.92894,6.18158 -2.50824,2.09332 -5.66608,3.80169 -6.18158,6.18157 -0.5155,2.37988 0.11664,3.7013 2.06053,5.49473 1.94389,1.79343 6.71989,2.89549 9.61578,2.74737 2.89589,-0.14812 4.86925,-1.33147 6.86842,-2.74737 1.99917,-1.4159 3.31543,-3.54536 4.80789,-5.49473 1.49246,-1.94937 4.15099,-3.54619 4.12105,-6.18157 -0.0299,-2.63538 -2.39372,-5.74745 -4.80789,-6.86842 z"
       id="path884-5"
       inkscape:connector-curvature="0"
       sodipodi:nodetypes="zzzzzzzzzz" />
    <path
       style="fill:#c8b7b7;stroke:none;stroke-width:0.26458332px;stroke-linecap:butt;stroke-linejoin:miter;stroke-opacity:1"
       d="m 140.80253,218.62945 c -2.41417,-1.12097 -4.66527,-0.36188 -7.55526,0.68684 -2.88999,1.04872 -6.4207,4.08826 -8.92894,6.18158 -2.50824,2.09332 -5.66608,3.80169 -6.18158,6.18157 -0.5155,2.37988 0.11664,3.7013 2.06053,5.49473 1.94389,1.79343 6.71989,2.89549 9.61578,2.74737 2.89589,-0.14812 4.86925,-1.33147 6.86842,-2.74737 1.99917,-1.4159 3.31543,-3.54536 4.80789,-5.49473 1.49246,-1.94937 4.15099,-3.54619 4.12105,-6.18157 -0.0299,-2.63538 -2.39372,-5.74745 -4.80789,-6.86842 z"
       id="path884"
       inkscape:connector-curvature="0"
       sodipodi:nodetypes="zzzzzzzzzz" />
    <path
       style="fill:#ac9393;stroke:none;stroke-width:0.26458332px;stroke-linecap:butt;stroke-linejoin:miter;stroke-opacity:1"
       d="m 140.92852,218.75262 c -0.0813,0.0203 -2.46281,0.47204 -3.53454,0.93444 -1.07173,0.4624 -2.45202,1.47091 -3.16924,1.9503 -0.71722,0.47939 -1.17831,0.85326 -1.17831,0.85326 0,0 2.62369,0.34763 3.75942,0.91432 1.13574,0.56669 2.69954,0.97536 3.39135,1.62547 0.69182,0.65011 1.15897,1.3388 1.50392,2.07219 0.34495,0.73339 0.52786,2.53884 0.52786,2.53884 0,0 1.38553,-1.16904 1.95044,-1.95001 0.56491,-0.78097 1.18697,-2.12664 1.2391,-2.96604 0.0521,-0.8394 -0.33484,-1.46729 -0.42665,-1.82845 -0.0918,-0.36116 -1.53206,-2.47886 -2.31581,-3.12862 -0.78375,-0.64976 -1.66627,-1.036 -1.74754,-1.0157 z"
       id="path886"
       inkscape:connector-curvature="0"
       sodipodi:nodetypes="zzzczzzczzzzz" />
    <path
       style="fill:#e3dbdb;stroke:none;stroke-width:0.26458332px;stroke-linecap:butt;stroke-linejoin:miter;stroke-opacity:1"
       d="m 140.4896,218.52485 c 0,0 -2.60642,0.66273 -3.88124,1.27254 -1.27481,0.60981 -3.62672,2.35419 -3.62672,2.35419 l -1.39979,-0.44539 h -1.90881 l -1.01803,0.38176 2.79958,-1.9088 2.54508,-1.14529 2.99045,-0.82714 2.09969,-0.12726 z"
       id="path888"
       inkscape:connector-curvature="0"
       sodipodi:nodetypes="czccccccccc" />
    <path
       style="opacity:0.54100001;fill:#241f1c;stroke:none;stroke-width:0.26458332px;stroke-linecap:butt;stroke-linejoin:miter;stroke-opacity:1"
       d="m 403.88003,200.00218 c 2.41417,-1.12097 4.66527,-0.36188 7.55526,0.68684 2.88999,1.04872 6.4207,4.08826 8.92894,6.18158 2.50824,2.09332 5.66608,3.80169 6.18158,6.18157 0.5155,2.37988 -0.11664,3.7013 -2.06053,5.49473 -1.94389,1.79343 -6.71989,2.89549 -9.61578,2.74737 -2.89589,-0.14812 -4.86925,-1.33147 -6.86842,-2.74737 -1.99917,-1.4159 -3.31543,-3.54536 -4.80789,-5.49473 -1.49246,-1.94937 -4.15099,-3.54619 -4.12105,-6.18157 0.0299,-2.63538 2.39372,-5.74745 4.80789,-6.86842 z"
       id="path884-5-2"
       inkscape:connector-curvature="0"
       sodipodi:nodetypes="zzzzzzzzzz" />
    <path
       style="fill:#c8b7b7;stroke:none;stroke-width:0.26458332px;stroke-linecap:butt;stroke-linejoin:miter;stroke-opacity:1"
       d="m 403.67409,198.64774 c 2.41417,-1.12097 4.66527,-0.36188 7.55526,0.68684 2.88999,1.04872 6.4207,4.08826 8.92894,6.18158 2.50824,2.09332 5.66608,3.80169 6.18158,6.18157 0.5155,2.37988 -0.11664,3.7013 -2.06053,5.49473 -1.94389,1.79343 -6.71989,2.89549 -9.61578,2.74737 -2.89589,-0.14812 -4.86925,-1.33147 -6.86842,-2.74737 -1.99917,-1.4159 -3.31543,-3.54536 -4.80789,-5.49473 -1.49246,-1.94937 -4.15099,-3.54619 -4.12105,-6.18157 0.0299,-2.63538 2.39372,-5.74745 4.80789,-6.86842 z"
       id="path884-3"
       inkscape:connector-curvature="0"
       sodipodi:nodetypes="zzzzzzzzzz" />
    <path
       style="fill:#ac9393;stroke:none;stroke-width:0.26458332px;stroke-linecap:butt;stroke-linejoin:miter;stroke-opacity:1"
       d="m 403.5481,198.77091 c 0.0813,0.0203 2.46281,0.47204 3.53454,0.93444 1.07173,0.4624 2.45202,1.47091 3.16924,1.9503 0.71722,0.47939 1.17831,0.85326 1.17831,0.85326 0,0 -2.62369,0.34763 -3.75942,0.91432 -1.13574,0.56669 -2.69954,0.97536 -3.39135,1.62547 -0.69182,0.65011 -1.15897,1.3388 -1.50392,2.07219 -0.34495,0.73339 -0.52786,2.53884 -0.52786,2.53884 0,0 -1.38553,-1.16904 -1.95044,-1.95001 -0.56491,-0.78097 -1.18697,-2.12664 -1.2391,-2.96604 -0.0521,-0.8394 0.33484,-1.46729 0.42665,-1.82845 0.0918,-0.36116 1.53206,-2.47886 2.31581,-3.12862 0.78375,-0.64976 1.66627,-1.036 1.74754,-1.0157 z"
       id="path886-2"
       inkscape:connector-curvature="0"
       sodipodi:nodetypes="zzzczzzczzzzz" />
    <path
       style="fill:#e3dbdb;stroke:none;stroke-width:0.26458332px;stroke-linecap:butt;stroke-linejoin:miter;stroke-opacity:1"
       d="m 403.98702,198.54314 c 0,0 2.60642,0.66273 3.88124,1.27254 1.27481,0.60981 3.62672,2.35419 3.62672,2.35419 l 1.39979,-0.44539 h 1.90881 l 1.01803,0.38176 -2.79958,-1.9088 -2.54508,-1.14529 -2.99045,-0.82714 -2.09969,-0.12726 z"
       id="path888-5"
       inkscape:connector-curvature="0"
       sodipodi:nodetypes="czccccccccc" />
    <path
       style="opacity:0.54100001;fill:#241f1c;stroke:none;stroke-width:0.26458332px;stroke-linecap:butt;stroke-linejoin:miter;stroke-opacity:1"
       d="m 217.02478,215.1127 c -2.41417,-1.12097 -4.66527,-0.36188 -7.55526,0.68684 -2.88999,1.04872 -6.4207,4.08826 -8.92894,6.18158 -2.50824,2.09332 -5.66608,3.80169 -6.18158,6.18157 -0.5155,2.37988 0.11664,3.7013 2.06053,5.49473 1.94389,1.79343 6.71989,2.89549 9.61578,2.74737 2.89589,-0.14812 4.86925,-1.33147 6.86842,-2.74737 1.99917,-1.4159 3.31543,-3.54536 4.80789,-5.49473 1.49246,-1.94937 4.15099,-3.54619 4.12105,-6.18157 -0.0299,-2.63538 -2.39372,-5.74745 -4.80789,-6.86842 z"
       id="path884-5-5"
       inkscape:connector-curvature="0"
       sodipodi:nodetypes="zzzzzzzzzz" />
    <path
       style="fill:#c8b7b7;stroke:none;stroke-width:0.26458332px;stroke-linecap:butt;stroke-linejoin:miter;stroke-opacity:1"
       d="m 217.23072,213.75826 c -2.41417,-1.12097 -4.66527,-0.36188 -7.55526,0.68684 -2.88999,1.04872 -6.4207,4.08826 -8.92894,6.18158 -2.50824,2.09332 -5.66608,3.80169 -6.18158,6.18157 -0.5155,2.37988 0.11664,3.7013 2.06053,5.49473 1.94389,1.79343 6.71989,2.89549 9.61578,2.74737 2.89589,-0.14812 4.86925,-1.33147 6.86842,-2.74737 1.99917,-1.4159 3.31543,-3.54536 4.80789,-5.49473 1.49246,-1.94937 4.15099,-3.54619 4.12105,-6.18157 -0.0299,-2.63538 -2.39372,-5.74745 -4.80789,-6.86842 z"
       id="path884-33"
       inkscape:connector-curvature="0"
       sodipodi:nodetypes="zzzzzzzzzz" />
    <path
       style="fill:#ac9393;stroke:none;stroke-width:0.26458332px;stroke-linecap:butt;stroke-linejoin:miter;stroke-opacity:1"
       d="m 217.35671,213.88143 c -0.0813,0.0203 -2.46281,0.47204 -3.53454,0.93444 -1.07173,0.4624 -2.45202,1.47091 -3.16924,1.9503 -0.71722,0.47939 -1.17831,0.85326 -1.17831,0.85326 0,0 2.62369,0.34763 3.75942,0.91432 1.13574,0.56669 2.69954,0.97536 3.39135,1.62547 0.69182,0.65011 1.15897,1.3388 1.50392,2.07219 0.34495,0.73339 0.52786,2.53884 0.52786,2.53884 0,0 1.38553,-1.16904 1.95044,-1.95001 0.56491,-0.78097 1.18697,-2.12664 1.2391,-2.96604 0.0521,-0.8394 -0.33484,-1.46729 -0.42665,-1.82845 -0.0918,-0.36116 -1.53206,-2.47886 -2.31581,-3.12862 -0.78375,-0.64976 -1.66627,-1.036 -1.74754,-1.0157 z"
       id="path886-7"
       inkscape:connector-curvature="0"
       sodipodi:nodetypes="zzzczzzczzzzz" />
    <path
       style="fill:#e3dbdb;stroke:none;stroke-width:0.26458332px;stroke-linecap:butt;stroke-linejoin:miter;stroke-opacity:1"
       d="m 216.91779,213.65366 c 0,0 -2.60642,0.66273 -3.88124,1.27254 -1.27481,0.60981 -3.62672,2.35419 -3.62672,2.35419 l -1.39979,-0.44539 h -1.90881 l -1.01803,0.38176 2.79958,-1.9088 2.54508,-1.14529 2.99045,-0.82714 2.09969,-0.12726 z"
       id="path888-8"
       inkscape:connector-curvature="0"
       sodipodi:nodetypes="czccccccccc" />
    <path
       style="opacity:0.54100001;fill:#241f1c;stroke:none;stroke-width:0.26458332px;stroke-linecap:butt;stroke-linejoin:miter;stroke-opacity:1"
       d="m 542.45679,208.08062 c -2.2523,-1.41842 -4.58156,-0.9513 -7.58132,-0.27801 -2.99976,0.67329 -6.88782,3.23994 -9.64155,4.99784 -2.75373,1.75791 -6.10292,3.0515 -6.91642,5.34666 -0.81351,2.29517 -0.35426,3.68616 1.34618,5.71189 1.70045,2.02573 6.29786,3.72528 9.18912,3.94605 2.89126,0.22077 4.9989,-0.70244 7.16167,-1.85305 2.16276,-1.1506 3.73875,-3.0957 5.46664,-4.8398 1.72789,-1.74409 4.56766,-2.99044 4.87257,-5.60829 0.30496,-2.61784 -1.64459,-6.00486 -3.89689,-7.42329 z"
       id="path884-5-52"
       inkscape:connector-curvature="0"
       sodipodi:nodetypes="zzzzzzzzzz" />
    <path
       style="fill:#c8b7b7;stroke:none;stroke-width:0.26458332px;stroke-linecap:butt;stroke-linejoin:miter;stroke-opacity:1"
       d="m 542.83304,206.76329 c -2.2523,-1.41842 -4.58157,-0.9513 -7.58132,-0.27801 -2.99976,0.67329 -6.88782,3.23994 -9.64155,4.99784 -2.75373,1.75791 -6.10293,3.0515 -6.91643,5.34666 -0.8135,2.29517 -0.35426,3.68616 1.34619,5.71189 1.70044,2.02573 6.29786,3.72528 9.18912,3.94605 2.89126,0.22077 4.9989,-0.70244 7.16166,-1.85305 2.16277,-1.1506 3.73876,-3.0957 5.46665,-4.8398 1.72789,-1.74409 4.56765,-2.99044 4.87257,-5.60829 0.30496,-2.61784 -1.64459,-6.00486 -3.89689,-7.42329 z"
       id="path884-6"
       inkscape:connector-curvature="0"
       sodipodi:nodetypes="zzzzzzzzzz" />
    <path
       style="fill:#ac9393;stroke:none;stroke-width:0.26458332px;stroke-linecap:butt;stroke-linejoin:miter;stroke-opacity:1"
       d="m 542.94237,206.90146 c -0.0832,0.01 -2.50281,0.15552 -3.62458,0.4781 -1.12177,0.32258 -2.61894,1.14767 -3.39122,1.53212 -0.77228,0.38444 -1.27711,0.69674 -1.27711,0.69674 0,0 2.55831,0.67795 3.6129,1.38425 1.05459,0.70631 2.55385,1.31023 3.15752,2.04292 0.60367,0.73269 0.9796,1.47512 1.22864,2.24637 0.24904,0.77125 0.20123,2.58531 0.20123,2.58531 0,0 1.52275,-0.98365 2.18225,-1.68658 0.65949,-0.70292 1.44738,-1.95871 1.60567,-2.7847 0.15825,-0.82599 -0.14583,-1.49793 -0.19104,-1.86782 -0.0452,-0.3699 -1.20492,-2.65333 -1.89983,-3.39734 -0.69491,-0.74402 -1.52124,-1.23918 -1.60443,-1.22937 z"
       id="path886-6"
       inkscape:connector-curvature="0"
       sodipodi:nodetypes="zzzczzzczzzzz" />
    <path
       style="fill:#e3dbdb;stroke:none;stroke-width:0.26458332px;stroke-linecap:butt;stroke-linejoin:miter;stroke-opacity:1"
       d="m 542.53592,206.61981 c 0,0 -2.66947,0.32643 -4.0114,0.76944 -1.34192,0.44301 -3.89628,1.87465 -3.89628,1.87465 l -1.33191,-0.61952 -1.89336,-0.24236 -1.05826,0.24941 3.01928,-1.53789 2.6699,-0.81287 3.07127,-0.44075 2.09885,0.14037 z"
       id="path888-2"
       inkscape:connector-curvature="0"
       sodipodi:nodetypes="czccccccccc" />
    <path
       style="display:inline;opacity:0.54100001;fill:#241f1c;stroke:none;stroke-width:0.26458332px;stroke-linecap:butt;stroke-linejoin:miter;stroke-opacity:1"
       d="m 554.98519,225.41533 c 2.41417,-1.12097 4.66527,-0.36188 7.55526,0.68684 2.88999,1.04872 6.4207,4.08826 8.92894,6.18158 2.50824,2.09332 5.66608,3.80169 6.18159,6.18157 0.51549,2.37988 -0.11665,3.7013 -2.06054,5.49473 -1.94389,1.79343 -6.71989,2.89549 -9.61578,2.74737 -2.89589,-0.14812 -4.86925,-1.33147 -6.86842,-2.74737 -1.99917,-1.4159 -3.31543,-3.54536 -4.80789,-5.49473 -1.49246,-1.94937 -4.15099,-3.54619 -4.12105,-6.18157 0.0299,-2.63538 2.39372,-5.74745 4.80789,-6.86842 z"
       id="path884-5-2-0"
       inkscape:connector-curvature="0"
       sodipodi:nodetypes="zzzzzzzzzz" />
    <path
       style="display:inline;fill:#c8b7b7;stroke:none;stroke-width:0.26458332px;stroke-linecap:butt;stroke-linejoin:miter;stroke-opacity:1"
       d="m 554.77925,224.06089 c 2.41417,-1.12097 4.66527,-0.36188 7.55526,0.68684 2.88999,1.04872 6.4207,4.08826 8.92894,6.18158 2.50824,2.09332 5.66609,3.80169 6.18158,6.18157 0.51551,2.37988 -0.11663,3.7013 -2.06053,5.49473 -1.94389,1.79343 -6.71989,2.89549 -9.61578,2.74737 -2.89589,-0.14812 -4.86925,-1.33147 -6.86842,-2.74737 -1.99917,-1.4159 -3.31543,-3.54536 -4.80789,-5.49473 -1.49246,-1.94937 -4.15099,-3.54619 -4.12105,-6.18157 0.0299,-2.63538 2.39372,-5.74745 4.80789,-6.86842 z"
       id="path884-3-9"
       inkscape:connector-curvature="0"
       sodipodi:nodetypes="zzzzzzzzzz" />
    <path
       style="display:inline;fill:#ac9393;stroke:none;stroke-width:0.26458332px;stroke-linecap:butt;stroke-linejoin:miter;stroke-opacity:1"
       d="m 554.65326,224.18406 c 0.0813,0.0203 2.46281,0.47204 3.53454,0.93444 1.07173,0.4624 2.45202,1.47091 3.16924,1.9503 0.71722,0.47939 1.17831,0.85326 1.17831,0.85326 0,0 -2.62369,0.34763 -3.75942,0.91432 -1.13574,0.56669 -2.69954,0.97536 -3.39135,1.62547 -0.69182,0.65011 -1.15897,1.3388 -1.50392,2.07219 -0.34495,0.73339 -0.52786,2.53884 -0.52786,2.53884 0,0 -1.38553,-1.16904 -1.95044,-1.95001 -0.56491,-0.78097 -1.18697,-2.12664 -1.2391,-2.96604 -0.0521,-0.8394 0.33484,-1.46729 0.42665,-1.82845 0.0918,-0.36116 1.53206,-2.47886 2.31581,-3.12862 0.78375,-0.64976 1.66627,-1.036 1.74754,-1.0157 z"
       id="path886-2-5"
       inkscape:connector-curvature="0"
       sodipodi:nodetypes="zzzczzzczzzzz" />
    <path
       style="display:inline;fill:#e3dbdb;stroke:none;stroke-width:0.26458332px;stroke-linecap:butt;stroke-linejoin:miter;stroke-opacity:1"
       d="m 555.09218,223.95629 c 0,0 2.60642,0.66273 3.88124,1.27254 1.27481,0.60981 3.62672,2.35419 3.62672,2.35419 l 1.39979,-0.44539 h 1.90881 l 1.01803,0.38176 -2.79958,-1.9088 -2.54508,-1.14529 -2.99045,-0.82714 -2.09969,-0.12726 z"
       id="path888-5-3"
       inkscape:connector-curvature="0"
       sodipodi:nodetypes="czccccccccc" />
  </g>
  <g
     inkscape:groupmode="layer"
     id="layer4"
     inkscape:label="stonoga"
     style="display:inline"
     sodipodi:insensitive="true">
    <path
       style="fill:url(#linearGradient1029);fill-opacity:1;stroke:none;stroke-width:0.26458332px;stroke-linecap:butt;stroke-linejoin:miter;stroke-opacity:1"
       d="m 93.410456,232.36628 c -3.84372,4.12806 -4.237904,8.4476 -3.434206,12.36315 0.803698,3.91555 3.335088,4.4414 8.928941,7.55525 5.593849,3.11385 16.833729,8.35223 25.413139,8.2421 8.57941,-0.11013 19.92948,-4.12815 29.53418,-6.86842 9.6047,-2.74027 15.11052,-4.12104 26.09999,-3.4342 10.98947,0.68684 13.22385,-0.80399 26.78682,2.74737 13.56297,3.55136 32.9684,10.98946 45.33155,8.24209 12.36316,-2.74736 19.972,-5.75876 26.78681,-8.92894 6.81481,-3.17018 12.05032,-4.14556 20.60526,-4.12105 8.55494,0.0245 20.37759,2.16733 29.53418,4.12105 9.15659,1.95372 17.51524,4.31923 30.22103,6.18158 12.70579,1.86235 36.30284,6.30594 46.01839,4.12105 9.71555,-2.18489 18.02882,-0.85176 31.59471,-4.12105 13.56589,-3.26929 30.43963,3.75683 50.13945,1.37368 19.69982,-2.38315 40.23316,-2.11814 46.70523,-14.42367 6.47207,-12.30553 -0.0497,-21.81131 -10.30264,-32.9684 -10.25296,-11.15709 -34.98131,-21.04651 -52.19996,-21.29209 -17.21865,-0.24558 -29.07781,12.83309 -43.95785,16.4842 -14.88004,3.65111 -41.21049,5.49473 -44.64471,5.49473 -3.43421,0 -31.89804,-5.1994 -37.08945,-14.42367 -5.19141,-9.22427 -5.49473,-25.41313 -5.49473,-25.41313 0,0 17.14993,-21.20567 19.9184,-30.22104 -4.34166,-15.72981 7.05059,-20.59835 -18.54471,-23.35261 -8.40335,-0.42635 -18.51257,2.61736 -26.09998,10.30262 -7.58741,7.68526 -10.95209,22.91533 -13.04999,34.34208 -2.0979,11.42675 -1.00511,20.48157 0.68684,30.90788 1.69196,10.4263 6.79586,20.44706 14.42367,27.47365 7.62782,7.02659 25.41315,10.98947 25.41315,10.98947 0,0 -34.17218,-15.92658 -48.76578,-16.4842 -14.5936,-0.55762 -24.46989,6.81655 -35.02891,8.92894 -10.55902,2.11239 -17.31703,4.56311 -28.1605,4.12105 -10.84347,-0.44206 -22.6173,-7.3977 -35.71577,-8.2421 -13.09847,-0.8444 -25.41919,1.49375 -36.4026,3.43421 -10.98341,1.94046 -22.50034,7.98564 -29.53419,6.86842 -7.03385,-1.11722 -13.73682,-5.49473 -16.48419,-5.49473 -2.74736,0 -15.387854,1.36667 -19.231574,5.49473 z"
       id="path954"
       inkscape:connector-curvature="0"
       sodipodi:nodetypes="zzzzzzzzzzzzzzzzzzzzzccczzzzczzzzzzzz" />
    <path
       style="fill:#e5ff80;stroke:none;stroke-width:0.26458332px;stroke-linecap:butt;stroke-linejoin:miter;stroke-opacity:1"
       d="m 304.95766,165.74264 c 0,0 1.37369,-8.92894 5.49474,-9.61578 4.12107,-0.68684 10.06836,-4.55529 15.11051,-3.43421 5.09635,1.13313 11.67633,6.86842 12.36316,9.61578 0.68683,2.74737 0.68683,11.67631 0.68683,11.67631 0,0 -4.79775,-7.17483 -8.24209,-9.61578 -3.60762,-2.55667 -7.94146,-4.79967 -12.36316,-4.80789 -3.18885,-0.006 -6.09687,1.96849 -8.92892,3.43421 -1.46623,0.75885 -4.12107,2.74736 -4.12107,2.74736 z"
       id="path956"
       inkscape:connector-curvature="0"
       sodipodi:nodetypes="cssscsssc" />
    <path
       style="fill:#e5ff80;stroke:none;stroke-width:0.26458332px;stroke-linecap:butt;stroke-linejoin:miter;stroke-opacity:1"
       d="m 303.5752,196.29848 c 0,0 -1.34811,-8.93284 2.38133,-10.81594 3.72946,-1.88312 8.25462,-7.34737 13.40184,-7.77896 5.20254,-0.43622 13.19212,3.07894 14.66608,5.49704 1.47395,2.41811 4.1334,10.9418 4.1334,10.9418 0,0 -6.71701,-5.4202 -10.73205,-6.72448 -4.20538,-1.36612 -9.01059,-2.2165 -13.23406,-0.90736 -3.0459,0.94406 -5.23384,3.69507 -7.5008,5.93779 -1.17366,1.16112 -3.11574,3.85011 -3.11574,3.85011 z"
       id="path956-4"
       inkscape:connector-curvature="0"
       sodipodi:nodetypes="cssscsssc"
       inkscape:transform-center-x="-12.355965"
       inkscape:transform-center-y="-28.212725" />
    <path
       style="fill:#e5ff80;stroke:none;stroke-width:0.26458332px;stroke-linecap:butt;stroke-linejoin:miter;stroke-opacity:1"
       d="m 319.22018,221.10695 c 0,0 -3.36112,-8.38546 -0.16304,-11.07379 3.19809,-2.68834 6.34925,-9.04486 11.26024,-10.64557 4.96378,-1.61792 13.54663,-0.0291 15.53592,1.98648 1.98931,2.01556 6.53295,9.70199 6.53295,9.70199 0,0 -9.84167,-6.48237 -14.04884,-6.83093 -4.4066,-0.3651 -7.21824,2.65677 -11.02882,4.89973 -2.74815,1.61754 -4.24675,4.79707 -5.93885,7.49996 -0.87604,1.39937 -2.14956,4.46213 -2.14956,4.46213 z"
       id="path956-6"
       inkscape:connector-curvature="0"
       sodipodi:nodetypes="cssscsssc" />
    <path
       style="fill:#f6ffd5;stroke:none;stroke-width:0.26458332px;stroke-linecap:butt;stroke-linejoin:miter;stroke-opacity:1"
       d="m 352.09696,129.18557 c -0.56093,1.1416 -1.28758,3.32377 -1.45666,5.41046 -0.16908,2.08669 0.83238,5.41047 1.66476,5.61857 0.83238,0.2081 3.32952,0.83238 4.1619,0.41619 0.83238,-0.41619 2.70523,-3.12142 3.12142,-4.1619 0.41619,-1.04048 -0.20809,-6.45095 -0.83238,-7.28333 -0.62429,-0.83238 -3.87759,-1.84709 -4.78618,-1.45666 -0.90859,0.39043 -1.31193,0.31507 -1.87286,1.45667 z"
       id="path994"
       inkscape:connector-curvature="0"
       sodipodi:nodetypes="zzzzzzzz" />
    <path
       style="opacity:0.54100001;fill:#f6ffd5;fill-opacity:1;fill-rule:nonzero;stroke:none;stroke-width:1.57199991;stroke-linecap:butt;stroke-linejoin:bevel;stroke-miterlimit:4;stroke-dasharray:none;stroke-dashoffset:0;stroke-opacity:1;paint-order:normal"
       id="path996"
       d="m 357.63477,134.22752 c -0.0382,0.6014 -0.0343,1.20274 0.0284,1.80188 0.0735,0.42132 0.19315,0.88244 0.58613,1.1067 0.0463,0.002 0.0932,0.013 0.13891,0.005 0.1347,-0.0226 0.17783,-0.0759 0.28366,-0.15555 -0.82555,0.46679 -1.64706,0.94079 -2.47663,1.40038 -0.0632,0.035 0.12075,-0.0798 0.17632,-0.126 0.0656,-0.0545 0.12417,-0.11682 0.18624,-0.17523 0.38682,-0.41739 0.59378,-0.93836 0.78562,-1.46387 0.20831,-0.59308 0.21225,-1.19717 0.0689,-1.80256 -0.14086,-0.4964 -0.43545,-0.80635 -0.92508,-0.94225 -0.0543,0.003 -0.11026,-0.004 -0.16307,0.009 -0.11112,0.0278 -0.39536,0.23155 -0.29535,0.17573 0.82851,-0.46233 1.64385,-0.9481 2.47512,-1.40542 0.11994,-0.066 -0.2055,0.1817 -0.2981,0.28253 -0.32438,0.46845 -0.34399,1.06012 -0.37447,1.61056 -0.006,0.50894 0.0628,0.98665 0.41638,1.36838 0.22259,0.24716 0.52792,0.3176 0.83785,0.3922 0,0 -2.51364,1.72298 -2.51364,1.72298 v 0 c -0.35592,-0.11354 -0.69676,-0.24053 -0.94687,-0.53434 -0.3783,-0.46341 -0.50681,-0.98839 -0.50493,-1.58438 0.0251,-0.59484 0.0361,-1.2075 0.27035,-1.7648 0.69498,-1.08891 1.5961,-1.17526 3.04395,-1.99649 0.18053,-0.1024 0.41267,-0.0436 0.59402,0.0101 0.53933,0.23789 0.88109,0.64228 1.05418,1.21172 0.17155,0.64958 0.2051,1.30135 0.0153,1.95394 -0.17089,0.55608 -0.38086,1.10117 -0.7254,1.57501 -0.80349,1.034 -1.63055,1.16466 -3.11957,1.98098 -0.0898,0.0492 -0.31864,0.0197 -0.40352,-0.006 -0.068,-0.0208 -0.12848,-0.0611 -0.19272,-0.0916 -0.41601,-0.33906 -0.59677,-0.82827 -0.68376,-1.34976 -0.0658,-0.6021 -0.0732,-1.20168 -0.0901,-1.80672 0,0 2.75182,-1.40214 2.75182,-1.40214 z"
       inkscape:connector-curvature="0" />
    <path
       style="opacity:0.54100001;fill:#28220b;fill-opacity:1;fill-rule:nonzero;stroke:none;stroke-width:1.57199991;stroke-linecap:butt;stroke-linejoin:bevel;stroke-miterlimit:4;stroke-dasharray:none;stroke-dashoffset:0;stroke-opacity:1;paint-order:normal"
       id="path998"
       d="m 358.06147,133.57637 c 0.0527,0.56759 0.17121,1.1227 0.31834,1.6724 0.14145,0.49753 0.36688,0.9437 0.81989,1.21233 0.13285,0.0219 0.19738,0.0567 0.32325,-0.0115 0.0445,-0.0241 0.15658,-0.12683 0.11218,-0.10246 -0.84074,0.46154 -1.66516,0.95238 -2.50481,1.41593 -0.0492,0.0272 0.0932,-0.0645 0.13147,-0.10569 0.0435,-0.0468 0.0745,-0.10394 0.11171,-0.15591 0.20492,-0.4645 0.23304,-0.98466 0.21487,-1.48555 -0.0552,-0.56505 -0.27065,-1.05265 -0.57457,-1.5216 -0.2218,-0.30937 -0.4408,-0.53251 -0.81518,-0.62039 -0.84556,0.16426 -3.90457,2.08354 2.26591,-1.3134 0.0472,-0.026 -0.0967,0.0515 -0.13459,0.0898 -0.0872,0.0881 -0.16603,0.25231 -0.22328,0.35788 -0.23254,0.53665 -0.25011,1.13064 -0.27726,1.70622 -0.005,0.52004 0.1188,1.01057 0.55658,1.31973 0.16565,0.0909 0.32382,0.11551 0.49546,0.0234 0.052,-0.0279 0.19547,-0.1315 0.14388,-0.10296 -2.49116,1.37761 -3.12783,2.09264 -2.3445,1.24931 0.32049,-0.44614 0.40642,-0.98022 0.46879,-1.51229 0.0306,-0.53266 -0.1506,-1.04284 -0.44651,-1.47963 -0.23921,-0.23248 -0.48028,-0.57809 -0.84495,-0.42277 -0.72223,0.8604 0.0311,-0.0628 2.42829,-1.33052 0.0549,-0.0291 -0.0737,0.10147 -0.0976,0.15885 -0.12036,0.28967 -0.12266,0.63256 -0.1474,0.9388 -0.056,0.66489 -0.0246,1.32064 0.15428,1.9633 0.2018,0.47954 0.31361,0.40308 0.72705,0.26619 0.96327,-0.63244 -0.13936,0.0961 -2.31855,1.30455 -0.0594,0.033 0.11391,-0.0759 0.16196,-0.12396 0.16335,-0.1634 0.23185,-0.37266 0.30302,-0.58511 0.11145,-0.51215 0.1627,-1.04372 0.0572,-1.55966 -0.0277,-0.0633 -0.048,-0.13038 -0.083,-0.18994 -0.0217,-0.0367 -0.14626,-0.21178 -0.22434,-0.20966 -0.0378,0.001 -0.11986,0.0914 -0.0864,0.0738 2.53608,-1.33385 3.28523,-2.0266 2.42364,-1.25227 -0.25731,0.5562 -0.29538,1.20401 -0.26737,1.80974 0,0 -2.70626,1.39544 -2.70626,1.39544 v 0 c -0.033,-0.65462 0.0322,-1.32012 0.17127,-1.96017 0.45349,-1.44104 2.90507,-2.74288 3.46085,-1.11293 0.13613,0.55634 0.0933,1.12525 0.0103,1.68893 -0.29948,1.51842 -1.76882,2.22937 -3.34941,2.57752 -0.5215,0.0558 -0.78619,-0.18754 -0.96338,-0.66573 -0.17394,-0.67663 -0.22087,-1.36636 -0.17036,-2.0641 0.0584,-1.68195 0.17422,-2.73125 2.99627,-2.95083 0.43802,0.0795 0.73157,0.36928 1.0028,0.70836 0.3161,0.5011 0.5344,1.06812 0.53062,1.66782 -0.0436,0.56084 -0.10623,1.13709 -0.38338,1.63769 -0.57018,1.17433 -0.0906,0.28476 -2.87851,1.87828 -0.25477,0.14561 -0.6141,-0.0626 -0.81891,-0.19208 -0.45942,-0.4142 -0.6635,-0.96077 -0.67202,-1.57873 0.0167,-0.60499 0.0385,-1.21849 0.20172,-1.8049 0.0233,-0.0584 0.23702,-0.59003 0.26996,-0.61018 0.90707,-0.55481 1.97307,-1.83296 3.15182,-1.52078 0.40254,0.16562 0.67268,0.44828 0.9104,0.81002 0.31711,0.51661 0.55523,1.05318 0.63969,1.66056 0.0445,0.54108 0.0156,1.09215 -0.1269,1.61829 -0.43735,1.31472 -2.2584,2.47692 -3.54653,1.87367 -0.46825,-0.35654 -0.7521,-0.84592 -0.91024,-1.41178 -0.14335,-0.5511 -0.27535,-1.10384 -0.37044,-1.66541 0,0 2.72303,-1.45587 2.72303,-1.45587 z"
       inkscape:connector-curvature="0" />
    <path
       style="opacity:0.54100001;fill:#28220b;fill-opacity:1;fill-rule:nonzero;stroke:none;stroke-width:1.57199991;stroke-linecap:butt;stroke-linejoin:bevel;stroke-miterlimit:4;stroke-dasharray:none;stroke-dashoffset:0;stroke-opacity:1;paint-order:normal"
       id="path1002"
       d="m 346.62133,132.99525 c 1.0336,-0.85535 2.22978,-1.27136 3.36074,-1.89202 0.39047,-0.21429 0.67546,-0.36784 0.64461,-0.34997 -0.73737,0.4268 -1.47855,0.84696 -2.21782,1.27044 0.83944,-0.4758 1.59692,-1.06643 2.33376,-1.68461 0.65338,-0.59182 1.31196,-1.17757 1.9718,-1.76208 0.49324,-0.46041 0.97896,-0.93009 1.41523,-1.44538 0.35822,-0.41793 0.6635,-0.87759 0.95631,-1.34264 0.24728,-0.37213 0.47845,-0.75535 0.73054,-1.12423 0,0 2.81237,-1.23231 2.81237,-1.23231 v 0 c -0.24199,0.38052 -0.49938,0.75252 -0.75753,1.12331 -0.28035,0.4815 -0.58727,0.95314 -0.93972,1.38489 -0.43691,0.53566 -0.92247,1.02359 -1.42701,1.4963 -0.65137,0.60634 -1.35276,1.159 -1.98953,1.78231 -0.73578,0.61506 -1.46058,1.24343 -2.29881,1.72027 -0.9803,0.56921 -1.9591,1.14104 -2.94095,1.70763 -0.31072,0.17931 -0.63079,0.34533 -0.94874,0.51136 -0.088,0.046 -0.35004,0.18786 -0.26434,0.13761 0.8093,-0.4745 1.62364,-0.94037 2.43546,-1.41056 0,0 -2.87637,1.10968 -2.87637,1.10968 z"
       inkscape:connector-curvature="0" />
    <path
       style="opacity:0.54100001;fill:#28220b;fill-opacity:1;fill-rule:nonzero;stroke:none;stroke-width:1.57199991;stroke-linecap:butt;stroke-linejoin:bevel;stroke-miterlimit:4;stroke-dasharray:none;stroke-dashoffset:0;stroke-opacity:1;paint-order:normal"
       id="path1006"
       d="m 355.0758,151.47712 c -0.39378,-0.1979 -0.82581,-0.28164 -1.2597,-0.3318 -0.54322,-0.0347 -1.09297,-0.0826 -1.63452,-0.0144 -0.59426,0.0688 -1.16893,0.26197 -1.73223,0.45752 -0.96853,0.41264 -2.49388,1.30293 1.70606,-1.03252 0.10996,-0.0611 -0.21428,0.13209 -0.3176,0.20388 -0.23141,0.16082 -0.41151,0.31463 -0.63029,0.4928 -0.64487,0.54907 -1.2114,1.17943 -1.74229,1.83708 -0.55173,0.67667 -0.93226,1.45454 -1.28312,2.2471 -0.27368,0.6272 -0.45699,1.2864 -0.65146,1.94056 -0.15216,0.37089 -0.20963,0.76857 -0.32498,1.14983 0,0 -2.78265,1.31128 -2.78265,1.31128 v 0 c 0.12964,-0.38626 0.19312,-0.78621 0.34523,-1.16657 0.2536,-0.64987 0.38512,-1.34703 0.68302,-1.98261 0.34898,-0.80812 0.70421,-1.61371 1.24788,-2.31515 0.51937,-0.67719 1.08701,-1.31459 1.71352,-1.89524 0.20508,-0.17099 0.40013,-0.35417 0.61105,-0.5179 1.15234,-0.89455 2.4587,-1.62155 3.8244,-2.13607 0.58145,-0.1858 1.16975,-0.36587 1.78297,-0.40423 0.56052,-0.022 1.12366,-0.002 1.68106,0.0626 0.4441,0.0698 0.86683,0.20374 1.29706,0.32854 0,0 -2.53341,1.76531 -2.53341,1.76531 z"
       inkscape:connector-curvature="0" />
    <path
       style="fill:#abc837;stroke:none;stroke-width:0.26458332px;stroke-linecap:butt;stroke-linejoin:miter;stroke-opacity:1"
       d="m 92.290734,232.09044 c -3.843721,4.12806 -4.237901,8.4476 -3.434201,12.36315 0.803691,3.91555 3.335081,4.4414 8.928941,7.55525 5.593856,3.11385 16.833736,8.35223 25.413136,8.2421 8.57942,-0.11013 19.92948,-4.12815 29.53419,-6.86842 9.6047,-2.74027 15.11052,-4.12104 26.09998,-3.4342 10.98947,0.68684 13.22385,-0.80399 26.78682,2.74737 13.56297,3.55136 32.9684,10.98946 45.33155,8.24209 12.36316,-2.74736 19.972,-5.75876 26.78681,-8.92894 6.81481,-3.17018 12.05032,-4.14556 20.60526,-4.12105 8.55494,0.0245 20.37759,2.16733 29.53418,4.12105 9.15659,1.95372 17.51524,4.31923 30.22104,6.18158 12.70579,1.86235 36.30284,6.30594 46.0184,4.12105 9.71552,-2.18489 18.02881,-0.85176 31.59469,-4.12105 13.5659,-3.26929 30.43965,3.75683 50.13946,1.37368 19.69982,-2.38315 40.23316,-2.11814 46.70523,-14.42367 6.47206,-12.30553 -3.48391,-12.88237 -13.73684,-24.03946 -10.25298,-11.15709 -21.2445,9.86136 -38.46314,9.61578 -17.21866,-0.24558 -32.51201,-7.08531 -47.39204,-3.4342 -41.36277,-0.781 -37.42895,5.40719 -63.8763,3.4342 -12.29058,-4.64972 -41.89732,-6.18157 -41.89732,-6.18157 0,0 -19.74851,-6.99764 -34.34211,-7.55526 -14.5936,-0.55762 -24.46989,6.81655 -35.02891,8.92894 -10.55902,2.11239 -17.31703,4.56311 -28.1605,4.12105 -10.84347,-0.44206 -22.6173,-7.3977 -35.71577,-8.2421 -13.09846,-0.8444 -25.41919,1.49375 -36.4026,3.43421 -10.9834,1.94046 -22.50033,7.98564 -29.53418,6.86842 -7.03385,-1.11722 -13.73682,-5.49473 -16.48419,-5.49473 -2.74736,0 -15.387866,1.36667 -19.231586,5.49473 z"
       id="path954-1"
       inkscape:connector-curvature="0"
       sodipodi:nodetypes="zzzzzzzzzzzzzzzzzzccczzzzzzzz" />
    <path
       style="fill:#784421;fill-opacity:1;stroke:none;stroke-width:0.26458332px;stroke-linecap:butt;stroke-linejoin:miter;stroke-opacity:1"
       d="m 453.31546,226.87155 c 0,0 27.71024,2.4559 35.02893,0.68684 7.31869,-1.76906 13.08014,-0.0418 11.67629,-2.06052 -1.40385,-2.01878 -10.80773,-5.68298 -16.32311,-7.18915 -5.51538,-1.50617 -9.40683,0.27316 -13.89793,2.38125 -4.4911,2.10809 -16.48418,6.18158 -16.48418,6.18158 z"
       id="path1031"
       inkscape:connector-curvature="0"
       sodipodi:nodetypes="czzzzc" />
    <path
       style="fill:#e5ff80;stroke:none;stroke-width:0.29999742px;stroke-linecap:butt;stroke-linejoin:miter;stroke-opacity:1"
       d="m 500.13103,224.4703 c 4.72233,-1.59593 13.36929,-5.34356 18.77441,-5.70271 5.40511,-0.35915 12.14202,1.93277 12.14202,1.93277 0,0 -4.17264,-3.11444 -7.30474,-4.20969 -3.13206,-1.09527 -8.057,-1.99986 -11.26653,-1.84337 -3.20955,0.1565 -7.35563,1.97595 -7.35563,1.97595 z"
       id="path1094-5"
       inkscape:connector-curvature="0"
       sodipodi:nodetypes="czczzcc"
       inkscape:transform-center-x="-4.1209106"
       inkscape:transform-center-y="-5.2610631" />
    <path
       style="fill:#e5ff80;stroke:none;stroke-width:0.28208038px;stroke-linecap:butt;stroke-linejoin:miter;stroke-opacity:1"
       d="m 477.65234,216.18315 c 3.03044,-3.59762 8.20283,-10.87524 12.34098,-13.76605 4.13812,-2.8908 10.54578,-4.20337 10.54578,-4.20337 0,0 -4.74199,-0.60412 -7.73456,-0.0187 -2.99256,0.58536 -7.32509,2.18943 -9.80819,3.85851 -2.48312,1.6691 -4.95293,5.17743 -4.95293,5.17743 z"
       id="path1094-5-7"
       inkscape:connector-curvature="0"
       sodipodi:nodetypes="czczzcc"
       inkscape:transform-center-x="-2.2644286"
       inkscape:transform-center-y="-3.9729918" />
    <path
       style="fill:#e5ff80;stroke:none;stroke-width:0.30730197px;stroke-linecap:butt;stroke-linejoin:miter;stroke-opacity:1"
       d="m 381.57997,231.57357 c 1.70352,-3.90197 4.16774,-11.94709 7.28232,-14.81246 3.11457,-2.86537 9.17089,-3.44848 9.17089,-3.44848 0,0 -5.0963,-1.48762 -7.93555,-1.24892 -2.83925,0.23865 -6.65481,1.5058 -8.54929,3.14532 -1.89447,1.63954 -3.05816,5.52162 -3.05816,5.52162 z"
       id="path1094-5-1"
       inkscape:connector-curvature="0"
       sodipodi:nodetypes="czczzcc"
       inkscape:transform-center-x="0.71947095"
       inkscape:transform-center-y="-4.951109" />
  </g>
  <g
     inkscape:groupmode="layer"
     id="layer5"
     inkscape:label="stonoga 1"
     style="display:inline"
     sodipodi:insensitive="true">
    <path
       style="opacity:0.54100001;fill:#784421;fill-opacity:1;fill-rule:nonzero;stroke:none;stroke-width:1.57199991;stroke-linecap:butt;stroke-linejoin:bevel;stroke-miterlimit:4;stroke-dasharray:none;stroke-dashoffset:0;stroke-opacity:1;paint-order:normal"
       id="path1050"
       d="m 186.51071,221.74591 c -1.62213,0.33611 -3.10762,1.05699 -4.5605,1.82846 -1.44108,0.88823 -2.83793,1.81453 -4.04301,3.00684 -0.73585,0.86227 -1.65092,1.58319 -2.36206,2.46609 -0.0439,0.0545 -0.99468,1.49029 -1.01627,1.52283 -0.81355,1.49569 -1.68595,2.9662 -2.25635,4.57564 -0.42977,1.56224 -0.83667,3.11002 -1.02611,4.72383 -0.13268,1.41032 -0.12903,2.82842 -0.13052,4.24352 0.02,-9.60057 -0.43268,-12.51403 0.10202,-8.84467 0,0 -1.39067,10.05201 -1.39067,10.05201 v 0 c -1.00424,-4.01679 -0.14272,-0.38172 -0.28712,-11.20363 0.0192,-1.41855 0.0496,-2.84199 0.27242,-4.2462 0.28717,-1.61568 0.72182,-3.20146 1.26355,-4.7504 0.71146,-1.57529 1.54412,-3.09811 2.47871,-4.55228 1.04454,-1.48282 2.2884,-2.79088 3.59341,-4.04848 1.31331,-1.16912 2.80888,-2.11041 4.32256,-2.99829 1.56082,-0.78398 3.15262,-1.49209 4.83877,-1.96493 0,0 0.20117,10.18966 0.20117,10.18966 z"
       inkscape:connector-curvature="0" />
    <path
       style="opacity:0.54100001;fill:#784421;fill-opacity:1;fill-rule:nonzero;stroke:none;stroke-width:1.57199991;stroke-linecap:butt;stroke-linejoin:bevel;stroke-miterlimit:4;stroke-dasharray:none;stroke-dashoffset:0;stroke-opacity:1;paint-order:normal"
       id="path1052"
       d="m 166.2148,223.27543 c -1.41721,0.70143 -2.58614,1.80106 -3.57845,3.01628 -1.01924,1.03358 -1.84595,2.24392 -2.50685,3.53268 -0.63086,1.44583 -1.09696,2.95447 -1.73862,4.39733 -0.56519,1.36823 -0.80406,2.81619 -1.26009,4.21726 -0.34531,1.19069 -0.38351,2.43538 -0.41899,3.6658 -0.022,1.12465 -0.0173,2.2496 -0.0152,3.3744 0,0 -1.5831,-9.99665 -1.5831,-9.99665 v 0 c 0.003,-1.13021 0.003,-2.26117 0.0633,-3.39011 0.0884,-1.26069 0.24277,-2.51653 0.67798,-3.71202 0.4361,-1.39406 0.69632,-2.84555 1.35403,-4.16603 0.58209,-1.49577 1.08672,-3.03113 1.8547,-4.44573 0.78324,-1.26776 1.65415,-2.46893 2.72147,-3.51728 1.14099,-1.19464 2.38735,-2.24771 3.77425,-3.14864 0,0 0.65552,10.17271 0.65552,10.17271 z"
       inkscape:connector-curvature="0" />
    <path
       style="opacity:0.54100001;fill:#784421;fill-opacity:1;fill-rule:nonzero;stroke:none;stroke-width:1.57199991;stroke-linecap:butt;stroke-linejoin:bevel;stroke-miterlimit:4;stroke-dasharray:none;stroke-dashoffset:0;stroke-opacity:1;paint-order:normal"
       id="path1056"
       d="m 245.57908,227.24064 c -1.56128,0.35494 -2.91851,1.13643 -4.16767,2.10985 -1.48503,1.27381 -2.38946,3.11104 -3.31806,4.80575 -1.22832,2.41462 -1.83573,4.99612 -2.17372,7.66366 -0.10644,1.26439 -0.13224,1.41951 -0.18833,2.6687 -0.0189,0.42199 -0.0427,1.68897 -0.0421,1.26655 0.0224,-15.61254 -0.14172,-9.57669 0.28838,-6.02123 0.0692,0.43798 0.13833,0.87596 0.2075,1.31394 0,0 -1.39625,9.85192 -1.39625,9.85192 v 0 c -0.0746,-0.4368 -0.14929,-0.87359 -0.22393,-1.31038 -1.01544,-5.79229 -0.66307,-11.7761 -0.0566,-17.60697 0.45185,-2.7046 1.20519,-5.32419 2.52313,-7.74749 1.00848,-1.81259 2.02431,-3.69279 3.73694,-4.94125 1.40874,-0.99893 2.95623,-1.73437 4.60952,-2.24271 0,0 0.20116,10.18966 0.20116,10.18966 z"
       inkscape:connector-curvature="0" />
    <path
       style="opacity:0.54100001;fill:#784421;fill-opacity:1;fill-rule:nonzero;stroke:none;stroke-width:1.57199991;stroke-linecap:butt;stroke-linejoin:bevel;stroke-miterlimit:4;stroke-dasharray:none;stroke-dashoffset:0;stroke-opacity:1;paint-order:normal"
       id="path1058"
       d="m 260.99893,224.64911 c -1.32687,0.98136 -2.49252,2.16034 -3.71552,3.26909 -1.19205,1.25046 -2.22942,2.57856 -3.14335,4.03788 -1.12881,1.91281 -1.9022,4.02152 -2.52465,6.14812 -1.05013,3.8334 -0.82644,16.07233 -0.73114,-0.62485 0.004,2.77652 0.47389,5.50896 1.13071,8.19644 0,0 -1.30258,9.82915 -1.30258,9.82915 v 0 c -0.73893,-2.70951 -1.27336,-5.48894 -1.34848,-8.30423 -0.0121,-6.20073 -0.62696,-12.86037 0.99,-18.99156 0.72002,-2.17029 1.54031,-4.32432 2.78222,-6.25788 0.97585,-1.48431 2.1262,-2.84288 3.40579,-4.07638 1.25822,-1.14299 2.48606,-2.32068 3.80149,-3.39848 0,0 0.65551,10.1727 0.65551,10.1727 z"
       inkscape:connector-curvature="0" />
    <path
       style="opacity:0.54100001;fill:#784421;fill-opacity:1;fill-rule:nonzero;stroke:none;stroke-width:1.57199991;stroke-linecap:butt;stroke-linejoin:bevel;stroke-miterlimit:4;stroke-dasharray:none;stroke-dashoffset:0;stroke-opacity:1;paint-order:normal"
       id="path1060"
       d="m 292.03377,217.23307 c -1.31752,1.55076 -2.54481,3.21866 -3.5283,5.00291 -1.34874,2.39878 -1.93545,5.05399 -2.31695,7.74975 -0.0515,0.54504 -0.12912,1.08824 -0.15463,1.63511 -0.0257,0.55109 -0.007,2.20672 0,1.65509 0.0399,-2.67478 -0.0602,-5.35404 0.0938,-8.02467 0.0312,-0.54074 0.16118,1.07201 0.27665,1.6012 0.10572,0.48473 0.25749,0.95826 0.38624,1.4374 0,0 -1.27577,9.81783 -1.27577,9.81783 v 0 c -0.13407,-0.44276 -0.84408,-2.70317 -0.86164,-3.12035 -0.20492,-4.86358 -0.47369,-9.90344 0.14115,-14.78763 0.48279,-2.76722 1.20907,-5.47671 2.6725,-7.90638 1.11898,-1.7959 2.35945,-3.51108 3.65636,-5.18276 0,0 0.90945,10.1225 0.90945,10.1225 z"
       inkscape:connector-curvature="0" />
    <path
       style="opacity:0.54100001;fill:#784421;fill-opacity:1;fill-rule:nonzero;stroke:none;stroke-width:1.57199991;stroke-linecap:butt;stroke-linejoin:bevel;stroke-miterlimit:4;stroke-dasharray:none;stroke-dashoffset:0;stroke-opacity:1;paint-order:normal"
       id="path1062"
       d="m 298.31474,216.47783 c -1.0079,1.46153 -1.74728,3.0492 -2.2357,4.75437 -0.95639,2.76993 -1.63825,5.60782 -2.09762,8.49991 -0.0709,0.63975 -0.15385,1.27829 -0.2128,1.91926 -0.0644,0.70022 -0.13007,1.401 -0.15722,2.10364 -0.0292,0.75631 -0.0354,3.02711 -0.0119,2.2706 0.074,-2.37606 -0.0801,-4.76503 0.16311,-7.12977 0.0783,-0.76157 0.19526,1.51953 0.3365,2.27198 0.12597,0.67109 0.30967,1.33005 0.4645,1.99507 0,0 -1.29278,9.66259 -1.29278,9.66259 v 0 c -0.29067,-1.12762 -0.89077,-3.23534 -0.94189,-4.38076 -0.27355,-6.12848 -0.58433,-12.34339 0.27784,-18.44412 0.52951,-2.95242 1.25473,-5.85681 2.21766,-8.6998 0.63793,-1.75941 1.47008,-3.43633 2.54629,-4.97298 0,0 0.94393,10.15001 0.94393,10.15001 z"
       inkscape:connector-curvature="0" />
    <path
       style="opacity:0.54100001;fill:#784421;fill-opacity:1;fill-rule:nonzero;stroke:none;stroke-width:1.57199991;stroke-linecap:butt;stroke-linejoin:bevel;stroke-miterlimit:4;stroke-dasharray:none;stroke-dashoffset:0;stroke-opacity:1;paint-order:normal"
       id="path1074"
       d="m 476.66719,228.77016 c -1.65693,1.10913 -2.87578,2.70277 -4.146,4.20945 -2.29417,2.9471 -3.50657,6.42028 -4.33988,10.0125 -1.02721,3.54219 -0.99763,19.18299 -0.76033,2.51708 0,0 -1.47,9.59892 -1.47,9.59892 v 0 c -0.0765,-7.26879 -0.59113,-14.56936 0.94541,-21.72629 0.96695,-3.71068 2.31786,-7.29906 4.75253,-10.32127 1.32387,-1.61384 2.69536,-3.18924 4.36276,-4.46309 0,0 0.65551,10.1727 0.65551,10.1727 z"
       inkscape:connector-curvature="0" />
    <path
       style="opacity:0.54100001;fill:#784421;fill-opacity:1;fill-rule:nonzero;stroke:none;stroke-width:1.57199991;stroke-linecap:butt;stroke-linejoin:bevel;stroke-miterlimit:4;stroke-dasharray:none;stroke-dashoffset:0;stroke-opacity:1;paint-order:normal"
       id="path1076"
       d="m 481.22956,229.59165 c -1.26093,2.27232 -1.6986,4.80227 -2.01771,7.34726 -0.0528,0.62333 -0.13126,1.24502 -0.15833,1.86999 -0.0284,0.65622 -0.0183,2.62724 -0.008,1.97049 0.0394,-2.50549 -0.0863,-5.01759 0.0952,-7.51681 0.0534,-0.73498 0.15399,1.46747 0.29157,2.19142 0.33642,1.77029 0.60746,2.34051 1.19716,4.00183 0.24342,0.51397 0.48683,1.02795 0.73028,1.54193 0,0 -1.0957,9.77426 -1.0957,9.77426 v 0 c -0.27268,-0.54233 -0.54533,-1.08465 -0.81798,-1.62698 -0.61526,-1.58978 -0.98457,-2.38969 -1.38465,-4.07213 -1.38318,-5.8169 -0.69564,-11.95577 -0.25357,-17.87021 0.41042,-2.67778 1.07809,-5.25373 2.21213,-7.72441 0,0 1.20951,10.11336 1.20951,10.11336 z"
       inkscape:connector-curvature="0" />
    <path
       style="fill:#e5ff80;stroke:none;stroke-width:0.26458332px;stroke-linecap:butt;stroke-linejoin:miter;stroke-opacity:1"
       d="m 149.73147,226.87155 c -2.06053,3.4342 -6.65185,9.61505 -7.55526,13.73683 -0.90341,4.12178 0.68684,9.61578 0.68684,9.61578 0,0 -2.66543,-3.62346 -3.4342,-6.18157 -0.76877,-2.55811 -1.16701,-6.47406 -0.68685,-8.92895 0.48016,-2.45489 2.70396,-5.41558 2.70396,-5.41558 z"
       id="path1094"
       inkscape:connector-curvature="0"
       sodipodi:nodetypes="czczzcc" />
    <path
       style="fill:#e5ff80;stroke:none;stroke-width:0.26458332px;stroke-linecap:butt;stroke-linejoin:miter;stroke-opacity:1"
       d="m 283.76993,217.25577 c -2.06053,3.4342 -6.65185,9.61505 -7.55526,13.73683 -0.90341,4.12178 0.68684,9.61578 0.68684,9.61578 0,0 -2.66543,-3.62346 -3.4342,-6.18157 -0.76877,-2.55811 -1.16701,-6.47406 -0.68685,-8.92895 0.48016,-2.45489 2.70396,-5.41558 2.70396,-5.41558 z"
       id="path1094-4"
       inkscape:connector-curvature="0"
       sodipodi:nodetypes="czczzcc" />
    <path
       style="fill:#e5ff80;stroke:none;stroke-width:0.33121207px;stroke-linecap:butt;stroke-linejoin:miter;stroke-opacity:1"
       d="m 415.16295,225.33511 c -3.67958,4.43937 -11.30012,12.34236 -13.94177,17.82525 -2.64166,5.48289 -3.00346,13.06647 -3.00346,13.06647 0,0 -1.58908,-5.1609 -1.45264,-8.69474 0.13645,-3.53386 1.22557,-8.86673 2.73346,-12.138 1.50788,-3.27124 5.1859,-7.05444 5.1859,-7.05444 z"
       id="path1094-0"
       inkscape:connector-curvature="0"
       sodipodi:nodetypes="czczzcc" />
  </g>
</svg>
