<?xml version="1.0" encoding="UTF-8" standalone="no"?>
<!-- Created with Inkscape (http://www.inkscape.org/) -->

<svg
   xmlns:dc="http://purl.org/dc/elements/1.1/"
   xmlns:cc="http://creativecommons.org/ns#"
   xmlns:rdf="http://www.w3.org/1999/02/22-rdf-syntax-ns#"
   xmlns:svg="http://www.w3.org/2000/svg"
   xmlns="http://www.w3.org/2000/svg"
   xmlns:xlink="http://www.w3.org/1999/xlink"
   xmlns:sodipodi="http://sodipodi.sourceforge.net/DTD/sodipodi-0.dtd"
   xmlns:inkscape="http://www.inkscape.org/namespaces/inkscape"
   width="2300"
   height="1156"
   viewBox="0 0 608.54165 305.85834"
   version="1.1"
   id="svg3538"
   inkscape:version="0.92.3 (2405546, 2018-03-11)"
   sodipodi:docname="słonik.svg">
  <defs
     id="defs3532">
    <linearGradient
       inkscape:collect="always"
       id="linearGradient4429">
      <stop
         style="stop-color:#916f6f;stop-opacity:1"
         offset="0"
         id="stop4425" />
      <stop
         style="stop-color:#c8b7b7;stop-opacity:1"
         offset="1"
         id="stop4427" />
    </linearGradient>
    <linearGradient
       inkscape:collect="always"
       id="linearGradient4415">
      <stop
         style="stop-color:#c8b7b7;stop-opacity:1"
         offset="0"
         id="stop4411" />
      <stop
         style="stop-color:#ac9393;stop-opacity:1"
         offset="1"
         id="stop4413" />
    </linearGradient>
    <linearGradient
       inkscape:collect="always"
       id="linearGradient4119">
      <stop
         style="stop-color:#e3dbdb;stop-opacity:1;"
         offset="0"
         id="stop4115" />
      <stop
         style="stop-color:#e3dbdb;stop-opacity:0;"
         offset="1"
         id="stop4117" />
    </linearGradient>
    <radialGradient
       inkscape:collect="always"
       xlink:href="#linearGradient4119"
       id="radialGradient4121"
       cx="326.28792"
       cy="135.64076"
       fx="326.28792"
       fy="135.64076"
       r="26.061829"
       gradientTransform="matrix(1.3241131,0,0,1.0633012,-127.80462,10.172924)"
       gradientUnits="userSpaceOnUse" />
    <radialGradient
       inkscape:collect="always"
       xlink:href="#linearGradient4119"
       id="radialGradient4121-8"
       cx="326.28793"
       cy="135.64076"
       fx="326.28793"
       fy="135.64076"
       r="26.061829"
       gradientTransform="matrix(1.2292804,-0.65814057,0.60694506,0.76932238,-245.67038,283.7748)"
       gradientUnits="userSpaceOnUse" />
    <linearGradient
       inkscape:collect="always"
       xlink:href="#linearGradient4415"
       id="linearGradient4423"
       gradientUnits="userSpaceOnUse"
       x1="290.87741"
       y1="335.0491"
       x2="272.33267"
       y2="-31.037485"
       gradientTransform="matrix(0.89012727,0,0,0.89012727,20.830558,32.745297)" />
    <linearGradient
       inkscape:collect="always"
       xlink:href="#linearGradient4429"
       id="linearGradient4431"
       x1="272.33267"
       y1="-31.037485"
       x2="290.87741"
       y2="335.0491"
       gradientUnits="userSpaceOnUse"
       gradientTransform="matrix(0.89012727,0,0,0.89012727,20.830558,32.745297)" />
  </defs>
  <sodipodi:namedview
     id="base"
     pagecolor="#ffffff"
     bordercolor="#666666"
     borderopacity="1.0"
     inkscape:pageopacity="0.0"
     inkscape:pageshadow="2"
     inkscape:zoom="0.38521739"
     inkscape:cx="1150"
     inkscape:cy="578"
     inkscape:document-units="mm"
     inkscape:current-layer="layer29"
     showgrid="false"
     units="px"
     showguides="false"
     inkscape:snap-global="false"
     inkscape:window-width="1366"
     inkscape:window-height="705"
     inkscape:window-x="-8"
     inkscape:window-y="-8"
     inkscape:window-maximized="1" />
  <metadata
     id="metadata3535">
    <rdf:RDF>
      <cc:Work
         rdf:about="">
        <dc:format>image/svg+xml</dc:format>
        <dc:type
           rdf:resource="http://purl.org/dc/dcmitype/StillImage" />
        <dc:title></dc:title>
      </cc:Work>
    </rdf:RDF>
  </metadata>
  <g
     inkscape:groupmode="layer"
     id="layer25"
     inkscape:label="Layer 4">
    <path
       style="display:inline;fill:#ac9393;stroke:none;stroke-width:0.23551282px;stroke-linecap:butt;stroke-linejoin:miter;stroke-opacity:1"
       d="m 303.96988,64.897177 c 7.45218,-10.117525 19.99869,-10.104212 29.96975,-11.438251 9.97107,-1.334037 29.01682,13.906755 32.72768,13.662837 3.71084,-0.243918 20.8877,24.361799 25.92713,43.521997 5.03944,19.16021 6.83688,50.92039 -1.56112,68.19376 -8.39801,17.27337 -22.83694,26.86848 -36.3117,29.88517 -13.47477,3.0167 -32.69516,-5.50611 -34.72458,-8.79742 -2.02942,-3.2913 -6.11426,-39.3851 -6.07849,-41.90562 0.0358,-2.52051 -1.43765,10.40572 -10.18613,-3.25878 -8.74847,-13.66449 -7.21473,-79.746166 0.23746,-89.863693 z"
       id="path4177-5"
       inkscape:connector-curvature="0"
       sodipodi:nodetypes="zzzzzzzzzz" />
  </g>
  <g
     inkscape:groupmode="layer"
     id="layer28"
     inkscape:label="Layer 6">
    <path
       style="display:inline;fill:url(#linearGradient4431);fill-opacity:1;stroke:url(#linearGradient4423);stroke-width:0.25519824px;stroke-linecap:butt;stroke-linejoin:miter;stroke-opacity:1"
       d="m 206.99468,170.17932 -31.79158,20.81772 -18.34128,63.88883 -0.61139,27.99624 235.37994,0.71785 c 0,0 -17.21399,-50.47375 -19.56405,-61.01743 -0.69223,-3.10573 -34.84846,-50.96749 -34.84846,-50.96749 l -72.7538,-15.79276 z"
       id="path4393"
       inkscape:connector-curvature="0"
       sodipodi:nodetypes="cccccsccc" />
  </g>
  <g
     inkscape:groupmode="layer"
     id="layer26"
     inkscape:label="Layer 5"
     style="display:inline">
    <path
       style="display:inline;fill:#c8b7b7;stroke:none;stroke-width:0.23551282px;stroke-linecap:butt;stroke-linejoin:miter;stroke-opacity:1"
       d="m 181.11356,83.413299 c -9.56892,-8.144649 -21.77973,-5.261773 -31.79158,-4.279637 -10.01185,0.982137 -25.06643,20.175421 -28.73469,20.786799 -3.66826,0.611379 -14.76133,28.493799 -15.2844,48.298739 -0.52308,19.80495 4.99203,51.13423 17.11852,66.02865 12.12651,14.89442 28.37742,20.93234 42.18498,20.78681 13.80756,-0.14554 30.56884,-12.83891 31.79159,-16.50716 1.22276,-3.66825 -3.0569,-39.73948 -3.66827,-42.18499 -0.61138,-2.4455 3.77978,9.80099 9.17065,-5.50238 5.39088,-15.30336 -11.21789,-79.282182 -20.7868,-87.426831 z"
       id="path4177-89"
       inkscape:connector-curvature="0"
       sodipodi:nodetypes="zzzzzzzzzz" />
    <path
       style="display:inline;fill:#ffd5d5;stroke:none;stroke-width:0.19887657px;stroke-linecap:butt;stroke-linejoin:miter;stroke-opacity:1"
       d="m 183.63814,98.440566 c -8.08038,-6.877672 -18.39169,-4.443255 -26.8461,-3.613899 -8.45441,0.829355 -21.16711,17.036943 -24.26474,17.553213 -3.09762,0.51627 -12.46506,24.06132 -12.90677,40.78541 -0.44171,16.7241 4.21547,43.17982 14.45558,55.75728 10.24011,12.57744 23.96304,17.67611 35.6227,17.55321 11.65967,-0.12289 25.81357,-10.84169 26.84611,-13.93931 1.03255,-3.09762 -2.58136,-33.55762 -3.09764,-35.62271 -0.51627,-2.06508 3.19181,8.27635 7.74409,-4.64644 4.55226,-12.92278 -9.47285,-66.94908 -17.55323,-73.826754 z"
       id="path4177-8-3"
       inkscape:connector-curvature="0"
       sodipodi:nodetypes="zzzzzzzzzz" />
    <path
       style="display:inline;fill:#ffd5d5;stroke:none;stroke-width:0.19887657px;stroke-linecap:butt;stroke-linejoin:miter;stroke-opacity:1"
       d="m 308.87414,76.300145 c 6.79697,-8.148379 17.37176,-7.497889 25.84435,-8.114307 8.47261,-0.616417 23.74977,13.200495 26.89007,13.183973 3.14031,-0.01653 16.36501,21.598879 19.63651,38.005819 3.2715,16.40694 3.16833,43.26925 -4.79047,57.40112 -7.95881,14.13186 -20.6183,21.4839 -32.12992,23.34011 -11.51162,1.85623 -27.27827,-6.307 -28.82117,-9.18465 -1.54291,-2.87764 -3.14697,-33.50931 -2.9884,-35.63203 0.15859,-2.12272 -1.74199,8.69775 -8.41988,-3.26584 -6.67786,-11.9636 -2.01807,-67.585816 4.77891,-75.734195 z"
       id="path4177-8-3-4"
       inkscape:connector-curvature="0"
       sodipodi:nodetypes="zzzzzzzzzz" />
    <path
       style="fill:#e3dbdb;fill-opacity:1;stroke:none;stroke-width:0.07300898px;stroke-linecap:butt;stroke-linejoin:miter;stroke-opacity:1"
       d="m 329.57566,292.08587 -1.51622,-6.06486 -5.11721,-2.46384 -8.90776,-2.0848 -3.41148,7.58107 0.18952,3.41148 z"
       id="path4295-1-8"
       inkscape:connector-curvature="0" />
    <path
       style="fill:#e3dbdb;fill-opacity:1;stroke:none;stroke-width:0.07823309px;stroke-linecap:butt;stroke-linejoin:miter;stroke-opacity:1"
       d="m 308.78886,289.59778 -1.56512,-6.74623 -5.2823,-2.74064 -9.19509,-2.31902 -3.52153,8.43278 0.19564,3.79475 z"
       id="path4295-2-1"
       inkscape:connector-curvature="0" />
  </g>
  <g
     inkscape:groupmode="layer"
     id="layer23"
     inkscape:label="Layer 2"
     style="display:inline">
    <path
       style="fill:#c8b7b7;stroke:none;stroke-width:0.23551282px;stroke-linecap:butt;stroke-linejoin:miter;stroke-opacity:1"
       d="m 270.27213,179.05459 c -1.52844,-0.61138 -15.89577,12.83891 -19.56403,12.83891 -3.66827,0 -11.94911,3.87347 -19.56405,3.66826 -7.61494,-0.20521 -23.23229,-3.66826 -25.06643,-6.11377 -1.83413,-2.44551 -5.14154,-18.67936 -10.3934,-28.12331 -5.25186,-9.44396 -17.06585,-14.88523 -21.39818,-27.51195 -4.33233,-12.62672 -6.27097,-31.01664 0,-45.241853 6.27097,-14.225218 20.77562,-24.278537 35.45983,-32.402951 14.68422,-8.124414 47.68738,-14.673035 50.74424,-14.061658 3.05689,0.611376 45.85324,11.004775 47.076,13.450281 1.22276,2.445506 17.11053,27.904132 20.17542,40.350845 3.0649,12.446716 -1e-5,29.346066 0.61137,31.791576 0.61138,2.44551 10.39341,17.11854 10.39341,19.56405 0,2.44551 -1.83413,17.11853 -4.27964,19.56404 -2.44551,2.44551 -25.30861,11.0977 -34.23709,11.61615 -8.92849,0.51846 -11.95302,-3.95434 -17.11853,-3.66826 -5.16551,0.28609 -11.31048,4.89101 -12.83892,4.27964 z"
       id="path4109"
       inkscape:connector-curvature="0"
       sodipodi:nodetypes="zzzzzzzzczzzzzzzz" />
    <path
       style="fill:url(#radialGradient4121);fill-opacity:1;stroke:none;stroke-width:0.36018956px;stroke-linecap:butt;stroke-linejoin:miter;stroke-opacity:1"
       d="m 270.5371,134.04538 c 0,0 29.10259,-6.72925 35.46881,-6.72925 6.36615,0 19.09854,-1.92266 22.73638,0.96133 3.63782,2.88395 10.00402,24.99435 10.00402,24.99435 l -10.00402,27.87833 c 0,0 -27.28368,0.96133 -30.92153,0.96133 -3.63779,0 -25.46473,-14.41984 -27.28366,-19.22643 -1.81892,-4.80662 0,-28.83966 0,-28.83966 z"
       id="path4113"
       inkscape:connector-curvature="0" />
    <path
       style="fill:url(#radialGradient4121-8);fill-opacity:1;stroke:none;stroke-width:0.35206971px;stroke-linecap:butt;stroke-linejoin:miter;stroke-opacity:1"
       d="m 194.85002,175.40654 c 0,0 23.17711,-19.33399 29.0874,-22.49827 5.91021,-3.16425 16.63322,-10.88388 21.65673,-10.60542 5.02347,0.27847 23.5546,13.11158 23.5546,13.11158 l 6.62577,25.14302 c 0,0 -24.78089,14.25669 -28.1582,16.06485 -3.37726,1.80814 -31.87197,2.22398 -36.30428,-0.34962 -4.43233,-2.57361 -16.46202,-20.86614 -16.46202,-20.86614 z"
       id="path4113-3"
       inkscape:connector-curvature="0" />
    <path
       style="fill:#c8b7b7;stroke:none;stroke-width:0.23551282px;stroke-linecap:butt;stroke-linejoin:miter;stroke-opacity:1"
       d="m 289.83618,141.14925 c -7.08847,-1.89814 -18.40058,-2.6657 -25.6778,0 -7.27722,2.6657 -9.92105,9.60458 -12.83891,15.89578 -2.91785,6.29121 2.44551,18.3413 3.05688,20.78681 0.61138,2.44551 7.50691,7.24499 14.06166,13.45028 6.55474,6.20528 15.15906,10.82197 26.28919,13.45027 11.13014,2.62831 19.39635,4.46607 33.62571,1.83414 14.22936,-2.63194 32.75414,-6.85169 42.79634,-16.50717 10.0422,-9.65547 12.00017,-20.80644 13.45028,-29.95744 1.4501,-9.151 -0.21174,-14.43078 -2.4455,-22.62093 -2.23375,-8.19015 -12.71801,-18.97993 -11.61615,-25.67781 1.10186,-6.69788 5.23494,-8.63328 8.55927,-9.17065 3.32433,-0.53736 4.54527,4.70998 6.72513,3.66826 2.17987,-1.04172 2.1182,-2.68714 1.22277,-6.725137 -0.89543,-4.037997 -5.68866,-11.062175 -10.39342,-14.673034 -4.70476,-3.610859 -11.38871,-7.233367 -16.50717,-6.113764 -5.11845,1.119603 -6.3398,4.755373 -9.782,9.782022 -3.4422,5.026649 -8.17357,10.24991 -9.17066,20.786793 -0.99708,10.53689 13.61122,29.01901 9.17066,39.73947 -4.44056,10.72046 -15.55272,15.50742 -24.45506,15.28441 -8.90234,-0.223 -14.13423,-10.22359 -20.17542,-14.06166 -6.04119,-3.83807 -8.80732,-7.27251 -15.8958,-9.17064 z"
       id="path4111"
       inkscape:connector-curvature="0"
       sodipodi:nodetypes="zzzzzzzzzzzzzzzzzzzzzz" />
    <path
       style="fill:#c8b7b7;fill-opacity:1;stroke:none;stroke-width:0.23551282px;stroke-linecap:butt;stroke-linejoin:miter;stroke-opacity:1"
       d="m 185.90219,276.87481 4.89102,-19.56404 16.50716,-7.9479 28.73469,-6.72513 11.00478,24.45505 -0.61138,11.00478 z"
       id="path4295"
       inkscape:connector-curvature="0" />
    <path
       style="fill:#e3dbdb;fill-opacity:1;stroke:none;stroke-width:0.07300898px;stroke-linecap:butt;stroke-linejoin:miter;stroke-opacity:1"
       d="m 183.45669,280.7754 1.51622,-6.06485 5.11722,-2.46385 8.90775,-2.08479 3.41148,7.58106 -0.18952,3.41149 z"
       id="path4295-1"
       inkscape:connector-curvature="0" />
    <path
       style="fill:#e3dbdb;fill-opacity:1;stroke:none;stroke-width:0.07823309px;stroke-linecap:butt;stroke-linejoin:miter;stroke-opacity:1"
       d="m 204.24349,278.28731 1.56513,-6.74622 5.28229,-2.74065 9.19509,-2.31901 3.52153,8.43278 -0.19564,3.79475 z"
       id="path4295-2"
       inkscape:connector-curvature="0" />
    <path
       style="display:inline;fill:#c8b7b7;fill-opacity:1;stroke:none;stroke-width:0.23551282px;stroke-linecap:butt;stroke-linejoin:miter;stroke-opacity:1"
       d="m 383.98817,277.1805 -4.89102,-19.56404 -16.50716,-7.9479 -28.73469,-6.72513 -11.00478,24.45505 0.61138,11.00478 z"
       id="path4295-4"
       inkscape:connector-curvature="0" />
    <path
       style="display:inline;fill:#e3dbdb;fill-opacity:1;stroke:none;stroke-width:0.07300898px;stroke-linecap:butt;stroke-linejoin:miter;stroke-opacity:1"
       d="m 386.43367,281.08109 -1.51622,-6.06485 -5.11721,-2.46385 -8.90776,-2.08479 -3.41148,7.58106 0.18952,3.41148 z"
       id="path4295-1-3"
       inkscape:connector-curvature="0" />
    <path
       style="display:inline;fill:#e3dbdb;fill-opacity:1;stroke:none;stroke-width:0.07823309px;stroke-linecap:butt;stroke-linejoin:miter;stroke-opacity:1"
       d="m 365.64687,278.593 -1.56513,-6.74622 -5.28229,-2.74065 -9.19509,-2.31901 -3.52153,8.43278 0.19564,3.79474 z"
       id="path4295-2-6"
       inkscape:connector-curvature="0" />
  </g>
  <g
     inkscape:groupmode="layer"
     id="layer24"
     inkscape:label="oczy"
     style="display:inline">
    <path
       style="opacity:1;fill:#000000;fill-opacity:1;fill-rule:nonzero;stroke:none;stroke-width:0.15310188;stroke-linecap:butt;stroke-linejoin:bevel;stroke-miterlimit:4;stroke-dasharray:none;stroke-dashoffset:0;stroke-opacity:1;paint-order:normal"
       id="path4148"
       d="m 247.36362,134.03301 c -0.62684,1.14262 -0.83488,2.4421 -0.98716,3.71959 -0.0668,0.39614 0.54911,1.29239 0.47506,0.21398 -0.56223,-1.58468 -0.0431,-0.58949 -3.74912,0.30622 -0.11177,0.027 0.2523,0.0698 0.34501,0.002 0.18278,-0.13418 0.23872,-0.30422 0.34123,-0.49946 0.35136,-1.06489 0.63975,-2.14734 0.81167,-3.25558 -0.0342,-0.42251 0.2633,-0.97884 0.0597,-1.38918 -0.0722,-0.1455 -0.15126,0.2312 -0.10766,0.59665 0.37915,1.53738 -0.011,0.44593 3.7822,0.13734 0.0693,-0.005 -0.14029,-0.0312 -0.19485,-0.0742 -0.26965,-0.21284 -0.14223,-0.17325 -0.5349,0.032 -0.69072,0.66437 -1.01051,1.47451 -1.19531,2.39322 -0.0224,0.17087 -0.0598,0.34044 -0.0674,0.51261 -0.0291,0.65906 0.23211,-0.20451 0.41383,-0.33677 0.30446,-1.38564 0.20628,-0.51219 -3.36893,0.05 -0.11299,0.0178 0.0746,0.26864 0.18741,0.2874 0.1989,0.0331 0.2838,-0.29102 0.3899,-0.4625 0.42226,-0.73626 0.66603,-1.53034 0.56606,-2.37397 -0.0283,-0.0214 -0.0529,-0.0793 -0.085,-0.0642 -0.0846,0.04 -0.38024,0.74677 -0.34768,0.74691 1.16515,0.005 2.3232,-0.182 3.48481,-0.27301 -0.30641,-0.19873 -0.3029,-0.26653 -0.61304,-0.0302 0,0 -5.55022,-1.60221 -5.55022,-1.60221 v 0 c 0.47933,-0.90954 0.94114,-1.81158 1.85306,-2.36876 1.44814,-0.15129 2.88847,-0.43873 4.34442,-0.45388 0.29242,-0.003 0.53145,0.24731 0.78052,0.40055 1.06821,0.65724 1.71013,1.65775 1.92318,2.88848 0.13848,1.51073 -0.0902,2.97955 -0.67731,4.38503 -0.0742,0.16522 -0.61069,1.36155 -0.63532,1.40463 -1.25427,2.19377 -4.04319,2.89007 -6.37768,1.63108 -1.70449,-1.11353 -2.29624,-2.50115 -2.00769,-4.51836 0.21789,-1.4739 0.58218,-2.92341 1.46234,-4.15654 1.48513,-2.3762 4.02724,-3.98817 7.03734,-1.94187 1.27855,1.48314 1.55218,2.74887 1.26058,4.66101 -0.17525,1.353 -0.50685,2.65987 -0.83741,3.97997 -0.88136,2.94689 -2.91209,5.40832 -6.73454,3.66608 -1.59927,-1.25459 -2.23508,-2.43204 -2.16897,-4.49894 0.18447,-1.57057 0.4867,-3.11753 0.89069,-4.64695 0,0 5.8311,0.93199 5.8311,0.93199 z"
       inkscape:connector-curvature="0" />
    <path
       style="opacity:1;fill:#000000;fill-opacity:1;fill-rule:nonzero;stroke:none;stroke-width:0.15310188;stroke-linecap:butt;stroke-linejoin:bevel;stroke-miterlimit:4;stroke-dasharray:none;stroke-dashoffset:0;stroke-opacity:1;paint-order:normal"
       id="path4148-9"
       d="m 283.65296,128.13679 c 1.09338,0.70925 1.89226,1.75506 2.63162,2.80792 0.24648,0.31724 0.12875,1.39829 -0.31698,0.41352 -0.25568,-1.66192 -0.24135,-0.53954 3.44671,-1.50661 0.11121,-0.0292 -0.18912,0.18099 -0.30298,0.16503 -0.22455,-0.0316 -0.35436,-0.1548 -0.53714,-0.27817 -0.81395,-0.77133 -1.58077,-1.58794 -2.25724,-2.48245 -0.17008,-0.38827 -0.69562,-0.73726 -0.71077,-1.19507 -0.005,-0.16233 0.24275,0.13194 0.3775,0.47443 0.39449,1.53351 0.22091,0.38751 -3.26569,1.9129 -0.0636,0.0281 0.10878,-0.0939 0.13641,-0.1577 0.13663,-0.31518 0.0432,-0.21996 0.48624,-0.22521 0.92305,0.25783 1.5885,0.81976 2.18652,1.54126 0.1007,0.13984 0.21397,0.27146 0.3022,0.41949 0.33789,0.56661 -0.3013,-0.0701 -0.524,-0.10051 -0.92461,-1.07599 -0.42433,-0.35331 2.99052,-1.55209 0.10794,-0.0378 0.0616,0.27191 -0.0288,0.3419 -0.15948,0.12339 -0.38782,-0.12184 -0.56249,-0.22257 -0.72069,-0.44832 -1.31158,-1.03213 -1.62324,-1.82243 0.0148,-0.0322 0.009,-0.0949 0.0444,-0.0968 0.0934,-0.004 0.68865,0.47749 0.66005,0.49303 -1.02355,0.55674 -2.13214,0.94042 -3.19821,1.41063 0.17568,-0.32018 0.14046,-0.37823 0.52557,-0.31702 0,0 4.12864,-4.04058 4.12864,-4.04058 v 0 c -0.85304,-0.57388 -1.6871,-1.14946 -2.75416,-1.20808 -1.34697,0.55286 -2.75157,0.98215 -4.04091,1.65861 -0.25879,0.1362 -0.35085,0.46959 -0.49759,0.72255 -0.62931,1.08489 -0.72059,2.27011 -0.32511,3.45489 0.59381,1.39601 1.4911,2.58117 2.67403,3.54073 0.14366,0.11033 1.18288,0.9097 1.22498,0.93597 2.14394,1.33766 4.92987,0.62951 6.38922,-1.58526 0.97347,-1.78818 0.83716,-3.29054 -0.37268,-4.93026 -0.89019,-1.19475 -1.89776,-2.29865 -3.2571,-2.96758 -2.43367,-1.38896 -5.43608,-1.6041 -7.11739,1.62409 -0.42326,1.91187 -0.0645,3.15617 1.0982,4.70192 0.79536,1.10847 1.70655,2.10226 2.62311,3.10816 2.17235,2.17758 5.12688,3.38309 7.66763,0.0378 0.81398,-1.86256 0.81605,-3.2007 -0.22144,-4.98958 -0.90656,-1.2957 -1.90565,-2.51482 -2.98603,-3.6703 0,0 -4.69354,3.58344 -4.69354,3.58344 z"
       inkscape:connector-curvature="0"
       inkscape:transform-center-x="3.6682361"
       inkscape:transform-center-y="-0.61138439" />
  </g>
  <g
     inkscape:label="biurko laptop"
     inkscape:groupmode="layer"
     id="layer1"
     transform="translate(0,8.8583501)"
     style="display:inline">
    <rect
       style="opacity:1;fill:#784421;fill-opacity:1;fill-rule:nonzero;stroke:none;stroke-width:0.15310188;stroke-linecap:butt;stroke-linejoin:bevel;stroke-miterlimit:4;stroke-dasharray:none;stroke-dashoffset:0;stroke-opacity:1;paint-order:normal"
       id="rect4087"
       width="404.7312"
       height="14.673034"
       x="78.29995"
       y="268.62784" />
    <path
       style="fill:#483737;stroke:none;stroke-width:0.23551282px;stroke-linecap:butt;stroke-linejoin:miter;stroke-opacity:1"
       d="m 211.58001,193.42855 9.17065,77.03343 125.33216,0.61138 8.55927,-77.03343 z"
       id="path4085"
       inkscape:connector-curvature="0" />
    <ellipse
       style="opacity:1;fill:#6c5353;fill-opacity:1;fill-rule:nonzero;stroke:none;stroke-width:0.15310188;stroke-linecap:butt;stroke-linejoin:bevel;stroke-miterlimit:4;stroke-dasharray:none;stroke-dashoffset:0;stroke-opacity:1;paint-order:normal"
       id="path4090"
       cx="284.02814"
       cy="234.69647"
       rx="10.087711"
       ry="3.9739468" />
  </g>
  <g
     inkscape:groupmode="layer"
     id="layer27"
     inkscape:label="wsązka"
     style="display:inline">
    <path
       style="opacity:1;fill:#ff0000;fill-opacity:1;fill-rule:nonzero;stroke:none;stroke-width:0.15310188;stroke-linecap:butt;stroke-linejoin:bevel;stroke-miterlimit:4;stroke-dasharray:none;stroke-dashoffset:0;stroke-opacity:1;paint-order:normal"
       id="path4279"
       d="m 364.60394,133.6007 c -0.76712,-1.439 -1.66214,-2.80961 -2.51062,-4.20418 -0.95971,-1.34689 -1.72925,-2.7955 -2.45414,-4.27585 -0.66784,-1.34746 -0.94139,-2.81243 -1.0875,-4.29481 -0.0951,-1.27227 -0.0864,-2.54916 -0.0844,-3.82408 0.0643,-1.59068 0.52181,-3.10654 1.243,-4.51476 1.48717,-2.0796 2.48576,-1.95666 5.69187,-2.07088 0.60805,-0.0217 1.926,1.29827 2.3484,1.7132 1.13594,1.31859 1.93221,2.87517 2.70054,4.4249 0.66317,1.41036 1.1965,2.84958 1.50432,4.37809 0.22553,1.39091 0.2935,2.80309 0.19216,4.20703 -0.15752,1.16156 -0.42604,2.31037 -0.43825,3.4864 0.20041,2.6464 -0.38278,1.26353 -5.93087,0.20407 -0.0854,-0.0163 0.16496,-1.84485 0.20575,-2.10517 0.38673,-1.71229 0.94551,-3.37925 1.52129,-5.03555 0.51292,-1.36051 1.03944,-2.7273 1.84824,-3.94316 0.67413,-0.93317 1.25923,-1.92491 2.01638,-2.79453 1.80999,-2.00013 3.84506,-2.22523 6.66149,-2.39265 0.31824,-0.0189 0.59359,0.23291 0.89038,0.34936 1.58865,0.90684 2.53275,2.3899 3.15476,4.06148 0.43374,1.37665 0.49476,2.82134 0.52859,4.25251 -0.009,1.55194 -0.47159,2.96835 -1.2129,4.31133 -0.71899,1.25832 -1.62793,2.38622 -2.46515,3.56396 -0.90072,1.12258 -1.93201,2.14409 -3.12265,2.95452 -1.70433,0.92949 -3.27197,0.89051 -5.35014,1.21019 -0.96351,0.14822 1.92344,-0.31898 2.88652,-0.46989 0.32359,-0.0507 -0.64359,0.12309 -0.96271,0.19695 -0.0226,-0.0433 -0.0781,-0.0822 -0.0679,-0.12994 0.25341,-1.18667 0.18215,0.6577 0.32283,-1.06097 0.003,-2.46273 -0.15302,-0.23514 0.073,-0.78989 0.69165,0.88024 1.30568,1.81427 1.97374,2.71221 1.03373,1.37107 1.63377,2.96942 2.28993,4.53751 0.65652,2.12483 1.23722,4.28465 1.7172,6.4581 0.679,2.88482 1.00818,5.84486 1.31428,8.78929 0.14092,1.68753 0.25743,3.37687 0.38753,5.06524 0,0 -5.2647,0.53179 -5.2647,0.53179 v 0 c -0.0411,-1.62909 -0.0947,-3.25867 -0.29738,-4.87781 -0.35355,-2.8229 -0.80671,-5.64056 -1.51296,-8.39878 -0.46149,-1.97485 -1.05986,-3.92404 -1.72322,-5.83859 -0.56479,-1.30809 -1.16266,-2.5975 -2.06493,-3.71513 -0.65965,-0.85196 -1.32278,-1.69765 -2.0586,-2.4865 -1.0229,-1.64197 -1.26043,-3.43569 0.51764,-4.68278 1.71966,-0.46076 3.35703,-0.67288 5.17667,-0.98447 0.96969,-0.16605 -1.94518,0.30269 -2.9076,0.50671 -0.0139,0.003 0.79528,0.0335 0.81026,0.0341 0.77563,-0.0302 1.00842,-0.34088 1.59685,-0.80998 1.16411,-0.92809 -0.39962,0.55788 0.84355,-0.67571 0.90411,-0.92428 1.6238,-2.06098 2.30238,-3.15851 0.53572,-0.70092 0.93569,-1.43348 1.03091,-2.32072 -0.016,-1.0282 -0.0129,-2.07752 -0.30845,-3.07181 -0.20445,-0.50111 -0.60365,-1.38166 -1.27398,-1.17325 -0.8547,0.88947 -0.31639,0.27512 2.95846,-0.44915 0.13528,-0.0299 -0.27715,-0.004 -0.4157,-0.003 -0.36276,0.004 -0.71165,0.0133 -1.03866,0.19217 -0.75359,0.65242 -1.27149,1.36891 -1.81032,2.21159 -0.10318,0.1496 -0.20638,0.2992 -0.30956,0.4488 -0.0951,0.0877 -0.20895,0.15875 -0.28549,0.26311 -0.52728,0.71916 -0.84693,1.55433 -1.22617,2.35469 -0.53683,1.44071 -1.06167,2.88339 -1.37092,4.39521 -0.0493,0.3107 -0.13987,0.61743 -0.14927,0.93188 -0.005,0.16606 0.19899,0.47525 0.0344,0.49722 -1.96165,0.26171 -3.96257,0.0757 -5.93005,0.28934 -0.11676,0.0126 -0.0381,0.2684 0.0472,0.34921 0.058,0.055 0.0563,-0.14972 0.0843,-0.22458 0.20602,-1.17718 0.2333,-2.38452 0.51606,-3.55141 0.20605,-1.03294 0,-2.12614 -0.082,-3.165 -0.22126,-1.22477 -0.6718,-2.36517 -1.1826,-3.49771 -0.56217,-1.1221 -1.15635,-2.2838 -2.12381,-3.11413 -0.15363,-0.0841 -0.3424,-0.2672 -0.54604,-0.1745 -0.0653,0.0297 -0.22562,0.16136 -0.1548,0.14965 1.11652,-0.18467 4.03834,-0.23621 3.23425,-1.03259 -0.0603,-0.0597 -0.16759,-0.0272 -0.25141,-0.0408 -0.81374,0.31595 -0.8052,1.59988 -1.00931,2.32563 -0.003,1.16734 -0.0146,2.33599 0.052,3.50195 0.0883,1.07592 0.26031,2.13375 0.75585,3.10834 0.65355,1.38639 1.38357,2.72609 2.23889,4.00166 0.79443,1.31245 1.64307,2.60025 2.62879,3.77718 0,0 -5.31536,2.60649 -5.31536,2.60649 z"
       inkscape:connector-curvature="0" />
    <path
       style="opacity:1;fill:#ff0000;fill-opacity:1;fill-rule:nonzero;stroke:none;stroke-width:0.15310188;stroke-linecap:butt;stroke-linejoin:bevel;stroke-miterlimit:4;stroke-dasharray:none;stroke-dashoffset:0;stroke-opacity:1;paint-order:normal"
       id="path4281"
       d="m 370.25028,132.81025 c -1.16807,2.38067 -1.74331,5.00627 -2.38443,7.5645 -0.95996,4.3284 -1.66973,8.70964 -2.18642,13.11188 -0.32854,2.57947 -0.39988,5.17531 -0.40377,7.77171 0,0 -5.22309,0.23265 -5.22309,0.23265 v 0 c 0.21891,-2.67631 0.40896,-5.35516 0.67247,-8.0275 0.5912,-4.47964 1.3435,-8.93527 2.08367,-13.3923 0.51738,-2.73629 1.01753,-5.47287 1.61046,-8.19293 0,0 5.83111,0.93199 5.83111,0.93199 z"
       inkscape:connector-curvature="0" />
    <path
       style="opacity:1;fill:#ff0000;fill-opacity:1;fill-rule:nonzero;stroke:none;stroke-width:0.15310188;stroke-linecap:butt;stroke-linejoin:bevel;stroke-miterlimit:4;stroke-dasharray:none;stroke-dashoffset:0;stroke-opacity:1;paint-order:normal"
       id="path4283"
       d="m 375.94018,134.48884 c -1.05719,-0.0389 -2.1849,-0.27221 -3.19231,0.10266 0,0 2.72274,-5.07954 2.72274,-5.07954 v 0 c 1.20112,0.0606 2.40765,0.0623 3.60669,-0.0436 0,0 -3.13712,5.02048 -3.13712,5.02048 z"
       inkscape:connector-curvature="0" />
    <path
       style="opacity:1;fill:#ff0000;fill-opacity:1;fill-rule:nonzero;stroke:none;stroke-width:0.15310188;stroke-linecap:butt;stroke-linejoin:bevel;stroke-miterlimit:4;stroke-dasharray:none;stroke-dashoffset:0;stroke-opacity:1;paint-order:normal"
       id="path4293"
       d="m 378.25904,135.56041 c -0.68692,-0.0608 -3.85311,0.0651 -5.23096,0.0737 -1.30325,0.0106 -2.60653,0.0167 -3.90982,0.02 0.55148,-0.5278 -1.29086,0.24137 -0.96407,0.20651 0.9917,-0.10582 1.96748,-0.3283 2.95265,-0.48353 0.16851,-0.0265 -0.33461,0.0666 -0.50237,0.0975 -5.35273,0.98367 -4.92431,0.91618 -0.84801,0.10005 -0.89165,0.0935 -1.57766,0.65002 -2.36022,1.07096 -1.09051,0.66232 -2.25088,1.309 -3.48349,1.6662 -0.95941,0.53371 -1.17632,0.51812 -2.17143,0.95425 -2.2714,0.94728 -4.3615,2.35778 -6.39766,2.98707 -1.249,-0.30481 -3.45987,0.73453 -4.32336,-0.19259 -0.61584,-0.36293 -0.69974,-3.29079 -1.14727,-3.80762 l -0.70406,-3.44781 1.85208,0.94494 c 0.29658,0.42237 1.34204,0.45013 1.75185,0.77075 2.13145,-0.10655 2.77309,-0.48999 3.17483,-0.63333 0.12852,-0.0453 0.27173,-0.0213 0.4076,-0.032 0.55845,-0.11189 0.92209,-0.38875 1.44798,-0.5741 0.44051,-0.15525 0.99987,-0.0219 1.39591,-0.36079 1.01266,-0.55067 2.17572,-0.77054 3.21866,-1.2716 0.16594,-0.11432 0.33189,-0.22864 0.49782,-0.34296 0.13274,-0.0631 0.27495,-0.10917 0.39819,-0.18923 0.49123,-0.31914 0.93296,-0.75424 1.43053,-1.06107 0.14806,-0.0913 0.32262,-0.13018 0.48395,-0.19526 5.63422,-1.28362 4.871,-1.05175 1.11546,-0.37859 -0.17237,0.0309 0.34168,-0.0776 0.51415,-0.10812 1.32393,-0.23404 2.64203,-0.5082 3.97477,-0.68542 0.4468,-0.0594 0.9008,0.1717 1.35084,0.0603 1.29493,0.004 2.58986,0.009 3.88478,0.02 1.41027,0.009 1.91786,0.0783 3.32455,-0.0397 l 1.66314,3.50859 c 0,0 -2.1101,1.38374 -2.79702,1.32297 z"
       inkscape:connector-curvature="0"
       sodipodi:nodetypes="zcccccccccccccccccccccccccccccccz" />
  </g>
  <g
     inkscape:groupmode="layer"
     id="layer29"
     inkscape:label="haslo">
    <path
       style="opacity:1;fill:#241c1c;fill-opacity:1;fill-rule:nonzero;stroke:none;stroke-width:0.17199999;stroke-linecap:butt;stroke-linejoin:bevel;stroke-miterlimit:4;stroke-dasharray:none;stroke-dashoffset:0;stroke-opacity:1;paint-order:normal"
       id="path4470"
       d="m 343.39741,41.788709 c 0.0808,1.188217 0.35058,2.170189 1.42052,2.779533 0.0536,0.0084 0.71091,0.176109 0.7478,-0.06868 0.0167,-0.110279 -0.36479,0.08136 -0.33359,-0.02572 0.0463,-0.158911 0.29189,-0.160573 0.41886,-0.266761 0.34616,-0.289467 0.41209,-0.473334 0.64254,-0.856104 0.35161,-0.935016 0.12044,-1.49224 -0.79108,-1.813198 -0.15509,-0.226565 -2.36751,-0.12619 -1.14144,-0.105256 0,0 -1.03314,-0.82437 -1.03314,-0.82437 v 0 c 1.16562,-0.277159 2.02065,-0.456893 3.14232,0.03167 1.20634,0.676947 1.55996,1.696199 1.09421,3.017885 -0.74289,1.404271 -2.13791,2.553182 -3.7847,1.713825 -1.1743,-0.88007 -1.58599,-2.049391 -1.70921,-3.490039 0,0 1.32691,-0.09279 1.32691,-0.09279 z"
       inkscape:connector-curvature="0" />
    <path
       style="opacity:1;fill:#241c1c;fill-opacity:1;fill-rule:nonzero;stroke:none;stroke-width:0.17199999;stroke-linecap:butt;stroke-linejoin:bevel;stroke-miterlimit:4;stroke-dasharray:none;stroke-dashoffset:0;stroke-opacity:1;paint-order:normal"
       id="path4472"
       d="m 360.39578,40.566123 c -0.49379,1.174218 -0.62598,2.554202 0.0879,3.658126 0.77099,0.977482 1.94537,1.208932 3.11303,1.368526 1.22883,-0.06047 1.57509,-0.229548 2.63687,-1.169424 0.80724,-0.888606 1.12527,-1.928612 0.83859,-3.087619 -0.44304,-1.095764 -1.23354,-1.514441 -2.22996,-2.002597 -0.19187,-0.07509 -0.38073,-0.158438 -0.57563,-0.225285 -0.77126,-0.264533 -1.68703,-0.515307 -2.50592,-0.373171 -0.0753,0.01307 0.15169,0.01836 0.22752,0.02755 -0.56195,0.102192 -0.99071,0.384709 -1.44272,0.709393 0,0 -1.16594,-0.596924 -1.16594,-0.596924 v 0 c 0.50099,-0.423553 0.97888,-0.830398 1.63658,-0.987811 0.47731,-0.08593 0.94946,-0.208354 1.4319,-0.257792 1.14739,-0.117575 2.32632,0.424939 3.36293,0.824339 1.18922,0.590833 2.0719,1.322707 2.54479,2.61135 0.32245,1.433176 0.0111,2.736485 -0.93424,3.886126 -1.26445,1.265896 -2.79758,1.870411 -4.61809,1.675254 -1.38973,-0.257035 -2.69746,-0.690584 -3.53706,-1.911197 -0.72152,-1.368083 -0.71938,-2.91252 -0.18079,-4.358248 0,0 1.31019,0.209405 1.31019,0.209405 z"
       inkscape:connector-curvature="0" />
    <path
       style="opacity:1;fill:#241c1c;fill-opacity:1;fill-rule:nonzero;stroke:none;stroke-width:0.17199999;stroke-linecap:butt;stroke-linejoin:bevel;stroke-miterlimit:4;stroke-dasharray:none;stroke-dashoffset:0;stroke-opacity:1;paint-order:normal"
       id="path4474"
       d="m 384.06406,38.552919 c -1.33935,0.432763 -2.60776,1.057941 -3.76455,1.85756 -0.87275,0.741518 -1.12784,1.822021 -1.08971,2.924767 0.2517,1.139182 0.9027,1.913202 1.90407,2.470039 1.2246,0.804357 2.63639,1.009579 4.06099,1.155629 1.33027,0.161163 2.33899,-0.137393 3.50194,-0.610248 1.19682,-0.573133 1.83362,-1.687232 2.32347,-2.866983 0.46376,-1.233847 0.5022,-2.389219 -0.3955,-3.40691 -0.9284,-0.972397 -2.18051,-1.263846 -3.462,-1.441085 -0.68347,0.0083 -1.14255,0.27531 -1.94077,0.685612 0,0 -1.08397,-0.691737 -1.08397,-0.691737 v 0 c 1.17023,-0.696359 2.4098,-1.206291 3.81672,-1.025618 1.45598,0.267034 2.82699,0.726951 3.8336,1.8781 0.95726,1.305481 1.07402,2.688008 0.51602,4.20782 -0.52914,1.35967 -1.24225,2.668741 -2.54939,3.41716 -1.64161,0.792411 -3.50341,1.108019 -5.31638,0.896913 -1.52834,-0.194781 -3.01628,-0.501959 -4.32049,-1.374963 -1.16186,-0.774099 -1.93765,-1.771247 -2.1884,-3.17456 -0.0503,-1.355371 0.23734,-2.684492 1.24072,-3.664548 1.15858,-0.881605 2.48576,-1.541571 3.85286,-2.033942 0,0 1.06077,0.796994 1.06077,0.796994 z"
       inkscape:connector-curvature="0" />
    <path
       style="opacity:1;fill:#241c1c;fill-opacity:1;fill-rule:nonzero;stroke:none;stroke-width:0.17199999;stroke-linecap:butt;stroke-linejoin:bevel;stroke-miterlimit:4;stroke-dasharray:none;stroke-dashoffset:0;stroke-opacity:1;paint-order:normal"
       id="path4476"
       d="m 403.29561,47.48186 c -1.54919,0.444521 -2.84982,1.30016 -3.94028,2.467959 -1.36779,1.606277 -2.23509,3.557093 -3.03276,5.490472 -0.88117,2.207122 -1.24227,4.505523 -1.1689,6.867707 0.12025,1.772862 1.01904,3.106076 2.32307,4.238464 1.01888,0.805802 1.57691,1.721845 1.39933,3.025494 -0.42035,1.431894 -0.78815,2.855196 -0.99018,4.337963 -0.27435,2.570073 -0.60037,5.130554 -0.77827,7.710406 -0.12804,2.496595 0.63415,4.78796 1.84255,6.932109 1.27868,1.931316 3.03763,3.168735 5.19338,3.92675 2.18681,0.646277 4.40785,0.609783 6.63043,0.221808 1.66947,-0.553421 3.15434,-1.347149 4.36216,-2.63372 0.88051,-1.232152 2.27362,-2.015953 2.44493,0.271602 -0.0491,1.658695 0.17098,3.277423 0.6571,4.860904 0.80602,2.0159 2.04536,3.813323 3.48715,5.421972 2.27799,2.26346 5.11736,3.71415 8.10416,4.7966 3.31674,0.98347 6.75114,1.45054 10.1957,1.11271 2.11746,-0.3829 3.75279,-1.54407 5.08317,-3.17033 0.95859,-1.18362 1.11427,-2.63695 1.42941,-4.061775 0.35658,-1.60482 0.91694,-2.380219 2.7903,-1.987532 1.8451,0.705234 3.76155,1.151316 5.67367,1.626743 3.06988,0.723736 6.23369,0.938424 9.37871,0.889611 3.40926,-0.111019 6.56207,-1.247624 9.59617,-2.720446 3.01874,-1.5861 5.44016,-3.943998 7.44858,-6.662065 1.42293,-2.086409 2.29772,-4.454922 2.93367,-6.881852 0.45678,-1.721519 0.24564,-3.582196 1.20788,-5.1303 1.07828,-0.928425 2.35442,-1.555522 3.43781,-2.492298 1.62542,-1.562317 2.91915,-3.450204 4.01368,-5.411684 1.34122,-2.649228 2.04909,-5.532848 2.51732,-8.446971 0.49845,-3.322701 0.4285,-6.666423 0.0857,-9.996776 -0.26218,-3.317706 -1.08961,-6.477497 -2.6397,-9.415923 -1.88542,-3.019377 -4.8791,-4.915815 -7.95925,-6.535168 -3.37748,-1.555957 -6.91377,-2.653298 -10.57111,-3.292367 -2.69806,-0.411348 -5.42967,-0.517872 -8.15517,-0.518501 -1.80668,-0.13952 -1.74204,-1.192512 -1.60337,-2.658115 0.17367,-1.605019 0.371,-3.198556 0.0396,-4.790826 -0.56817,-1.847945 -1.96948,-3.130618 -3.55182,-4.142924 -2.51976,-1.504022 -5.39901,-2.043683 -8.26508,-2.431006 -4.2614,-0.429755 -8.55101,-0.429215 -12.82949,-0.450019 -3.53994,-0.01838 -7.02026,0.467044 -10.45046,1.298456 -2.03271,0.526588 -3.80351,1.426331 -4.97914,3.19202 -0.94107,1.794948 -1.52082,3.758314 -2.1183,5.688483 -0.34039,0.888823 -0.30988,2.707505 -1.48815,3.040129 -0.42341,0.119533 -0.86839,0.142126 -1.30257,0.213188 -1.65799,-0.121095 -3.31777,-0.201155 -4.97925,-0.252847 -1.44605,-0.0435 -2.901,-0.117147 -4.31646,0.252008 -0.43416,0.113228 -0.82132,0.361913 -1.23794,0.528497 -1.83917,0.769612 -2.94888,2.158759 -3.80082,3.899397 -0.84695,1.605188 -1.25084,3.334687 -1.46476,5.120894 -0.14546,1.505773 -0.14221,3.020095 -0.14128,4.531228 0.003,0.929963 0.003,0.465945 0.006,1.392052 0,0 -1.2968,0.09379 -1.2968,0.09379 v 0 c -0.003,-0.927894 -0.003,-0.462748 -0.004,-1.395436 0.003,-1.542095 0.004,-3.087238 0.15542,-4.623544 0.22235,-1.867567 0.61621,-3.684156 1.4977,-5.366401 0.87918,-1.912038 2.06637,-3.497217 4.03185,-4.398359 2.31606,-1.026075 4.7503,-1.271558 7.2598,-1.093867 1.64338,0.0445 3.28649,0.165071 4.92969,0.151863 -0.12809,0.04267 -0.3112,0.01447 -0.38428,0.128011 -0.10475,0.162734 0.44392,0.01185 0.56335,-0.140422 0.47911,-0.610791 0.40894,-1.544185 0.7198,-2.218902 0.61666,-1.993522 1.21518,-4.012814 2.13579,-5.890778 1.20894,-1.988518 3.07679,-3.063341 5.31225,-3.656479 3.91946,-0.969082 7.91798,-1.468732 11.95944,-1.456009 4.31252,0.0285 8.63679,0.02573 12.93172,0.462977 2.97315,0.419233 5.95447,1.005453 8.54617,2.610602 1.72104,1.174553 3.23255,2.605448 3.82193,4.670786 0.33229,1.666405 0.1855,3.328587 0.006,5.009702 -0.0907,1.171646 -0.39129,1.507095 0.98584,1.605925 2.74093,0.09399 5.49061,0.18695 8.19812,0.664226 3.70784,0.693232 7.30326,1.834976 10.71755,3.453051 3.19784,1.705163 6.28571,3.708786 8.20444,6.882796 1.57774,3.027149 2.4298,6.270879 2.69235,9.681517 0.35901,3.391167 0.43873,6.797233 -0.0521,10.183609 -0.47612,2.995599 -1.1866,5.956974 -2.51934,8.700587 -1.1023,2.041896 -2.43051,3.998725 -4.05767,5.660758 -0.99965,0.950947 -2.12291,1.714674 -3.34746,2.351953 -1.13107,1.302683 -0.6813,3.284405 -1.2193,4.840226 -0.64834,2.518855 -1.54813,4.98447 -3.01874,7.150055 -2.05738,2.814405 -4.54594,5.26746 -7.6286,6.954816 -3.51099,1.768891 -7.22463,2.973326 -11.19468,3.063766 -3.20633,0.006 -6.43123,-0.19009 -9.55786,-0.949099 -1.90447,-0.454451 -3.78714,-0.961975 -5.66325,-1.519809 -0.79584,-0.04797 -0.4459,0.03942 0.0946,-0.251254 0.0661,-0.03555 -0.1577,0.0011 -0.22154,0.0404 -0.3923,0.242575 -0.4545,0.851995 -0.56949,1.235072 -0.38735,1.51998 -0.49813,3.10847 -1.52971,4.39105 -1.84383,2.3332 -3.85313,3.49122 -6.87517,3.80498 -3.53285,0.23666 -7.04477,-0.27126 -10.42729,-1.32223 -3.08197,-1.15577 -6.02797,-2.67182 -8.36623,-5.04184 -1.50352,-1.699671 -2.81659,-3.578419 -3.63344,-5.71131 -0.49779,-1.634069 -0.76422,-3.302135 -0.73742,-5.014664 -0.0831,-0.88642 -0.20651,-0.414718 0.91988,-0.603443 0.0504,-0.0084 -0.0687,-0.115464 -0.11711,-0.09907 -0.19709,0.0667 -0.69683,0.687697 -0.74358,0.740455 -1.61028,1.826334 -3.71946,2.873624 -6.11826,3.285217 -2.34074,0.326946 -4.67537,0.308716 -6.94499,-0.442494 -2.27293,-0.897557 -4.15293,-2.278282 -5.48328,-4.367824 -1.24224,-2.281245 -2.04449,-4.718748 -1.90381,-7.352985 0.17381,-2.592591 0.49911,-5.166386 0.73943,-7.75209 0.17013,-1.491316 0.49422,-2.932258 0.92853,-4.366342 0.20034,-1.026308 -0.37922,-1.654445 -1.15604,-2.295623 -1.40459,-1.324102 -2.37784,-2.841257 -2.49291,-4.825161 -0.0612,-2.465549 0.29187,-4.866185 1.1951,-7.177122 0.80836,-2.016382 1.6882,-4.048535 3.0679,-5.748364 1.09617,-1.282798 2.44038,-2.300393 4.07238,-2.806446 0,0 1.06077,0.796994 1.06077,0.796994 z"
       inkscape:connector-curvature="0" />
    <path
       style="opacity:1;fill:#241c1c;fill-opacity:1;fill-rule:nonzero;stroke:none;stroke-width:0.17199999;stroke-linecap:butt;stroke-linejoin:bevel;stroke-miterlimit:4;stroke-dasharray:none;stroke-dashoffset:0;stroke-opacity:1;paint-order:normal"
       id="path4490"
       d="m 412.76841,61.707116 c 0.0616,2.023592 0.25516,4.062365 0.53126,6.070278 0.32387,2.055844 0.50773,4.126843 0.92614,6.166011 0,0 -1.26021,0.240726 -1.26021,0.240726 v 0 c -0.40476,-2.058676 -0.56512,-4.147421 -0.89556,-6.219092 -0.2786,-2.044248 -0.48154,-4.109506 -0.62854,-6.165136 0,0 1.32691,-0.09279 1.32691,-0.09279 z"
       inkscape:connector-curvature="0" />
    <path
       style="opacity:1;fill:#241c1c;fill-opacity:1;fill-rule:nonzero;stroke:none;stroke-width:0.17199999;stroke-linecap:butt;stroke-linejoin:bevel;stroke-miterlimit:4;stroke-dasharray:none;stroke-dashoffset:0;stroke-opacity:1;paint-order:normal"
       id="path4492"
       d="m 407.17747,70.395689 c 1.60126,-0.706522 3.17323,-1.464339 4.805,-2.099559 1.71786,-0.679987 3.47061,-1.245962 5.23232,-1.799055 0.27858,-0.07841 0.55716,-0.156819 0.83573,-0.235231 0,0 0.96878,0.840822 0.96878,0.840822 v 0 c -0.27371,0.07035 -0.54745,0.140695 -0.82119,0.211043 -1.75374,0.531889 -3.49192,1.09094 -5.20126,1.752401 -1.62044,0.634873 -3.21916,1.310987 -4.75861,2.126573 0,0 -1.06077,-0.796994 -1.06077,-0.796994 z"
       inkscape:connector-curvature="0" />
    <path
       style="opacity:1;fill:#241c1c;fill-opacity:1;fill-rule:nonzero;stroke:none;stroke-width:0.17199999;stroke-linecap:butt;stroke-linejoin:bevel;stroke-miterlimit:4;stroke-dasharray:none;stroke-dashoffset:0;stroke-opacity:1;paint-order:normal"
       id="path4494"
       d="m 410.91196,65.320467 c 1.33419,1.182929 2.7527,2.256386 4.15356,3.3572 1.16512,0.840351 2.37837,1.615205 3.52147,2.484017 0,0 -1.04769,0.755068 -1.04769,0.755068 v 0 c -1.15173,-0.862079 -2.35834,-1.649005 -3.51423,-2.506369 -1.40356,-1.096264 -2.79439,-2.206209 -4.19089,-3.310363 0,0 1.07778,-0.779553 1.07778,-0.779553 z"
       inkscape:connector-curvature="0" />
    <path
       style="opacity:1;fill:#241c1c;fill-opacity:1;fill-rule:nonzero;stroke:none;stroke-width:0.17199999;stroke-linecap:butt;stroke-linejoin:bevel;stroke-miterlimit:4;stroke-dasharray:none;stroke-dashoffset:0;stroke-opacity:1;paint-order:normal"
       id="path4496"
       d="m 427.87458,63.163261 c -0.0478,2.06089 0.2548,4.116158 0.65554,6.132748 0.0976,0.823193 0.38478,1.597419 0.64701,2.377009 0,0 -1.25188,0.33329 -1.25188,0.33329 v 0 c -0.26069,-0.812839 -0.53517,-1.624777 -0.6378,-2.477341 -0.3955,-2.06888 -0.68115,-4.165399 -0.7311,-6.273525 0,0 1.31823,-0.09218 1.31823,-0.09218 z"
       inkscape:connector-curvature="0" />
    <path
       style="opacity:1;fill:#241c1c;fill-opacity:1;fill-rule:nonzero;stroke:none;stroke-width:0.17199999;stroke-linecap:butt;stroke-linejoin:bevel;stroke-miterlimit:4;stroke-dasharray:none;stroke-dashoffset:0;stroke-opacity:1;paint-order:normal"
       id="path4498"
       d="m 423.23472,65.714681 c 1.62713,0.626739 3.35171,0.895027 5.07465,1.092721 1.70196,0.228613 3.43504,0.03464 5.1299,0.283019 0.85985,0.16569 0.44808,0.04152 1.2372,0.366104 0,0 -0.91739,0.940533 -0.91739,0.940533 v 0 c -0.67168,-0.219458 -0.30991,-0.126859 -1.08974,-0.259736 -1.69794,-0.17734 -3.41913,-0.0653 -5.11525,-0.299641 -1.74535,-0.232632 -3.46588,-0.573825 -5.15207,-1.086826 0,0 0.8327,-1.036174 0.8327,-1.036174 z"
       inkscape:connector-curvature="0" />
    <path
       style="opacity:1;fill:#241c1c;fill-opacity:1;fill-rule:nonzero;stroke:none;stroke-width:0.17199999;stroke-linecap:butt;stroke-linejoin:bevel;stroke-miterlimit:4;stroke-dasharray:none;stroke-dashoffset:0;stroke-opacity:1;paint-order:normal"
       id="path4500"
       d="m 431.23138,64.533181 c -0.4707,1.661787 -1.35835,3.161599 -2.237,4.63437 -0.55756,0.790197 -0.28739,0.409335 -0.8101,1.14286 0,0 -1.24476,-0.388604 -1.24476,-0.388604 v 0 c 0.52025,-0.7253 0.25127,-0.365329 0.80756,-1.079466 0.84214,-1.389284 1.73448,-2.787385 2.15659,-4.373771 0,0 1.32771,0.06461 1.32771,0.06461 z"
       inkscape:connector-curvature="0" />
    <path
       style="opacity:1;fill:#241c1c;fill-opacity:1;fill-rule:nonzero;stroke:none;stroke-width:0.17199999;stroke-linecap:butt;stroke-linejoin:bevel;stroke-miterlimit:4;stroke-dasharray:none;stroke-dashoffset:0;stroke-opacity:1;paint-order:normal"
       id="path4516"
       d="m 444.36313,62.393959 c -0.039,1.864053 -0.0314,3.728688 -0.0354,5.593043 0,0.994664 0.004,1.98932 0.008,2.983973 0,0 -1.2718,0.08894 -1.2718,0.08894 v 0 c 0.004,-0.995019 0.008,-1.99004 0.008,-2.985067 -0.004,-1.862706 0.004,-3.725695 -0.0354,-5.588097 0,0 1.32691,-0.09279 1.32691,-0.09279 z"
       inkscape:connector-curvature="0" />
    <path
       style="opacity:1;fill:#241c1c;fill-opacity:1;fill-rule:nonzero;stroke:none;stroke-width:0.17199999;stroke-linecap:butt;stroke-linejoin:bevel;stroke-miterlimit:4;stroke-dasharray:none;stroke-dashoffset:0;stroke-opacity:1;paint-order:normal"
       id="path4518"
       d="m 440.45917,66.533336 c 1.56869,0.857755 3.15079,1.692579 4.71424,2.560489 1.2514,0.755825 2.63911,1.308619 3.83276,2.154698 0,0 -1.03733,0.792456 -1.03733,0.792456 v 0 c -1.20033,-0.787334 -2.53346,-1.375346 -3.76415,-2.115034 -1.54485,-0.847741 -3.08255,-1.723072 -4.68503,-2.455743 0,0 0.93951,-0.936866 0.93951,-0.936866 z"
       inkscape:connector-curvature="0" />
    <path
       style="opacity:1;fill:#241c1c;fill-opacity:1;fill-rule:nonzero;stroke:none;stroke-width:0.17199999;stroke-linecap:butt;stroke-linejoin:bevel;stroke-miterlimit:4;stroke-dasharray:none;stroke-dashoffset:0;stroke-opacity:1;paint-order:normal"
       id="path4520"
       d="m 440.67137,70.37112 c 1.69357,-1.352418 3.17746,-2.932282 4.77303,-4.393885 1.08418,-0.956109 2.25779,-1.794174 3.44601,-2.613226 0,0 1.10453,0.622215 1.10453,0.622215 v 0 c -1.17083,0.792943 -2.34045,1.583261 -3.40826,2.51551 -1.59514,1.434407 -3.05789,3.000849 -4.69617,4.386884 0,0 -1.21914,-0.517498 -1.21914,-0.517498 z"
       inkscape:connector-curvature="0" />
    <path
       style="opacity:1;fill:#241c1c;fill-opacity:1;fill-rule:nonzero;stroke:none;stroke-width:0.17199999;stroke-linecap:butt;stroke-linejoin:bevel;stroke-miterlimit:4;stroke-dasharray:none;stroke-dashoffset:0;stroke-opacity:1;paint-order:normal"
       id="path4522"
       d="m 457.48474,60.942285 c 0.18605,1.779974 0.51742,3.532632 0.8114,5.296445 0.20113,1.151472 0.2428,2.319542 0.46738,3.465743 0,0 -1.27301,0.231301 -1.27301,0.231301 v 0 c -0.20281,-1.154591 -0.25287,-2.324933 -0.44609,-3.482099 -0.29935,-1.753962 -0.60317,-3.503676 -0.86551,-5.262626 0,0 1.30583,-0.248764 1.30583,-0.248764 z"
       inkscape:connector-curvature="0" />
    <path
       style="opacity:1;fill:#241c1c;fill-opacity:1;fill-rule:nonzero;stroke:none;stroke-width:0.17199999;stroke-linecap:butt;stroke-linejoin:bevel;stroke-miterlimit:4;stroke-dasharray:none;stroke-dashoffset:0;stroke-opacity:1;paint-order:normal"
       id="path4524"
       d="m 455.56968,65.159651 c 1.4386,0.867048 3.07954,1.201751 4.66061,1.690833 1.23492,0.336132 2.4756,0.643358 3.63863,1.185362 0,0 -0.94273,0.896994 -0.94273,0.896994 v 0 c -1.14967,-0.487278 -2.36115,-0.778833 -3.55735,-1.128472 -1.61521,-0.475919 -3.23004,-0.938432 -4.73866,-1.707849 0,0 0.9395,-0.936868 0.9395,-0.936868 z"
       inkscape:connector-curvature="0" />
    <path
       style="opacity:1;fill:#241c1c;fill-opacity:1;fill-rule:nonzero;stroke:none;stroke-width:0.17199999;stroke-linecap:butt;stroke-linejoin:bevel;stroke-miterlimit:4;stroke-dasharray:none;stroke-dashoffset:0;stroke-opacity:1;paint-order:normal"
       id="path4526"
       d="m 461.25632,63.251902 c -1.2228,1.565521 -2.41006,3.155315 -3.68615,4.679008 -1.00179,1.383205 -2.29642,2.498908 -3.41754,3.770231 -0.0989,0.151384 -0.19778,0.302768 -0.29665,0.454152 0,0 -1.26484,-0.341308 -1.26484,-0.341308 v 0 c 0.11221,-0.188621 0.22442,-0.377245 0.33665,-0.565869 1.08482,-1.30705 2.48764,-2.331138 3.46089,-3.749022 1.2724,-1.499817 2.46443,-3.057964 3.60346,-4.660926 0,0 1.26418,0.413734 1.26418,0.413734 z"
       inkscape:connector-curvature="0" />
    <path
       style="opacity:1;fill:#241c1c;fill-opacity:1;fill-rule:nonzero;stroke:none;stroke-width:0.17199999;stroke-linecap:butt;stroke-linejoin:bevel;stroke-miterlimit:4;stroke-dasharray:none;stroke-dashoffset:0;stroke-opacity:1;paint-order:normal"
       id="path4528"
       d="m 475.78515,62.545054 c -0.69498,1.908133 -0.90546,3.945496 -1.07966,5.955586 -0.12436,1.350944 -0.17804,2.682957 0.0482,4.021561 0,0 -1.28616,0.216236 -1.28616,0.216236 v 0 c -0.22043,-1.405202 -0.16322,-2.802409 -0.0225,-4.216818 0.18954,-2.083044 0.42357,-4.175887 1.02997,-6.185972 0,0 1.31016,0.209407 1.31016,0.209407 z"
       inkscape:connector-curvature="0" />
    <path
       style="opacity:1;fill:#241c1c;fill-opacity:1;fill-rule:nonzero;stroke:none;stroke-width:0.17199999;stroke-linecap:butt;stroke-linejoin:bevel;stroke-miterlimit:4;stroke-dasharray:none;stroke-dashoffset:0;stroke-opacity:1;paint-order:normal"
       id="path4530"
       d="m 469.32254,65.710114 c 1.81618,0.211529 3.60553,0.558996 5.40816,0.858949 1.82026,0.228541 3.66906,0.410845 5.42907,0.949941 0.88529,0.291182 0.44939,0.120854 1.30699,0.512675 0,0 -0.93827,0.902767 -0.93827,0.902767 v 0 c -0.79975,-0.328719 -0.38976,-0.17824 -1.23073,-0.449361 -1.74726,-0.47979 -3.55315,-0.676489 -5.34541,-0.911717 -1.80776,-0.312446 -3.61143,-0.625105 -5.43705,-0.817943 0,0 0.80724,-1.045311 0.80724,-1.045311 z"
       inkscape:connector-curvature="0" />
    <path
       style="opacity:1;fill:#241c1c;fill-opacity:1;fill-rule:nonzero;stroke:none;stroke-width:0.17199999;stroke-linecap:butt;stroke-linejoin:bevel;stroke-miterlimit:4;stroke-dasharray:none;stroke-dashoffset:0;stroke-opacity:1;paint-order:normal"
       id="path4532"
       d="m 479.00955,64.677466 c -1.50014,1.255665 -2.83681,2.691302 -4.20019,4.090509 -0.98604,1.003938 -2.15556,1.790703 -3.24037,2.678409 0,0 -1.14173,-0.564028 -1.14173,-0.564028 v 0 c 1.06187,-0.882507 2.23139,-1.626878 3.21886,-2.59769 1.35983,-1.394285 2.68235,-2.837924 4.14428,-4.124698 0,0 1.21915,0.517498 1.21915,0.517498 z"
       inkscape:connector-curvature="0" />
    <path
       style="opacity:1;fill:#241c1c;fill-opacity:1;fill-rule:nonzero;stroke:none;stroke-width:0.17199999;stroke-linecap:butt;stroke-linejoin:bevel;stroke-miterlimit:4;stroke-dasharray:none;stroke-dashoffset:0;stroke-opacity:1;paint-order:normal"
       id="path4568"
       d="m 414.78072,39.82667 c 0.23816,1.054145 0.42532,2.118601 0.63762,3.178292 0.28414,1.644248 0.66506,3.269459 1.05466,4.891275 0.23865,1.217681 0.58192,2.40932 0.90498,3.605932 0.071,0.347522 0.1783,0.685734 0.27681,1.025991 0,0 -0.72112,0.172175 -0.72112,0.172175 v 0 c -0.0942,-0.344684 -0.19683,-0.687774 -0.25985,-1.040061 -0.29475,-1.206138 -0.61365,-2.406463 -0.85053,-3.626184 -0.37851,-1.627933 -0.76295,-3.255137 -1.06312,-4.89984 -0.23207,-1.057219 -0.42709,-2.124935 -0.73306,-3.164006 0,0 0.75361,-0.143574 0.75361,-0.143574 z"
       inkscape:connector-curvature="0" />
    <path
       style="opacity:1;fill:#241c1c;fill-opacity:1;fill-rule:nonzero;stroke:none;stroke-width:0.17199999;stroke-linecap:butt;stroke-linejoin:bevel;stroke-miterlimit:4;stroke-dasharray:none;stroke-dashoffset:0;stroke-opacity:1;paint-order:normal"
       id="path4570"
       d="m 418.76553,39.785999 c 0.34529,1.023037 0.6023,2.073835 0.82643,3.1292 0.2907,1.42094 0.5587,2.846411 0.83672,4.26997 0.1629,1.153332 0.36314,2.30114 0.52305,3.455019 0.0597,0.504579 0.0301,0.270584 0.0872,0.702167 0,0 -0.73893,0.09789 -0.73893,0.09789 v 0 c -0.0322,-0.429951 -0.0127,-0.198215 -0.0609,-0.695013 -0.13531,-1.148495 -0.32044,-2.290815 -0.48284,-3.435485 -0.2662,-1.422146 -0.53028,-2.845363 -0.83582,-4.259553 -0.22947,-1.028909 -0.4766,-2.065377 -0.88688,-3.039279 0,0 0.73196,-0.224917 0.73196,-0.224917 z"
       inkscape:connector-curvature="0" />
    <path
       style="opacity:1;fill:#241c1c;fill-opacity:1;fill-rule:nonzero;stroke:none;stroke-width:0.17199999;stroke-linecap:butt;stroke-linejoin:bevel;stroke-miterlimit:4;stroke-dasharray:none;stroke-dashoffset:0;stroke-opacity:1;paint-order:normal"
       id="path4572"
       d="m 414.99803,46.285856 c 0.69842,0.01863 1.39718,0.01413 2.09579,0.0173 0.88564,-0.04541 1.7536,-0.217522 2.62789,-0.35024 0.14245,-0.01908 0.28493,-0.03818 0.42738,-0.05726 0,0 -0.33295,0.643999 -0.33295,0.643999 v 0 c -0.13941,0.01937 -0.27882,0.03872 -0.41822,0.05808 -0.89178,0.143735 -1.78401,0.296143 -2.68931,0.321855 -0.7058,0.0032 -1.41176,-0.0011 -2.11738,0.0173 0,0 0.4068,-0.651031 0.4068,-0.651031 z"
       inkscape:connector-curvature="0" />
    <path
       style="opacity:1;fill:#241c1c;fill-opacity:1;fill-rule:nonzero;stroke:none;stroke-width:0.17199999;stroke-linecap:butt;stroke-linejoin:bevel;stroke-miterlimit:4;stroke-dasharray:none;stroke-dashoffset:0;stroke-opacity:1;paint-order:normal"
       id="path4574"
       d="m 426.61591,38.331494 c -0.16238,1.004993 -0.26213,2.022401 -0.3629,3.035938 -0.086,1.500005 -0.22479,2.993914 -0.40797,4.484973 -0.13022,1.193567 -0.32977,2.377477 -0.45018,3.572306 -0.0325,0.327959 -0.0501,0.65686 -0.0611,0.986107 0,0 -0.75176,0.02437 -0.75176,0.02437 v 0 c 0.0306,-0.336106 0.0523,-0.672934 0.0914,-1.008251 0.14626,-1.195377 0.36418,-2.380369 0.49835,-3.577201 0.18481,-1.486672 0.3308,-2.975274 0.3956,-4.472725 0.0897,-1.028237 0.19648,-2.054575 0.28231,-3.082812 0,0 0.76629,0.03729 0.76629,0.03729 z"
       inkscape:connector-curvature="0" />
    <path
       style="opacity:1;fill:#241c1c;fill-opacity:1;fill-rule:nonzero;stroke:none;stroke-width:0.17199999;stroke-linecap:butt;stroke-linejoin:bevel;stroke-miterlimit:4;stroke-dasharray:none;stroke-dashoffset:0;stroke-opacity:1;paint-order:normal"
       id="path4576"
       d="m 426.98027,39.00783 c 0.38068,0.859565 0.70768,1.739733 1.04682,2.616078 0.47397,1.142839 0.95081,2.284545 1.42674,3.426611 0.45363,1.007795 0.88955,2.024642 1.36141,3.024314 0.16963,0.402138 0.34679,0.798217 0.53184,1.193388 0,0 -0.71041,0.241181 -0.71041,0.241181 v 0 c -0.17753,-0.397301 -0.33969,-0.799238 -0.50643,-1.201058 -0.45395,-1.012063 -0.87649,-2.038313 -1.33091,-3.05018 -0.47932,-1.144887 -0.97113,-2.284465 -1.44685,-3.430794 -0.33925,-0.863349 -0.66043,-1.734426 -1.08582,-2.560672 0,0 0.71361,-0.258868 0.71361,-0.258868 z"
       inkscape:connector-curvature="0" />
    <path
       style="opacity:1;fill:#241c1c;fill-opacity:1;fill-rule:nonzero;stroke:none;stroke-width:0.17199999;stroke-linecap:butt;stroke-linejoin:bevel;stroke-miterlimit:4;stroke-dasharray:none;stroke-dashoffset:0;stroke-opacity:1;paint-order:normal"
       id="path4578"
       d="m 425.30447,44.171711 c 0.6005,0.01561 1.20132,0.01119 1.80195,0.01005 0.5633,0.04843 1.10268,-0.04717 1.65394,-0.139989 0.35991,-0.05066 0.1797,-0.02806 0.54065,-0.06782 0,0 -0.35034,0.663525 -0.35034,0.663525 v 0 c -0.34803,0.04664 -0.17362,0.02138 -0.52319,0.07585 -0.56967,0.09251 -1.13778,0.125529 -1.71529,0.09936 -0.60484,-0.0011 -1.20983,-0.0054 -1.81451,0.01005 0,0 0.40679,-0.651031 0.40679,-0.651031 z"
       inkscape:connector-curvature="0" />
    <path
       style="opacity:1;fill:#241c1c;fill-opacity:1;fill-rule:nonzero;stroke:none;stroke-width:0.17199999;stroke-linecap:butt;stroke-linejoin:bevel;stroke-miterlimit:4;stroke-dasharray:none;stroke-dashoffset:0;stroke-opacity:1;paint-order:normal"
       id="path4580"
       d="m 439.30458,38.813451 c -0.46823,-0.311155 -1.01999,-0.463047 -1.54929,-0.637921 -0.39778,-0.10365 -0.81799,-0.204142 -1.22341,-0.06709 -0.0335,0.01132 0.13587,-0.0083 0.10573,0.01029 -0.0971,0.05973 -0.21312,0.0809 -0.31967,0.121344 -0.68453,0.306636 -1.23505,0.804201 -1.76691,1.319593 -0.39153,0.396912 -0.67186,0.873244 -0.70216,1.436068 0.0599,0.485884 0.41781,0.761463 0.84487,0.931217 0.49708,0.164698 0.99579,0.292545 1.51633,0.355362 0.60534,0.119899 1.19914,0.281826 1.80049,0.41942 0.59939,0.164034 1.16229,0.419849 1.68039,0.761487 0.48062,0.364151 0.89154,0.810331 1.27228,1.275194 0.26591,0.413067 0.43003,0.891624 0.57539,1.360027 0.14555,0.488709 0.15327,0.967568 0.0111,1.454295 -0.23421,0.53847 -0.6428,0.9729 -1.08937,1.343406 -0.64915,0.564253 -1.38689,0.737683 -2.21194,0.88632 -0.7262,0.07924 -1.44513,0.06377 -2.16691,-0.03412 -0.4027,-0.03414 -0.7873,-0.152921 -1.14353,-0.338497 0,0 0.5556,-0.511572 0.5556,-0.511572 v 0 c 0.32649,0.138956 0.66939,0.225517 1.02409,0.255719 0.68591,0.07802 1.37695,0.06442 2.06082,-0.03578 -0.0417,0.01101 -0.16762,0.03894 -0.12494,0.03299 0.49837,-0.06955 0.95081,-0.289848 1.34657,-0.595778 0.40283,-0.289502 0.74872,-0.663358 0.99756,-1.092854 0.14647,-0.391287 0.12708,-0.775824 0.007,-1.1753 -0.13004,-0.412025 -0.26487,-0.839033 -0.50535,-1.199671 -0.35578,-0.426911 -0.73118,-0.84328 -1.19351,-1.158169 -0.49027,-0.298521 -1.01431,-0.523636 -1.57385,-0.658021 -0.58724,-0.145807 -1.17401,-0.28983 -1.77149,-0.389072 -0.55446,-0.09029 -1.0967,-0.235323 -1.61845,-0.44581 -0.5632,-0.305065 -0.98126,-0.745231 -1.04273,-1.411354 0.0331,-0.675275 0.30946,-1.266412 0.77875,-1.756285 0.56134,-0.555519 1.13827,-1.094754 1.84661,-1.461334 0.83267,-0.393755 1.6732,-0.476446 2.54098,-0.174122 0.57205,0.199292 1.16027,0.377328 1.66132,0.730123 0,0 -0.62204,0.449908 -0.62204,0.449908 z"
       inkscape:connector-curvature="0" />
    <path
       style="opacity:1;fill:#241c1c;fill-opacity:1;fill-rule:nonzero;stroke:none;stroke-width:0.17199999;stroke-linecap:butt;stroke-linejoin:bevel;stroke-miterlimit:4;stroke-dasharray:none;stroke-dashoffset:0;stroke-opacity:1;paint-order:normal"
       id="path4582"
       d="m 445.93634,38.053592 c 0.003,1.130122 0.085,2.265103 0.17867,3.392064 0.11782,1.328422 0.25744,2.65626 0.4753,3.972351 0.1239,0.869513 0.29054,1.728369 0.47485,2.586413 0.0828,0.399346 0.12202,0.900155 0.52898,1.095036 0.41674,0.139941 0.82904,0.09626 1.24984,0.01804 0.64227,-0.104913 0.64537,-0.145518 1.70095,-0.335468 -0.0329,0.0034 -0.13063,0.01865 -0.0987,0.01021 0.67008,-0.176983 1.36496,-0.281313 2.05414,-0.34457 0.0956,0.0089 1.01566,-0.09223 0.19368,-0.0011 0,0 0.57674,0.50609 0.57674,0.50609 v 0 c -0.38254,0.07041 -0.73981,0.140848 -1.12607,0.149825 -0.69091,0.07791 -1.00021,0.147439 -1.92678,0.346451 0.0418,-0.009 0.1673,-0.03474 0.12531,-0.0269 -0.6142,0.1147 -1.21687,0.290441 -1.83859,0.365742 -0.52067,0.06243 -1.05389,0.04365 -1.51802,-0.22877 -0.4318,-0.362831 -0.57266,-0.866055 -0.64722,-1.413549 -0.17211,-0.86736 -0.31909,-1.736127 -0.43963,-2.612509 -0.20569,-1.327815 -0.3351,-2.666884 -0.45673,-4.004636 -0.10594,-1.138782 -0.18719,-2.281137 -0.26757,-3.421613 0,0 0.76081,-0.0532 0.76081,-0.0532 z"
       inkscape:connector-curvature="0" />
    <path
       style="opacity:1;fill:#241c1c;fill-opacity:1;fill-rule:nonzero;stroke:none;stroke-width:0.17199999;stroke-linecap:butt;stroke-linejoin:bevel;stroke-miterlimit:4;stroke-dasharray:none;stroke-dashoffset:0;stroke-opacity:1;paint-order:normal"
       id="path4584"
       d="m 444.66377,41.647419 c 0.6831,0.250867 1.33067,0.593876 1.97101,0.93757 0.58206,0.378438 1.22283,0.661987 1.77967,1.077388 0,0 -0.59962,0.442526 -0.59962,0.442526 v 0 c -0.55026,-0.386185 -1.16089,-0.68054 -1.72951,-1.038698 -0.63507,-0.333862 -1.27558,-0.666078 -1.96379,-0.878086 0,0 0.54224,-0.5407 0.54224,-0.5407 z"
       inkscape:connector-curvature="0" />
    <path
       style="opacity:1;fill:#241c1c;fill-opacity:1;fill-rule:nonzero;stroke:none;stroke-width:0.17199999;stroke-linecap:butt;stroke-linejoin:bevel;stroke-miterlimit:4;stroke-dasharray:none;stroke-dashoffset:0;stroke-opacity:1;paint-order:normal"
       id="path4588"
       d="m 458.02711,37.84474 c -0.32549,0.673624 -0.61005,1.367925 -0.87474,2.067613 -0.25839,0.682479 -0.33626,1.406803 -0.37796,2.129536 -0.0429,0.768472 -0.0421,1.534065 0.0489,2.298245 0.0606,0.63699 0.25429,1.248394 0.51083,1.83139 0.20399,0.5334 0.48228,1.018961 0.80449,1.486458 0.27376,0.363083 0.6768,0.427628 1.1012,0.471157 -0.10941,-0.02315 0.49765,-0.05002 0.37375,-0.07952 -0.0816,-0.01945 -0.17484,0.06656 -0.25001,0.02929 -0.0531,-0.02633 0.10996,-0.04476 0.16214,-0.07286 0.15407,-0.083 0.19746,-0.124018 0.33144,-0.226573 0.34661,-0.326488 0.65924,-0.697241 0.91231,-1.100992 0.215,-0.490088 0.33205,-1.024165 0.42664,-1.549985 0.0589,-0.616347 0.17936,-1.223594 0.26779,-1.835954 0.0563,-0.532138 0.12604,-1.072018 0.0714,-1.606479 -0.0556,-0.529587 -0.19079,-1.040728 -0.31398,-1.55676 -0.17182,-0.414584 -0.29088,-0.844175 -0.45691,-1.260248 -0.13004,-0.372605 -0.31115,-0.725284 -0.49099,-1.076198 -0.22449,-0.349898 -0.55747,-0.484018 -0.94675,-0.57 0,0.07611 -0.43694,-0.154686 -0.44522,-0.0065 -0.0114,0.204605 0.62976,-0.280164 -0.01,0.08046 -0.19336,0.10908 -0.26864,0.220292 -0.41902,0.384562 -0.24916,0.403526 -0.12748,0.191317 -0.36235,0.638206 0,0 -0.71258,-0.155284 -0.71258,-0.155284 v 0 c 0.24567,-0.490325 0.11872,-0.245559 0.38111,-0.734176 0.55044,-0.712031 1.13154,-1.028025 2.06616,-0.773597 0.48765,0.160211 0.90392,0.410147 1.16215,0.871265 0.18828,0.36295 0.36518,0.734571 0.50316,1.119497 0.17193,0.436163 0.29718,0.886984 0.46384,1.32546 0.12772,0.535543 0.26652,1.066556 0.32459,1.615998 0.057,0.571722 -0.004,1.147035 -0.0706,1.716228 -0.0901,0.617016 -0.21714,1.227653 -0.26665,1.849844 -0.10096,0.579076 -0.23392,1.161508 -0.44109,1.710915 -0.25717,0.456325 -0.60867,0.852509 -0.95882,1.239912 -0.49011,0.464759 -1.06397,0.703625 -1.75551,0.626099 -0.53898,-0.09855 -1.01121,-0.288761 -1.33014,-0.761492 -0.33324,-0.493056 -0.61066,-1.013867 -0.82971,-1.568542 -0.26582,-0.625676 -0.46863,-1.27894 -0.52797,-1.959557 -0.0913,-0.789969 -0.0948,-1.579714 -0.0591,-2.374318 0.044,-0.76654 0.12147,-1.536653 0.39298,-2.261616 0.26284,-0.700606 0.54959,-1.392714 0.83855,-2.082348 0,0 0.75615,0.120857 0.75615,0.120857 z"
       inkscape:connector-curvature="0" />
  </g>
</svg>
